<?xml version="1.0" standalone="no"?><!DOCTYPE svg PUBLIC "-//W3C//DTD SVG 1.1//EN" "http://www.w3.org/Graphics/SVG/1.1/DTD/svg11.dtd" ><svg xmlns="http://www.w3.org/2000/svg"><metadata></metadata><defs><font id="Founder:FZQingKeBenYueSongS-R-GB	Regular" horiz-adv-x="256"><font-face font-family="FZQingKeBenYueSongS-R-GB" font-weight="400" font-stretch="normal" units-per-em="256" panose-1="2 0 0 0 0 0 0 0 0 0" ascent="221" descent="-58" x-height="0" bbox="0 -48 261 217" underline-thickness="12" underline-position="-46" unicode-range="U+0021-95f4" /><missing-glyph horiz-adv-x="256"  /><glyph glyph-name="" unicode="!" d="M29 34 Q44 33 45 16 Q44 1 29 0 Q14 1 13 16 Q14 33 29 34 ZM32 53 L26 53 Q24 109 18 137 Q13 156 13 168 Q13 181 30 181 Q46 181 46 167 Q46 156 41 137 Q35 103 32 53 Z" /><glyph glyph-name="" unicode="&quot;" d="M34 163 L28 120 Q27 114 24 113 Q20 114 19 120 L14 163 Q12 181 24 181 Q37 181 34 163 ZM72 163 L66 120 Q64 114 61 114 Q58 114 57 120 L52 163 Q49 181 62 181 Q73 181 72 163 Z" /><glyph glyph-name="" unicode="#" d="M56 2 L63 60 L41 60 L34 2 L19 2 L26 60 L8 60 L8 70 L28 70 L34 115 L14 115 L14 125 L35 125 L42 176 L57 176 L50 125 L71 125 L78 176 L93 176 L87 125 L105 125 L105 115 L85 115 L79 70 L101 70 L101 60 L78 60 L70 2 L56 2 ZM48 115 L42 70 L64 70 L70 115 L48 115 Z" /><glyph glyph-name="" unicode="$" d="M53 -15 L53 2 Q11 5 10 33 Q11 48 24 49 Q44 45 35 25 Q37 13 53 10 L53 81 Q13 98 14 132 Q15 175 53 178 L53 190 L61 190 L61 178 Q100 176 101 149 Q100 135 88 134 Q71 136 78 158 Q73 170 61 170 L61 105 Q103 85 102 48 Q102 7 61 2 L61 -15 L53 -15 ZM61 77 L61 10 Q80 16 82 40 Q82 63 61 77 ZM53 110 L53 170 Q35 168 34 142 Q33 121 53 110 Z" /><glyph glyph-name="" unicode="%" d="M33 -2 L26 1 L136 183 L144 177 L33 -2 ZM44 179 Q77 177 78 134 Q76 87 44 84 Q11 86 10 131 Q12 177 44 179 ZM31 139 L31 126 Q30 90 44 92 Q58 91 58 128 L58 139 Q59 173 44 171 Q31 172 31 139 ZM127 94 Q160 93 161 46 Q160 1 127 0 Q94 0 93 45 Q95 92 127 94 ZM114 53 L114 41 Q114 5 127 7 Q141 5 141 42 L141 54 Q141 87 127 86 Q114 86 114 53 Z" /><glyph glyph-name="" unicode="&amp;" d="M104 99 L147 99 L147 92 Q132 91 129 78 Q122 56 112 41 L126 22 Q133 11 148 9 L148 2 L107 2 L95 18 Q76 0 49 0 Q12 2 10 43 Q10 77 41 95 Q23 118 23 137 Q24 178 65 179 Q101 178 103 143 Q105 117 66 102 L107 47 Q118 64 119 79 Q120 90 104 92 L104 99 ZM62 108 Q85 123 85 144 Q85 170 65 171 Q46 170 45 145 Q44 131 62 108 ZM91 25 L46 88 Q34 72 34 51 Q35 13 61 11 Q75 11 91 25 Z" /><glyph glyph-name="" unicode="(" d="M72 -18 L65 -24 Q13 24 15 87 Q14 144 65 200 L73 195 Q36 146 37 87 Q36 27 72 -18 Z" /><glyph glyph-name="" unicode=")" d="M13 195 L20 200 Q70 145 70 87 Q72 25 21 -24 L14 -18 Q49 27 48 87 Q49 145 13 195 Z" /><glyph glyph-name="" unicode="*" d="M54 91 L33 65 Q28 60 24 60 Q14 64 13 81 Q13 86 20 88 L52 97 L22 108 Q13 110 14 115 Q16 134 26 136 Q30 136 33 131 L54 103 L46 142 Q45 149 45 152 Q45 163 56 163 Q68 163 68 152 Q68 151 68 148 Q67 144 67 142 L59 103 L80 130 Q85 136 88 136 Q98 133 101 116 Q101 111 94 109 L61 97 L93 86 Q100 84 100 78 Q98 62 88 58 Q85 58 80 64 L59 91 L66 54 Q67 51 67 47 Q68 44 68 43 Q68 31 56 31 Q44 31 44 43 Q44 44 45 48 Q46 51 46 53 L54 91 Z" /><glyph glyph-name="" unicode="+" d="M62 36 L48 36 L48 84 L12 84 L12 97 L48 97 L48 143 L62 143 L62 97 L98 97 L98 84 L62 84 L62 36 Z" /><glyph glyph-name="" unicode="," d="M18 -31 L13 -24 Q34 -11 35 2 Q14 1 13 22 Q13 42 33 42 Q53 41 53 17 Q54 -12 18 -31 Z" /><glyph glyph-name="" unicode="-" d="M99 84 L13 84 L13 96 L99 96 L99 84 Z" /><glyph glyph-name="" unicode="." d="M33 43 Q50 42 51 23 Q50 3 33 2 Q14 3 13 22 Q14 42 33 43 Z" /><glyph glyph-name="" unicode="/" d="M20 -32 L9 -32 L56 184 L68 184 L20 -32 Z" /><glyph glyph-name="" unicode="0" d="M57 180 Q101 179 101 89 Q101 -1 57 0 Q11 -1 12 89 Q12 180 57 180 ZM57 172 Q36 173 36 89 Q36 3 57 6 Q78 4 78 89 Q79 175 57 172 Z" /><glyph glyph-name="" unicode="1" d="M77 3 L11 3 L11 9 Q34 8 33 36 L33 137 Q34 162 13 162 L13 168 L56 180 L56 37 Q54 7 77 9 L77 3 Z" /><glyph glyph-name="" unicode="2" d="M96 60 L103 58 L99 3 L13 3 Q16 55 53 88 Q77 109 77 136 Q77 173 56 173 Q41 171 38 153 Q51 130 29 124 Q15 125 15 142 Q18 179 57 181 Q99 179 101 136 Q102 99 63 76 Q35 62 27 30 L78 30 Q91 27 96 60 Z" /><glyph glyph-name="" unicode="3" d="M38 89 L38 98 Q73 102 73 139 Q73 172 54 173 Q39 172 37 156 Q47 133 26 129 Q13 129 13 146 Q16 179 55 181 Q95 179 97 138 Q97 107 58 94 Q101 84 99 46 Q98 0 54 0 Q10 2 10 31 Q11 49 25 50 Q47 45 36 22 Q41 6 54 6 Q75 8 76 46 Q77 88 38 89 Z" /><glyph glyph-name="" unicode="4" d="M98 3 L46 3 L46 10 Q61 9 60 30 L60 49 L9 49 L9 60 L66 177 L83 177 L83 60 L100 60 L100 49 L83 49 L83 31 Q82 8 98 10 L98 3 ZM60 60 L60 143 L19 60 L60 60 Z" /><glyph glyph-name="" unicode="5" d="M22 177 L92 177 L92 150 L29 150 L25 93 Q38 109 56 109 Q96 105 99 56 Q98 2 52 0 Q13 1 11 30 Q12 47 25 48 Q47 43 35 21 Q40 7 52 7 Q75 9 76 55 Q76 99 49 99 Q33 99 23 74 L16 76 L22 177 Z" /><glyph glyph-name="" unicode="6" d="M60 172 Q37 169 36 98 Q46 113 61 113 Q97 107 100 57 Q98 1 56 0 Q13 0 13 83 Q15 176 62 181 Q93 179 96 152 Q96 136 82 136 Q64 138 72 161 Q70 173 60 172 ZM57 103 Q38 100 36 61 Q37 9 56 6 Q77 7 77 56 Q76 100 57 103 Z" /><glyph glyph-name="" unicode="7" d="M19 120 L13 121 L18 177 L99 177 L99 160 Q61 86 62 15 Q62 0 48 0 Q35 0 35 12 Q35 54 85 150 L38 150 Q25 152 19 120 Z" /><glyph glyph-name="" unicode="8" d="M95 140 Q93 112 69 100 Q100 78 99 48 Q98 1 53 0 Q12 0 11 40 Q11 71 38 87 Q13 107 13 133 Q15 179 55 181 Q93 179 95 140 ZM35 146 Q34 122 62 103 Q78 119 77 142 Q76 172 55 173 Q36 170 35 146 ZM78 38 Q79 64 46 82 Q28 67 28 43 Q29 9 53 7 Q76 10 78 38 Z" /><glyph glyph-name="" unicode="9" d="M52 7 Q72 5 76 81 Q65 65 49 65 Q13 67 12 120 Q13 178 55 180 Q96 175 99 95 Q99 0 51 0 Q18 0 15 26 Q16 43 29 44 Q51 41 41 17 Q44 7 52 7 ZM55 172 Q36 170 35 121 Q35 78 55 77 Q76 77 76 123 Q75 170 55 172 Z" /><glyph glyph-name="" unicode=":" d="M30 117 Q46 116 47 97 Q46 79 30 78 Q15 79 14 97 Q15 116 30 117 ZM30 37 Q46 36 47 17 Q46 0 30 -1 Q15 -1 14 17 Q15 36 30 37 Z" /><glyph glyph-name="" unicode=";" d="M32 116 Q48 116 48 97 Q47 79 32 78 Q17 79 16 97 Q17 115 32 116 ZM21 -31 L16 -23 Q31 -14 34 0 Q15 -1 16 17 Q18 34 31 36 Q50 35 50 14 Q50 -13 21 -31 Z" /><glyph glyph-name="" unicode="?" d="M51 53 L43 53 L43 59 Q43 79 57 99 Q73 123 72 140 Q71 171 51 173 Q36 173 31 153 Q44 129 21 123 Q9 124 8 140 Q11 179 52 181 Q92 178 95 140 Q95 112 73 98 Q51 83 51 59 L51 53 ZM47 35 Q62 34 63 16 Q61 0 47 0 Q32 0 31 16 Q32 34 47 35 Z" /><glyph glyph-name="" unicode="@" d="M137 27 L141 17 Q113 0 85 0 Q15 3 12 81 Q16 173 93 178 Q155 174 158 99 Q157 45 118 34 Q95 29 99 53 Q87 34 70 34 Q47 35 48 69 Q55 140 99 146 Q108 146 114 136 L116 143 L134 143 Q120 80 117 55 Q116 48 122 48 Q147 53 149 99 Q148 167 93 169 Q38 164 35 83 Q38 15 87 10 Q110 10 137 27 ZM78 46 Q103 54 109 121 Q110 137 100 137 Q75 131 69 67 Q69 46 78 46 Z" /><glyph glyph-name="" unicode="a" d="M91 3 L91 10 Q113 10 108 24 L98 60 L48 60 L37 24 Q32 11 56 10 L56 3 L8 3 L8 10 Q23 9 28 25 L76 177 L89 178 L133 33 Q139 10 156 10 L156 3 L91 3 ZM51 70 L95 70 L74 144 L51 70 Z" /><glyph glyph-name="" unicode="b" d="M25 31 L25 146 Q26 171 8 169 L8 177 L72 177 Q123 178 122 136 Q123 104 85 93 Q127 86 126 50 Q127 2 70 3 L8 3 L8 9 Q26 7 25 31 ZM49 97 L68 97 Q99 97 99 136 Q98 168 67 169 L49 169 L49 97 ZM49 11 L66 11 Q100 12 101 49 Q101 89 67 89 L49 89 L49 11 Z" /><glyph glyph-name="" unicode="c" d="M128 175 L130 122 L123 119 Q109 174 80 171 Q40 167 38 89 Q40 14 82 12 Q111 13 126 51 L135 46 Q118 0 80 0 Q15 4 12 88 Q15 176 80 180 Q100 180 114 170 L128 175 Z" /><glyph glyph-name="" unicode="d" d="M9 177 L66 177 Q144 177 143 91 Q144 2 67 3 L9 3 L9 11 Q27 9 26 33 L26 145 Q27 171 9 169 L9 177 ZM49 11 L67 11 Q118 12 119 90 Q119 169 66 169 L49 169 L49 11 Z" /><glyph glyph-name="" unicode="e" d="M25 33 L25 145 Q26 170 7 169 L7 177 L112 177 L115 135 L109 133 Q102 173 75 169 L48 169 L48 97 L67 97 Q90 95 90 122 L97 122 L97 62 L90 62 Q89 91 67 89 L48 89 L48 11 L79 11 Q100 6 112 52 L118 51 L114 3 L7 3 L7 11 Q26 10 25 33 Z" /><glyph glyph-name="" unicode="f" d="M26 36 L26 144 Q27 171 9 169 L9 177 L112 177 L116 133 L108 131 Q101 173 77 169 L49 169 L49 97 L71 97 Q90 95 91 121 L98 121 L98 63 L91 63 Q89 91 71 89 L49 89 L49 37 Q47 9 68 11 L68 3 L8 3 L8 11 Q27 10 26 36 Z" /><glyph glyph-name="" unicode="g" d="M91 83 L144 83 L144 76 Q129 78 130 54 L130 32 Q130 20 130 12 Q118 11 108 6 Q93 0 77 0 Q13 2 11 87 Q14 176 80 179 Q100 179 114 171 L128 176 L130 128 L123 126 Q110 172 80 170 Q38 166 35 89 Q36 14 78 9 Q90 9 106 17 L106 54 Q107 77 91 76 L91 83 Z" /><glyph glyph-name="" unicode="h" d="M94 3 L94 11 Q112 8 110 37 L110 91 L49 91 L49 36 Q48 9 66 11 L66 3 L9 3 L9 11 Q28 9 27 36 L27 142 Q29 172 10 169 L10 177 L65 177 L65 169 Q47 172 49 142 L49 99 L110 99 L110 142 Q111 171 94 169 L94 177 L149 177 L149 169 Q131 172 133 142 L133 37 Q131 8 150 11 L150 3 L94 3 Z" /><glyph glyph-name="" unicode="i" d="M9 177 L69 177 L69 169 Q49 171 50 142 L50 36 Q49 9 69 11 L69 3 L8 3 L8 11 Q28 9 27 36 L27 142 Q28 171 9 169 L9 177 Z" /><glyph glyph-name="" unicode="j" d="M36 177 L96 177 L96 169 Q77 171 78 144 L78 41 Q78 0 40 0 Q7 0 7 22 Q8 37 21 38 Q42 35 34 13 Q36 6 43 6 Q55 6 55 34 L55 144 Q56 171 36 169 L36 177 Z" /><glyph glyph-name="" unicode="k" d="M140 177 L140 169 Q123 170 105 146 L80 112 L122 31 Q132 12 145 10 L145 3 L106 3 L65 92 L48 70 L48 35 Q47 10 66 10 L66 3 L7 3 L7 10 Q26 8 25 34 L25 145 Q26 171 8 169 L8 177 L65 177 L65 169 Q47 171 48 145 L48 81 L101 157 Q106 169 87 169 L87 177 L140 177 Z" /><glyph glyph-name="" unicode="l" d="M115 58 L111 3 L7 3 L7 11 Q28 8 26 36 L26 144 Q27 171 8 169 L8 177 L66 177 L66 169 Q48 171 49 145 L49 11 L75 11 Q98 6 108 60 L115 58 Z" /><glyph glyph-name="" unicode="m" d="M184 3 L124 3 L124 11 Q144 7 143 36 L143 165 L93 9 L84 9 L36 163 L36 38 Q35 9 56 11 L56 3 L8 3 L8 11 Q30 9 28 38 L28 142 Q30 171 11 169 L11 177 L56 177 L97 46 L138 177 L184 177 L184 169 Q164 171 166 146 L166 36 Q163 8 184 11 L184 3 Z" /><glyph glyph-name="" unicode="n" d="M101 177 L145 177 L145 169 Q125 171 127 145 L127 3 L113 3 L34 148 L34 36 Q32 9 54 11 L54 3 L8 3 L8 11 Q27 8 26 36 L26 142 Q28 172 8 169 L8 177 L46 177 L119 43 L119 145 Q121 171 101 169 L101 177 Z" /><glyph glyph-name="" unicode="o" d="M76 180 Q141 176 143 89 Q141 2 76 0 Q12 1 10 87 Q13 177 76 180 ZM76 172 Q35 170 34 89 Q34 8 76 6 Q117 8 118 88 Q118 172 76 172 Z" /><glyph glyph-name="" unicode="p" d="M25 36 L25 144 Q26 171 8 169 L8 177 L67 177 Q122 177 122 129 Q123 75 68 76 L48 76 L48 37 Q47 9 67 11 L67 3 L8 3 L8 11 Q26 9 25 36 ZM48 83 L61 83 Q97 84 98 128 Q98 169 61 169 L48 169 L48 83 Z" /><glyph glyph-name="" unicode="q" d="M147 2 L149 -3 Q133 -15 120 -15 Q104 -15 92 1 Q85 0 77 0 Q11 2 10 88 Q13 176 76 181 Q141 178 143 89 Q143 40 114 12 Q121 -2 135 -1 Q137 -1 147 2 ZM44 37 Q52 63 70 62 Q88 66 107 23 Q119 50 119 88 Q119 173 76 173 Q36 171 35 90 Q35 59 44 37 ZM77 7 Q79 7 84 8 Q87 8 88 8 Q71 50 62 46 Q54 46 48 25 Q57 8 77 7 Z" /><glyph glyph-name="" unicode="r" d="M25 34 L25 144 Q26 171 8 169 L8 177 L66 177 Q121 177 121 133 Q121 102 95 90 L119 29 Q124 14 138 11 L138 3 L101 3 L73 84 L49 84 L49 35 Q47 9 66 11 L66 3 L8 3 L8 11 Q26 9 25 34 ZM49 92 L65 92 Q97 93 97 132 Q98 170 63 169 L49 169 L49 92 Z" /><glyph glyph-name="" unicode="s" d="M100 177 L101 130 L95 128 Q83 174 59 172 Q36 171 35 142 Q35 121 69 105 Q109 86 108 53 Q107 1 58 0 Q46 0 29 6 L16 3 L15 53 L22 54 Q30 5 58 8 Q85 9 86 37 Q86 63 46 82 Q14 97 14 129 Q15 179 59 180 Q74 180 89 173 L100 177 Z" /><glyph glyph-name="" unicode="t" d="M40 3 L40 11 Q62 8 61 34 L61 169 Q25 170 16 115 L9 117 L14 177 L133 177 L136 117 L130 115 Q119 169 84 169 L84 35 Q82 9 105 11 L105 3 L40 3 Z" /><glyph glyph-name="" unicode="u" d="M101 177 L146 177 L146 169 Q125 172 127 140 L127 66 Q128 0 77 0 Q25 -1 25 65 L25 145 Q26 171 7 169 L7 177 L66 177 L66 169 Q47 171 48 145 L48 66 Q48 10 84 10 Q120 10 120 66 L120 140 Q122 172 101 169 L101 177 Z" /><glyph glyph-name="" unicode="v" d="M82 3 L70 3 L30 143 Q24 166 7 169 L7 177 L68 177 L68 169 Q46 172 55 142 L84 37 L114 143 Q123 170 101 169 L101 177 L147 177 L147 169 Q129 169 122 142 L82 3 Z" /><glyph glyph-name="" unicode="w" d="M51 145 L72 40 L105 173 L121 173 L151 41 L173 142 Q180 170 156 169 L156 177 L201 177 L201 169 Q186 171 179 136 L150 3 L136 3 L104 140 L70 3 L57 3 L27 142 Q22 169 7 169 L7 177 L66 177 L66 169 Q44 171 51 145 Z" /><glyph glyph-name="" unicode="x" d="M143 177 L143 169 Q124 169 111 144 L85 99 L117 33 Q124 12 144 10 L144 3 L83 3 L83 10 Q100 10 95 23 L70 76 L42 27 Q33 12 56 10 L56 3 L7 3 L7 10 Q24 11 36 32 L65 85 L33 147 Q25 166 9 169 L9 177 L71 177 L71 169 Q49 168 60 147 L80 107 L108 155 Q112 168 94 169 L94 177 L143 177 Z" /><glyph glyph-name="" unicode="y" d="M42 3 L42 11 Q62 9 61 35 L61 74 L27 149 Q20 167 7 169 L7 177 L68 177 L68 169 Q57 169 53 164 Q50 159 55 149 L80 90 L108 148 Q113 160 110 164 Q108 169 95 169 L95 177 L143 177 L143 169 Q127 169 116 145 L85 81 L85 36 Q83 9 105 11 L105 3 L42 3 Z" /><glyph glyph-name="" unicode="z" d="M22 123 L15 124 L17 177 L120 177 L120 169 L37 11 L75 11 Q105 5 115 58 L122 56 L120 3 L8 3 L8 10 L91 169 L60 169 Q33 174 22 123 Z" /><glyph glyph-name="" unicode="[" d="M17 195 L57 195 L57 187 L48 187 Q40 187 40 174 L40 -1 Q39 -14 49 -13 L57 -13 L57 -21 L17 -21 L17 195 Z" /><glyph glyph-name="" unicode="]" d="M50 -21 L9 -21 L9 -13 L17 -13 Q27 -14 27 0 L27 174 Q27 187 17 187 L9 187 L9 195 L50 195 L50 -21 Z" /><glyph glyph-name="" unicode="^" d="M18 90 L7 90 L26 177 L52 177 L71 90 L60 90 L39 159 L18 90 Z" /><glyph glyph-name="" unicode="_" d="M105 -27 L8 -27 L8 -15 L105 -15 L105 -27 Z" /><glyph glyph-name="" unicode="`" d="M56 129 L52 125 L15 156 Q2 168 11 179 Q22 188 32 170 L56 129 Z" /><glyph glyph-name="" unicode="a" d="M87 90 L87 25 Q86 11 98 12 L99 4 L76 2 Q65 0 66 19 Q55 0 35 0 Q10 3 9 33 Q9 72 65 74 L65 91 Q65 116 51 117 Q42 117 37 108 Q47 87 27 84 Q16 85 15 98 Q19 123 51 125 Q86 125 87 90 ZM65 47 L65 67 Q33 65 32 35 Q32 12 46 12 Q64 14 65 47 Z" /><glyph glyph-name="" unicode="b" d="M6 158 L6 166 L42 177 Q42 156 42 127 L42 105 Q49 124 66 124 Q101 120 103 62 Q102 2 62 0 Q46 0 36 16 L24 1 L18 3 L20 34 L20 136 Q21 160 6 158 ZM61 114 Q42 111 41 58 Q41 10 61 8 Q81 9 81 61 Q80 111 61 114 Z" /><glyph glyph-name="" unicode="c" d="M80 32 L86 28 Q75 0 53 0 Q13 1 12 61 Q13 123 53 125 Q81 123 84 98 Q84 83 71 83 Q55 87 63 105 Q62 117 52 118 Q34 115 35 62 Q35 12 57 11 Q71 11 80 32 Z" /><glyph glyph-name="" unicode="d" d="M60 160 L60 167 L97 177 Q95 152 95 132 L95 30 Q94 9 107 11 L107 4 L83 2 Q73 0 74 15 Q65 0 48 0 Q13 2 12 60 Q14 121 51 124 Q63 124 74 112 L74 137 Q75 161 60 160 ZM54 114 Q34 113 34 61 Q34 12 54 11 Q74 11 74 63 Q73 112 54 114 Z" /><glyph glyph-name="" unicode="e" d="M79 34 L86 28 Q74 0 52 0 Q12 1 11 60 Q12 124 50 125 Q83 123 84 65 L34 65 Q34 12 57 12 Q71 12 79 34 ZM34 72 L62 72 Q62 117 48 118 Q36 116 34 72 Z" /><glyph glyph-name="" unicode="f" d="M68 121 L68 113 L44 113 L44 33 Q42 9 59 11 L59 3 L8 3 L8 11 Q23 9 22 32 L22 113 L8 113 L8 121 L22 121 L22 141 Q23 176 55 177 Q80 176 82 154 Q82 142 69 141 Q53 143 61 162 Q59 169 53 169 Q44 168 44 147 L44 121 L68 121 Z" /><glyph glyph-name="" unicode="g" d="M96 111 Q95 103 89 107 Q84 113 78 112 Q87 96 87 81 Q86 42 50 40 Q42 40 36 43 Q29 37 29 30 Q29 21 46 20 Q48 20 54 20 Q60 21 63 21 Q94 20 95 -6 Q94 -45 50 -46 Q12 -45 10 -19 Q10 -6 25 0 Q12 6 12 21 Q11 35 29 46 Q14 57 14 80 Q15 124 49 125 Q60 125 67 123 Q79 124 88 124 Q96 124 96 111 ZM49 118 Q36 118 36 81 Q36 49 49 48 Q64 49 64 81 Q63 116 49 118 ZM55 0 L32 0 Q27 -5 27 -14 Q28 -37 52 -38 Q76 -37 77 -17 Q78 0 55 0 Z" /><glyph glyph-name="" unicode="h" d="M110 3 L65 3 L65 11 Q78 9 77 34 L77 80 Q76 108 64 110 Q45 107 43 68 L43 34 Q42 9 55 11 L55 3 L9 3 L9 11 Q22 9 21 33 L21 136 Q22 161 9 158 L9 166 L44 177 Q43 162 43 133 L43 103 Q54 124 72 124 Q99 123 99 83 L99 34 Q98 9 110 11 L110 3 Z" /><glyph glyph-name="" unicode="i" d="M10 107 L10 114 L45 124 L45 34 Q44 9 60 11 L60 3 L9 3 L9 11 Q25 9 24 34 L24 87 Q24 108 10 107 ZM35 178 Q47 176 48 162 Q48 146 35 145 Q22 146 21 162 Q22 177 35 178 Z" /><glyph glyph-name="" unicode="j" d="M29 107 L29 114 L66 124 Q65 108 65 83 L65 -3 Q65 -45 31 -45 Q11 -44 9 -25 Q10 -11 21 -10 Q41 -14 31 -33 Q31 -36 36 -36 Q43 -35 43 -14 L43 86 Q44 109 29 107 ZM54 179 Q67 177 68 162 Q67 146 54 145 Q41 146 40 162 Q41 177 54 179 Z" /><glyph glyph-name="" unicode="k" d="M56 3 L7 3 L7 11 Q21 9 20 30 L20 138 Q22 164 7 161 L7 166 L43 177 Q42 162 42 133 L42 59 L68 102 Q72 114 58 113 L58 121 L102 121 L102 113 Q87 114 71 93 L66 83 L89 28 Q95 13 107 11 L107 3 L76 3 L52 60 L42 46 L42 31 Q41 9 56 11 L56 3 Z" /><glyph glyph-name="" unicode="l" d="M58 3 L7 3 L7 11 Q23 9 22 32 L22 134 Q23 159 8 157 L8 165 L43 177 L43 33 Q42 9 58 11 L58 3 Z" /><glyph glyph-name="" unicode="m" d="M157 3 L113 3 L113 11 Q125 10 124 30 L124 83 Q124 111 111 111 Q94 106 92 77 L92 31 Q92 10 103 11 L103 3 L60 3 L60 11 Q72 9 71 31 L71 80 Q71 111 59 111 Q43 106 41 71 L41 30 Q40 9 52 11 L52 3 L7 3 L7 11 Q19 10 18 30 L18 87 Q19 108 7 106 L7 114 L41 124 L41 102 Q50 124 68 123 Q85 123 91 98 Q102 123 119 123 Q146 122 146 85 L146 30 Q145 10 157 11 L157 3 Z" /><glyph glyph-name="" unicode="n" d="M6 106 L6 114 L39 125 L39 101 Q50 123 67 123 Q94 124 94 85 L94 29 Q93 10 106 11 L106 3 L61 3 L61 11 Q73 9 72 28 L72 79 Q73 112 59 110 Q41 105 39 70 L39 28 Q37 9 50 11 L50 3 L6 3 L6 11 Q19 9 17 29 L17 86 Q18 109 6 106 Z" /><glyph glyph-name="" unicode="o" d="M51 125 Q91 123 92 61 Q91 1 51 0 Q10 0 10 59 Q11 123 51 125 ZM51 118 Q32 117 32 60 Q32 7 51 6 Q69 6 69 61 Q69 117 51 118 Z" /><glyph glyph-name="" unicode="p" d="M43 124 L43 108 Q51 123 67 123 Q101 118 103 63 Q102 1 65 0 Q52 1 43 10 L43 -16 Q42 -40 56 -38 L56 -46 L8 -46 L8 -38 Q23 -40 22 -17 L22 86 Q23 107 8 106 L8 114 L43 124 ZM62 112 Q43 110 42 59 Q42 11 62 10 Q81 14 81 62 Q80 110 62 112 Z" /><glyph glyph-name="" unicode="q" d="M103 -46 L54 -46 L54 -38 Q69 -39 68 -19 L68 12 Q60 0 46 0 Q10 1 9 61 Q11 122 49 124 Q64 124 75 108 L84 125 L90 123 L90 95 L90 -18 Q89 -39 103 -38 L103 -46 ZM51 115 Q32 114 32 62 Q32 13 50 11 Q70 13 71 64 Q71 114 51 115 Z" /><glyph glyph-name="" unicode="r" d="M7 116 L43 125 L43 99 Q55 125 70 125 Q85 124 86 106 Q86 90 72 90 Q60 91 61 106 Q45 100 43 70 L43 33 Q42 11 57 11 L57 3 L7 3 L7 11 Q22 10 21 31 L21 86 Q22 109 7 108 L7 116 Z" /><glyph glyph-name="" unicode="s" d="M69 124 L71 90 L65 88 Q57 118 43 117 Q31 117 29 101 Q29 86 49 74 Q76 60 75 36 Q74 1 43 0 Q32 0 22 5 L12 3 L11 37 L17 39 Q24 4 43 7 Q55 8 56 22 Q57 39 33 52 Q10 64 10 88 Q12 123 43 125 Q52 125 60 120 L69 124 Z" /><glyph glyph-name="" unicode="t" d="M32 161 L39 161 L39 121 L60 121 L60 113 L39 113 L39 30 Q38 13 50 13 Q53 13 61 20 L64 12 Q54 0 39 0 Q16 0 17 28 L17 113 L7 113 L7 121 L10 121 Q26 118 32 161 Z" /><glyph glyph-name="" unicode="u" d="M107 11 L108 4 L84 2 Q74 1 75 12 L75 23 Q66 0 46 0 Q19 0 19 36 L19 89 Q20 109 7 109 L7 118 L41 124 Q41 111 41 91 L41 42 Q40 14 56 15 Q75 18 76 59 L76 87 Q77 111 63 109 L63 116 L98 124 Q97 109 97 89 L97 24 Q96 10 107 11 Z" /><glyph glyph-name="" unicode="v" d="M65 121 L99 121 L99 113 Q89 113 81 89 L57 3 L44 3 L19 97 Q15 114 6 113 L6 121 L52 121 L52 113 Q37 113 43 94 L58 34 L75 97 Q80 114 65 113 L65 121 Z" /><glyph glyph-name="" unicode="w" d="M52 38 L70 118 L83 118 L102 36 L114 93 Q118 115 103 114 L103 121 L137 121 L137 114 Q126 114 121 90 L103 3 L89 3 L70 81 L52 3 L38 3 L18 97 Q16 113 7 114 L7 121 L48 121 L48 114 Q37 113 41 94 L52 38 Z" /><glyph glyph-name="" unicode="x" d="M98 3 L48 3 L48 11 Q61 12 56 21 L46 45 L34 21 Q31 16 32 13 Q34 11 41 11 L41 3 L7 3 L7 11 Q19 11 25 24 L42 55 L23 98 Q16 112 7 113 L7 121 L52 121 L52 113 Q46 114 44 112 Q43 109 45 104 L55 79 L68 101 Q71 108 70 110 Q69 113 63 113 L63 121 L97 121 L97 113 Q86 115 76 97 L59 70 L79 28 Q85 12 98 11 L98 3 Z" /><glyph glyph-name="" unicode="y" d="M66 121 L100 121 L100 113 Q89 114 83 93 L50 -17 Q41 -48 28 -47 Q13 -46 13 -30 Q14 -16 26 -15 Q37 -16 37 -25 Q40 -23 44 -11 L48 3 L20 97 Q16 112 7 113 L7 121 L51 121 L51 113 Q39 115 44 98 L59 42 L75 95 Q82 113 66 113 L66 121 Z" /><glyph glyph-name="" unicode="z" d="M77 45 L83 44 L82 3 L7 3 L7 9 L55 113 L39 113 Q24 118 15 81 L10 82 L12 121 L81 121 L81 115 L33 11 L52 11 Q70 7 77 45 Z" /><glyph glyph-name="" unicode="{" d="M45 174 L45 122 Q45 94 21 85 Q45 77 45 48 L45 0 Q44 -14 55 -13 L60 -13 L60 -21 L55 -21 Q20 -21 21 8 L21 54 Q22 79 7 82 L7 89 Q22 93 21 116 L21 163 Q20 196 55 195 L60 195 L60 187 L55 187 Q44 188 45 174 Z" /><glyph glyph-name="" unicode="|" d="M28 -29 L15 -29 L15 198 L28 198 L28 -29 Z" /><glyph glyph-name="" unicode="}" d="M24 0 L24 48 Q23 80 48 85 Q22 91 24 122 L24 172 Q24 188 14 187 L8 187 L8 195 L14 195 Q48 195 48 163 L48 115 Q47 90 62 89 L62 82 Q47 79 48 56 L48 8 Q47 -20 14 -21 L8 -21 L8 -13 L14 -13 Q24 -14 24 0 Z" /><glyph glyph-name="" unicode="&#x3001;" d="M34 33 L38 37 L83 8 Q98 -6 85 -20 Q76 -28 65 -9 L34 33 Z" /><glyph glyph-name="" unicode="&#x4e00;" d="M54 95 Q28 93 22 91 L12 101 L202 105 L220 123 L240 103 Q241 100 238 100 L54 95 Z" /><glyph glyph-name="" unicode="&#x4e0b;" d="M48 184 Q30 183 21 181 L12 190 L204 193 L221 210 L242 190 Q243 189 243 188 Q243 187 241 187 L118 185 L134 179 Q135 179 135 176 L134 164 L134 51 L135 4 Q132 -12 111 -25 Q107 -26 106 -20 L108 46 L109 157 Q108 173 106 185 L48 184 ZM154 131 Q214 104 219 90 Q222 72 204 60 Q196 56 194 63 Q181 102 152 129 Q152 132 154 131 Z" /><glyph glyph-name="" unicode="&#x4e0e;" d="M194 112 L205 126 L228 112 Q230 112 228 110 L220 99 Q213 27 198 -1 Q189 -18 157 -30 Q155 -31 154 -31 Q153 -30 153 -28 Q156 -12 144 -7 Q143 -6 143 -4 Q144 -3 145 -4 Q156 -4 163 -4 Q185 -2 194 106 L81 104 Q76 90 59 83 Q55 81 54 86 L69 172 Q72 201 72 214 L100 203 Q102 202 100 200 L97 196 L92 170 L196 172 L211 188 L232 169 Q234 168 232 167 L91 164 L82 110 L194 112 ZM48 50 Q34 49 21 47 L13 55 L140 57 L156 73 L174 56 Q176 54 174 53 L48 50 Z" /><glyph glyph-name="" unicode="&#x4e1a;" d="M42 -12 Q25 -13 13 -15 L5 -7 L92 -6 L93 168 L92 213 L118 205 Q121 204 119 201 Q116 198 114 191 L113 -5 L141 -5 L142 167 L141 212 L170 204 Q173 204 170 200 Q167 199 165 190 L164 54 Q191 116 202 167 L231 150 Q233 148 231 147 L224 142 Q193 83 164 42 L163 -5 L215 -4 L230 10 L252 -6 Q253 -8 251 -9 L42 -12 ZM33 158 Q80 102 84 72 Q81 57 63 51 Q54 49 55 57 Q53 113 31 157 Q31 159 33 158 Z" /><glyph glyph-name="" unicode="&#x4e3a;" d="M114 213 L141 204 Q144 204 142 201 L138 195 Q138 183 137 162 Q137 145 137 137 L193 138 L205 152 L229 137 Q232 136 230 134 L221 123 Q221 113 220 88 Q219 60 219 47 Q219 24 217 16 Q210 -9 178 -23 Q176 -24 175 -23 Q174 -22 175 -21 Q176 -3 166 0 Q165 1 165 2 Q165 4 166 3 Q190 0 190 20 Q194 67 195 132 L136 130 Q141 4 6 -30 Q3 -31 4 -26 Q114 7 113 129 L87 129 Q64 128 48 124 L39 134 L113 136 Q114 149 114 166 Q114 181 114 213 ZM177 58 Q176 49 165 39 Q156 35 155 43 Q150 72 138 84 Q137 85 137 87 Q138 88 140 87 Q174 70 177 58 ZM52 194 Q91 181 91 172 Q91 161 81 154 Q74 152 72 158 Q61 182 51 192 Q50 194 52 194 Z" /><glyph glyph-name="" unicode="&#x4e5f;" d="M131 202 L128 197 L128 135 L163 151 L172 170 L195 157 Q197 156 195 154 L187 142 L187 70 Q193 32 158 16 Q155 15 154 18 Q153 31 146 35 Q145 37 146 38 Q165 35 164 60 L164 145 L128 129 L127 54 Q128 26 114 12 Q110 8 108 8 Q106 8 106 13 L106 119 L71 103 L68 16 Q68 3 79 2 Q145 -6 207 5 Q222 8 232 37 Q233 39 235 39 Q237 38 236 36 Q234 15 240 8 Q255 -9 233 -16 Q211 -23 168 -24 Q123 -25 81 -19 Q49 -15 51 28 L52 94 L45 91 Q30 85 18 76 L7 82 L52 102 L52 133 Q52 144 51 160 Q51 167 51 169 Q50 173 53 171 L75 159 Q77 159 75 156 L72 148 L71 110 L106 126 L106 174 Q106 205 105 214 Q105 216 106 215 L130 205 Q131 205 132 204 Q132 204 131 202 Z" /><glyph glyph-name="" unicode="&#x4e86;" d="M115 146 L131 140 L177 186 L70 182 Q49 180 39 177 L29 186 L180 192 L194 205 L220 181 Q222 179 221 177 Q220 176 217 176 Q194 174 135 138 L145 135 Q147 133 145 132 Q142 126 141 123 L142 53 L142 17 Q143 -11 106 -29 Q102 -31 101 -26 Q102 -10 89 0 Q87 0 88 1 Q88 2 90 2 Q118 -1 116 10 L115 95 Q114 129 114 144 Q113 147 115 146 Z" /><glyph glyph-name="" unicode="&#x4e8c;" d="M54 1 Q48 1 40 0 Q28 0 24 0 L14 6 L206 9 L222 26 L243 7 Q245 5 243 4 L54 1 ZM72 160 Q59 159 46 157 L36 165 L185 167 L200 182 L219 164 Q221 163 219 162 L72 160 Z" /><glyph glyph-name="" unicode="&#x4ea4;" d="M90 110 Q103 80 124 59 Q143 89 155 132 L176 120 Q179 119 176 113 Q157 70 137 46 Q175 16 233 -5 Q235 -6 235 -7 Q235 -8 233 -9 Q222 -8 197 -28 Q145 2 124 31 Q95 0 19 -33 Q16 -34 18 -31 Q86 6 114 45 Q100 70 88 109 L90 110 ZM65 167 Q48 167 37 165 L30 172 L119 173 L118 210 Q118 213 120 212 L147 205 Q150 204 148 201 Q145 198 145 190 L144 173 L201 174 L215 188 L233 172 Q234 170 232 170 L65 167 ZM91 162 L109 146 Q111 143 109 142 Q76 94 35 59 Q31 57 33 61 Q72 107 88 161 Q88 163 89 163 Q90 163 91 162 ZM156 155 Q197 141 213 127 Q220 118 209 101 Q201 91 194 103 Q179 141 154 154 Q152 156 156 155 Z" /><glyph glyph-name="" unicode="&#x4eab;" d="M172 166 L194 153 Q196 153 194 151 L187 142 L188 118 L189 115 Q189 114 188 114 Q131 114 88 113 Q87 107 75 100 Q69 98 69 101 L69 126 L69 137 Q70 150 68 162 Q68 163 69 164 Q69 164 71 163 L88 155 L164 156 L172 166 ZM51 36 Q36 35 25 32 L16 41 L120 44 Q120 58 119 70 Q119 70 120 71 Q120 72 121 71 Q123 70 128 68 Q132 67 134 66 L150 87 L85 86 Q74 86 68 84 L60 91 L153 93 L164 103 L183 87 Q186 82 180 81 Q164 80 140 65 Q142 65 143 65 Q145 65 144 62 Q145 55 145 44 L210 46 L224 62 L243 45 Q244 42 241 41 L145 38 Q145 12 144 2 Q140 -20 113 -31 Q110 -32 111 -29 Q109 -15 100 -11 Q98 -10 100 -8 Q122 -9 120 2 Q121 12 121 38 L51 36 ZM88 150 L88 119 L164 120 L164 150 L88 150 ZM64 173 Q46 173 38 170 L29 178 L116 179 L115 213 Q115 216 117 215 L144 207 Q146 206 144 204 Q141 198 141 192 L141 179 L195 180 L209 194 L227 178 Q228 177 226 175 L64 173 Z" /><glyph glyph-name="" unicode="&#x4eba;" d="M105 206 Q105 209 105 209 Q106 210 108 209 L138 193 Q141 191 138 189 L135 186 Q131 67 252 4 Q255 2 251 0 Q236 2 215 -13 Q167 22 149 64 Q132 99 129 183 L127 182 Q124 43 6 -27 Q4 -28 3 -27 Q3 -25 4 -24 Q64 22 83 68 Q104 114 105 206 Z" /><glyph glyph-name="" unicode="&#x4ecb;" d="M116 214 L143 200 Q145 198 145 198 Q145 197 143 195 L141 193 Q170 143 254 108 Q255 104 253 104 Q237 103 220 86 Q163 125 138 191 L137 190 Q90 123 9 70 Q5 71 7 74 Q78 126 116 214 ZM148 123 L176 111 Q177 111 177 109 L173 104 L173 46 L173 0 Q170 -12 156 -25 Q149 -30 148 -24 L149 26 L149 88 L148 123 ZM85 121 Q84 124 87 123 L112 113 Q115 112 113 109 L110 102 L110 70 Q118 2 10 -30 Q8 -30 7 -28 Q6 -27 8 -26 Q92 1 86 72 L86 88 Q86 96 85 109 Q85 118 85 121 Z" /><glyph glyph-name="" unicode="&#x4ed6;" d="M171 203 L168 198 L168 140 L193 153 L201 167 L223 157 Q224 156 223 155 Q223 154 223 154 L217 143 L216 78 Q217 39 188 22 Q184 21 184 24 Q183 38 175 41 Q173 44 176 44 Q196 41 193 67 L194 146 L167 132 L167 61 Q167 36 155 20 Q152 16 150 16 Q147 16 147 21 L148 122 L124 109 L120 14 Q120 0 132 1 Q183 -2 213 4 Q228 8 236 34 Q237 36 238 36 Q240 35 239 33 Q237 14 246 8 Q261 -7 237 -18 Q198 -29 135 -22 Q104 -19 105 25 L106 100 Q97 96 90 90 L79 94 L106 108 L106 132 Q106 142 105 157 Q105 165 105 168 Q105 171 107 170 L127 157 Q128 157 129 156 Q129 156 128 154 L125 146 L124 117 L148 129 L148 176 Q148 206 147 215 Q147 216 148 216 L170 206 Q173 205 171 203 ZM4 72 Q2 71 1 72 Q1 74 2 75 Q50 131 76 214 L99 202 Q101 201 99 198 L95 194 Q85 175 74 158 L77 0 Q74 -13 62 -28 Q59 -30 57 -30 Q56 -30 56 -27 L57 40 L58 134 Q31 99 4 72 Z" /><glyph glyph-name="" unicode="&#x4ee5;" d="M179 199 L214 185 Q218 184 214 180 L206 170 L206 98 Q205 61 187 37 Q219 28 227 13 Q229 -8 210 -13 Q202 -13 200 -4 Q192 18 182 31 Q159 3 61 -26 Q59 -26 59 -24 Q59 -23 61 -22 Q188 13 181 103 L181 161 Q181 167 180 180 Q180 195 179 199 ZM132 130 Q134 131 135 130 Q135 129 134 127 L77 41 Q66 25 37 -22 Q35 -25 32 -22 Q31 -19 28 -11 Q24 -2 23 0 Q23 5 25 7 Q35 17 45 27 L43 159 Q43 166 42 178 Q42 192 41 197 L69 186 Q71 185 69 182 L64 175 L60 42 Q62 46 68 52 Q71 55 72 57 L132 130 ZM114 200 Q146 187 145 172 Q143 161 131 155 Q121 152 121 161 Q120 185 111 198 Q110 199 111 200 Q112 201 114 200 Z" /><glyph glyph-name="" unicode="&#x4f60;" d="M5 72 Q3 71 2 72 Q2 74 3 75 Q74 134 103 210 L123 197 Q126 196 123 192 Q100 155 82 137 L81 1 Q79 -12 67 -26 Q61 -31 60 -26 L62 41 L63 119 Q39 97 5 72 ZM182 13 Q183 -11 153 -27 Q151 -28 150 -26 Q150 -11 141 -7 Q139 -7 141 -4 Q161 -5 158 1 L159 111 L157 138 Q157 143 159 141 L184 134 Q187 133 185 130 L183 123 L182 46 L182 13 ZM211 168 L221 179 L247 157 Q250 154 246 152 Q229 152 206 138 Q203 137 204 140 L211 163 L144 162 Q126 136 95 107 Q94 106 93 107 Q91 108 92 109 Q130 154 145 210 L168 199 Q170 198 168 196 L165 192 Q163 189 159 183 Q152 172 148 167 L211 168 ZM126 102 L148 93 Q150 92 150 91 Q151 91 149 89 Q125 43 92 6 Q90 5 89 5 Q88 6 89 8 Q115 48 126 102 ZM193 93 Q236 65 242 49 Q243 38 231 29 Q227 25 224 26 Q221 28 220 34 Q213 62 191 91 Q190 94 193 93 Z" /><glyph glyph-name="" unicode="&#x4fdd;" d="M127 93 Q105 92 97 89 L89 97 L154 98 L154 109 L153 131 Q153 134 155 133 L176 123 Q179 123 178 119 L176 110 L176 99 L214 100 L227 114 L244 99 Q245 96 243 96 L180 94 Q194 44 252 20 Q254 19 254 18 Q254 17 252 16 Q242 18 222 2 Q186 32 178 94 L176 94 L176 37 L177 2 Q176 -12 159 -26 Q156 -28 154 -27 Q152 -26 153 -23 L154 33 L154 65 Q125 26 81 -5 Q79 -6 78 -5 Q78 -3 79 -2 Q120 35 148 93 L127 93 ZM201 202 L220 190 Q222 189 220 187 L214 180 L213 141 L215 138 Q215 136 214 136 Q211 136 203 136 Q162 137 131 135 Q129 126 120 120 Q117 118 116 119 Q115 119 115 121 L115 155 L115 174 Q115 195 114 199 Q114 201 117 199 L135 191 L191 192 L201 202 ZM4 67 Q3 66 2 67 Q1 69 2 70 Q55 127 87 215 L109 202 Q111 201 109 198 L105 194 Q90 167 73 144 L76 0 Q74 -11 61 -26 Q59 -28 57 -28 Q56 -28 55 -25 L57 42 L57 123 Q33 92 4 67 ZM133 186 L132 141 L191 142 L192 187 L133 186 Z" /><glyph glyph-name="" unicode="&#x4fee;" d="M4 67 Q3 66 2 67 Q1 69 2 70 Q55 127 87 215 L109 202 Q111 201 109 198 L105 194 Q92 169 77 148 L75 4 Q73 -11 63 -23 Q57 -28 56 -23 L58 44 L60 126 Q34 94 4 67 ZM251 97 Q254 95 251 93 Q240 92 228 76 Q188 103 175 122 Q145 92 117 70 Q114 69 115 72 Q145 100 168 132 Q158 151 153 165 L155 167 Q164 151 174 140 Q188 160 198 179 L158 177 Q139 150 122 131 Q119 127 120 132 Q142 168 152 212 L171 204 Q176 203 172 197 Q166 190 162 182 L199 184 L208 193 L225 177 Q227 175 225 173 L216 167 Q196 143 184 131 Q205 114 251 97 ZM100 161 L113 154 Q116 153 114 148 L113 55 Q112 41 102 30 Q100 28 98 29 Q97 29 97 31 L98 159 Q98 162 100 161 ZM86 -33 Q84 -34 83 -33 Q83 -31 85 -30 Q164 0 212 49 L230 33 Q232 32 229 30 L225 28 Q170 -5 86 -33 ZM193 72 L207 60 Q209 59 207 57 Q177 35 114 9 Q112 9 113 11 Q159 37 191 71 Q192 72 193 72 ZM179 101 L196 89 Q198 87 196 87 Q160 61 116 41 Q114 41 115 43 Q153 68 179 101 Z" /><glyph glyph-name="" unicode="&#x5012;" d="M120 182 Q104 182 93 180 L87 186 L152 188 L163 199 L176 185 Q177 184 176 184 Q177 184 175 183 L125 182 L141 172 Q143 171 141 169 Q137 164 128 154 Q109 132 101 122 Q111 122 127 123 Q144 123 153 124 Q150 137 138 150 Q137 152 140 152 Q170 135 175 126 Q179 109 165 104 Q158 102 155 109 Q155 115 154 119 Q148 117 136 114 Q125 112 120 110 L142 103 Q145 103 142 99 Q138 93 138 84 L138 70 L153 71 L163 83 L176 69 Q179 67 175 67 L138 65 L138 19 L179 28 Q182 28 180 27 L97 -11 Q93 -14 90 -10 L80 4 Q79 6 80 7 Q81 7 84 8 Q91 8 109 12 L119 14 L119 65 L113 64 Q98 64 88 61 L81 68 L119 70 L119 82 Q118 94 118 109 Q105 106 90 100 Q89 100 87 102 L80 120 Q80 121 81 121 Q84 121 88 122 Q92 122 94 122 Q106 142 123 182 L120 182 ZM5 74 Q3 73 2 74 Q2 75 3 77 Q45 131 73 213 L92 203 Q94 203 91 200 L88 197 Q81 179 70 161 L68 2 Q67 -9 56 -25 Q50 -29 49 -24 L51 42 L53 134 Q34 105 5 74 ZM212 200 L237 189 Q239 189 237 186 L232 178 L232 23 Q234 -9 205 -24 Q203 -25 202 -24 Q201 -24 202 -21 Q202 -9 194 -3 Q192 0 195 0 Q212 -1 211 10 L211 150 Q211 189 210 198 Q210 201 212 200 ZM184 164 L197 157 Q200 156 198 151 L197 63 Q196 49 186 38 Q180 35 180 39 L181 162 Q181 164 182 164 Q182 165 184 164 Z" /><glyph glyph-name="" unicode="&#x5165;" d="M80 186 L71 193 L118 195 L124 204 L137 196 Q139 196 137 194 L130 188 Q126 62 244 0 Q246 0 246 -1 Q246 -2 244 -3 Q229 0 208 -18 Q142 29 131 108 Q112 35 12 -31 Q10 -32 9 -31 Q9 -29 10 -28 Q96 36 125 167 Q125 171 125 179 Q124 186 124 190 L99 189 Q92 189 80 186 Z" /><glyph glyph-name="" unicode="&#x5171;" d="M152 212 L178 200 Q179 199 179 197 L175 189 L174 150 L197 150 L211 165 L230 147 Q232 145 230 145 L174 144 L174 70 L216 70 L231 85 L250 68 Q252 67 249 65 L40 63 Q25 62 12 60 L5 68 L81 69 L80 142 L61 142 Q43 142 33 140 L26 147 L80 148 L80 172 Q80 181 79 195 Q79 203 79 206 Q79 207 81 207 L107 196 Q109 196 107 194 L103 187 L102 148 L150 149 L151 180 Q151 186 150 200 Q150 209 150 211 Q150 212 152 212 ZM102 143 L102 69 L150 69 L150 144 L102 143 ZM100 58 L116 36 Q120 33 114 30 Q77 -3 9 -33 Q7 -34 6 -32 Q6 -31 7 -29 Q69 3 97 57 Q97 59 98 59 Q98 60 100 58 ZM142 43 Q196 29 217 16 Q224 1 216 -12 Q209 -23 200 -11 Q174 24 141 40 Q139 41 142 43 Z" /><glyph glyph-name="" unicode="&#x5185;" d="M116 214 L143 206 Q146 206 144 202 L141 194 Q141 176 139 160 L193 161 L205 174 L227 159 Q229 158 227 156 L219 145 L218 60 L219 27 Q219 -8 180 -27 Q177 -29 176 -26 Q177 -8 166 -3 Q164 -2 165 0 Q165 0 167 0 Q195 -2 192 21 L194 155 L139 154 Q136 129 129 110 Q182 86 185 75 Q187 62 174 49 Q167 44 164 54 Q154 81 127 105 Q113 66 60 27 L60 1 Q59 -12 45 -27 Q42 -30 40 -30 Q38 -29 38 -26 L39 129 Q40 150 38 172 Q38 175 39 173 L62 159 L116 159 Q116 184 116 214 ZM61 153 L60 33 Q111 78 115 153 L61 153 Z" /><glyph glyph-name="" unicode="&#x5199;" d="M192 93 L202 105 L222 92 Q225 92 223 89 L216 80 Q210 23 196 0 Q185 -15 158 -26 Q156 -27 155 -27 Q154 -26 154 -24 Q157 -10 146 -3 Q145 -2 145 -1 Q145 0 147 0 Q157 -3 163 -1 Q184 0 192 88 L92 85 Q84 73 72 67 Q67 66 67 70 L81 140 Q86 167 86 175 L111 163 Q113 163 111 160 L108 157 L103 138 L186 140 L199 154 L217 138 Q219 135 217 135 L102 132 L93 90 L192 93 ZM203 193 L216 202 L240 179 Q244 173 237 172 Q218 170 200 159 Q198 158 197 161 L204 187 L64 184 Q56 152 38 140 Q36 139 34 139 Q33 140 33 142 Q27 151 30 160 Q47 175 48 197 Q48 200 49 201 Q51 202 53 200 Q57 197 63 190 L203 193 ZM51 41 Q37 41 24 39 L17 46 L141 49 L156 64 L174 47 Q176 46 173 44 L51 41 Z" /><glyph glyph-name="" unicode="&#x5206;" d="M52 106 L157 110 L169 124 L193 108 Q195 107 193 104 L185 95 Q184 37 182 11 Q175 -12 144 -26 Q142 -27 142 -27 Q141 -26 141 -25 Q143 -9 133 -3 Q131 -2 132 0 Q132 0 134 0 Q156 -1 155 12 Q157 19 158 49 Q159 86 158 104 L95 102 L116 94 Q118 93 118 93 Q118 93 116 91 L114 84 Q111 5 9 -34 Q7 -35 6 -34 Q5 -32 7 -31 Q91 9 91 79 Q91 89 91 102 L80 102 Q78 102 71 101 Q62 100 60 99 L52 106 ZM138 212 Q170 154 250 115 Q252 113 250 112 Q237 113 218 95 Q159 139 136 210 L138 212 ZM17 84 Q15 83 14 84 Q13 85 15 87 Q68 136 95 209 L122 198 Q122 197 121 195 L115 190 Q79 133 17 84 Z" /><glyph glyph-name="" unicode="&#x521b;" d="M121 130 L140 118 Q142 116 140 113 L135 108 L135 67 Q134 49 111 37 Q108 36 108 39 Q108 51 100 53 Q97 56 101 57 Q114 56 112 62 L112 109 Q113 114 108 114 L70 112 L70 111 L68 18 Q68 6 84 5 Q98 3 127 7 Q141 8 146 28 Q147 30 148 30 Q150 30 150 28 Q149 14 155 13 Q173 -1 147 -12 Q127 -20 92 -17 Q53 -14 51 20 L50 106 L49 126 Q30 104 4 82 Q2 81 1 82 Q1 84 2 85 Q57 143 82 216 L106 204 Q108 203 106 201 L101 196 Q138 175 154 154 Q156 142 145 131 Q139 124 134 135 Q122 166 99 192 Q79 159 52 129 L73 118 L110 119 L121 130 ZM207 209 L233 198 Q235 197 233 195 L228 186 L228 20 Q229 -11 199 -26 Q197 -27 196 -26 Q195 -25 196 -24 Q198 -10 186 -5 Q184 -2 187 -2 Q207 -3 205 8 L206 158 Q205 192 205 207 Q204 210 207 209 ZM168 170 L183 163 Q186 162 185 157 L183 63 Q183 49 171 38 Q165 35 165 39 L166 168 Q166 172 168 170 Z" /><glyph glyph-name="" unicode="&#x52a0;" d="M213 177 L235 164 Q237 164 235 162 L229 152 L230 50 L231 48 Q232 46 230 46 Q211 46 175 45 L175 16 Q174 0 161 -13 Q155 -16 155 -12 L156 44 L156 151 Q156 167 156 177 Q156 179 158 177 L176 165 L205 166 L213 177 ZM65 216 L87 206 Q90 204 88 201 L86 195 L86 162 L111 163 L121 176 L144 163 Q146 162 143 160 L136 150 L135 82 L136 29 Q138 0 106 -16 Q104 -17 103 -17 Q101 -16 102 -14 Q103 -1 94 3 Q92 4 93 5 Q93 6 95 6 Q113 6 111 18 L112 158 L86 157 L86 123 Q90 23 5 -27 Q0 -29 3 -25 Q42 7 53 35 Q66 64 66 123 L66 156 L54 156 Q46 156 31 153 L24 160 L66 162 L66 178 Q66 185 65 202 Q65 213 65 216 ZM176 161 L175 50 L206 51 L204 162 L176 161 Z" /><glyph glyph-name="" unicode="&#x52a9;" d="M137 48 L138 46 Q88 25 37 0 Q34 -3 33 0 L23 19 Q22 22 23 23 Q27 23 34 25 Q39 26 42 26 L43 148 Q43 180 41 196 Q41 198 44 197 L65 185 Q66 184 66 184 L100 186 L108 197 L127 187 Q129 186 129 186 Q129 185 127 184 L120 175 L120 44 Q123 45 130 46 Q135 48 137 48 ZM213 164 L234 152 Q237 152 235 150 L229 141 Q229 136 228 123 Q226 53 223 27 Q219 -7 188 -23 Q184 -23 185 -21 Q187 -6 176 -2 Q175 -1 175 0 Q175 0 176 0 Q200 -3 200 27 Q204 78 204 145 L177 144 L177 122 Q181 30 93 -35 Q91 -35 90 -34 Q90 -33 91 -32 Q129 2 142 36 Q156 66 157 123 L158 143 L155 143 Q143 143 133 141 L124 148 L158 150 L158 185 L157 211 Q156 214 158 214 L179 206 Q181 205 179 202 L178 196 L177 150 L204 151 L213 164 ZM88 98 Q91 97 88 94 L61 92 L61 30 Q67 32 80 35 Q93 38 99 39 L99 181 L65 179 L60 173 L60 138 L88 140 Q92 137 88 135 L60 133 L61 97 L88 98 Z" /><glyph glyph-name="" unicode="&#x53bb;" d="M82 153 Q68 153 55 151 L46 159 L112 160 L112 171 L111 215 L142 207 Q144 206 142 204 Q139 201 137 194 L137 160 L168 161 L183 175 L201 158 Q204 156 200 156 L137 154 L136 96 L208 97 L223 113 L243 95 Q245 93 243 92 L119 90 L138 76 Q140 75 139 74 Q139 73 137 72 Q125 61 74 8 L179 14 Q175 30 167 42 Q166 44 167 44 Q167 45 169 45 Q212 20 215 3 Q216 -17 196 -25 Q185 -26 184 -15 Q184 -3 181 7 Q99 -4 52 -19 Q48 -22 46 -18 L39 2 Q38 4 38 4 Q39 5 40 5 Q56 6 62 11 Q91 47 113 90 L48 89 Q34 88 21 86 L14 94 L112 95 L112 154 L82 153 Z" /><glyph glyph-name="" unicode="&#x53c2;" d="M159 190 Q195 170 200 157 Q199 148 189 140 Q185 137 183 138 Q181 139 180 143 Q179 146 178 151 Q178 155 175 163 Q164 161 145 158 Q133 156 127 155 L140 148 Q143 148 141 146 L137 142 Q133 135 127 129 L202 130 L216 146 L234 129 Q235 128 235 127 Q235 126 233 126 L150 124 Q166 92 245 77 Q248 76 245 73 Q228 71 214 51 Q165 73 146 124 L123 123 Q80 71 15 39 Q11 38 13 41 Q67 75 98 123 L60 122 Q40 120 33 119 L24 127 L102 129 Q109 140 115 152 Q85 146 69 140 Q66 137 64 141 L56 161 L77 161 Q100 189 115 216 L135 202 Q137 201 136 200 Q136 199 134 198 L129 195 Q110 180 83 162 L173 166 Q167 179 158 189 Q156 190 159 190 ZM31 -33 Q29 -33 28 -32 Q28 -31 30 -30 Q118 2 168 51 L188 35 Q190 34 187 32 L182 29 Q128 -3 31 -33 ZM148 74 L164 62 Q164 61 163 59 Q129 36 62 10 Q59 10 61 12 Q112 39 145 73 Q146 76 148 74 ZM133 104 L151 91 Q153 90 151 89 Q122 69 65 42 Q63 41 62 43 Q61 44 63 45 Q102 67 133 104 Z" /><glyph glyph-name="" unicode="&#x53cb;" d="M103 214 L134 201 Q136 201 136 200 Q136 200 134 198 L129 193 Q125 177 122 162 L202 163 L219 179 L239 161 Q240 158 238 158 L120 156 Q114 134 106 115 L180 117 L191 130 L214 115 Q216 113 213 112 L206 105 Q190 68 161 38 Q196 11 244 -1 Q246 -2 246 -3 Q247 -5 245 -5 Q224 -7 206 -29 Q164 -1 146 24 Q108 -8 52 -29 Q48 -31 50 -27 Q105 0 137 37 Q118 68 110 110 L104 110 Q81 56 18 -2 Q16 -4 15 -3 Q13 -2 14 0 Q78 68 95 155 L52 155 Q34 154 25 152 L16 160 L96 161 Q100 186 103 214 ZM180 112 L113 110 Q124 75 148 51 Q167 78 180 112 Z" /><glyph glyph-name="" unicode="&#x53f7;" d="M164 198 L173 212 L199 200 Q202 199 200 197 L194 187 L192 149 L194 145 Q196 142 192 143 Q188 143 179 143 Q155 144 135 143 L88 142 L87 139 Q76 121 67 126 L69 206 Q69 208 70 208 Q70 209 72 208 L91 196 L164 198 ZM49 107 Q27 106 19 103 L12 112 L211 117 L225 133 L245 116 Q248 113 244 112 L98 109 L115 100 L110 92 L102 67 L177 70 L187 83 L212 70 Q214 69 212 67 L205 58 Q197 18 183 -3 Q171 -19 143 -31 Q139 -32 140 -27 Q140 -11 127 -6 Q126 -6 126 -5 Q127 -3 128 -3 Q146 -6 151 -2 Q171 9 178 64 L100 62 L100 61 Q89 49 78 46 Q72 47 73 50 L86 92 L89 108 L49 107 ZM88 190 L88 148 L164 150 L165 192 L88 190 Z" /><glyph glyph-name="" unicode="&#x540d;" d="M131 202 Q133 201 130 198 L124 193 Q123 191 120 188 Q117 184 115 182 L181 185 L195 197 L219 179 Q221 177 219 176 L207 168 Q184 144 157 123 Q162 120 169 114 Q171 113 172 112 Q177 106 165 88 Q159 80 154 89 Q150 95 140 108 Q139 109 139 109 Q118 93 94 79 L104 74 L185 76 L197 91 L222 78 Q224 77 222 75 L216 65 L217 7 L219 1 Q220 0 219 -1 Q218 -2 216 -1 Q177 0 104 0 L104 -5 Q99 -21 84 -30 Q81 -30 81 -27 L81 20 L81 71 Q62 60 21 39 Q11 34 6 31 Q3 30 2 32 Q1 33 3 35 Q67 68 126 123 Q114 134 97 146 Q95 148 96 149 Q96 150 98 149 Q101 148 107 146 Q126 138 137 133 Q161 156 179 179 L110 176 Q77 141 33 109 Q31 108 30 109 Q29 110 30 112 Q76 156 103 216 L131 202 ZM103 69 L103 6 L186 6 L186 70 L103 69 Z" /><glyph glyph-name="" unicode="&#x5411;" d="M125 216 L140 197 Q141 196 138 194 Q121 185 72 166 Q69 166 71 168 Q108 193 125 216 ZM201 178 L226 165 Q228 164 226 162 L219 152 L220 62 L221 17 Q221 -13 187 -28 Q185 -29 185 -26 Q186 -9 173 -4 Q172 -3 172 -2 Q172 -1 173 -1 Q195 -2 194 2 L192 159 L62 157 L63 8 Q61 -9 46 -25 Q44 -28 42 -27 Q40 -26 40 -23 L41 51 L42 137 L41 173 Q41 175 44 174 L64 162 L191 165 L201 178 ZM104 113 L103 58 L147 59 L146 114 L104 113 ZM146 120 L155 133 L177 120 Q179 119 177 117 L171 108 L172 58 L174 54 Q175 51 172 51 Q150 53 103 51 Q101 37 89 25 Q85 22 84 26 L85 74 L85 109 L85 130 Q85 132 86 130 L104 119 L146 120 Z" /><glyph glyph-name="" unicode="&#x56fe;" d="M205 210 L227 199 Q230 198 227 195 L220 185 L223 72 L225 14 Q224 -7 202 -26 Q198 -28 197 -27 Q195 -26 195 -22 Q193 -7 190 2 L54 1 Q51 -14 39 -25 Q36 -28 34 -28 Q33 -28 32 -24 L34 165 Q34 192 33 209 Q32 210 34 210 L57 194 L194 195 L205 210 ZM55 188 L54 7 L197 8 L195 189 L55 188 ZM193 84 Q195 83 195 82 Q195 81 193 80 Q186 82 170 63 Q136 85 118 112 Q87 82 59 62 Q56 60 58 63 Q85 90 111 124 Q105 136 99 150 Q87 138 74 125 Q71 124 72 127 Q96 163 100 186 Q100 186 101 187 Q101 188 103 187 L117 173 Q119 172 117 170 Q116 169 114 167 L139 168 L147 177 L165 162 Q167 159 164 158 L155 152 Q152 149 146 142 Q142 137 127 121 Q147 103 193 84 ZM99 61 Q141 45 143 35 Q145 25 134 16 Q128 14 125 20 Q113 43 98 59 Q96 61 99 61 ZM136 164 L111 163 Q107 157 102 153 Q108 141 116 132 Q128 149 136 164 ZM104 93 Q134 84 136 77 Q136 65 128 62 Q122 59 121 65 Q112 83 103 91 Q102 92 104 93 Z" /><glyph glyph-name="" unicode="&#x5730;" d="M171 202 L168 197 L168 138 L194 152 L202 166 L223 156 Q225 155 223 153 L217 142 L217 77 Q218 38 189 21 Q185 20 185 23 Q184 37 176 40 Q174 43 177 43 Q196 40 194 66 L195 145 L168 131 L167 60 Q168 34 156 19 Q152 15 150 15 Q147 15 147 20 L148 121 L123 108 L120 13 Q118 0 131 0 Q176 -4 212 3 Q228 7 235 27 Q236 29 238 29 Q240 29 240 27 Q238 13 246 9 Q261 -9 236 -19 Q194 -29 134 -23 Q103 -20 104 24 L105 99 Q102 97 95 94 Q91 91 89 90 L79 93 L105 106 L106 131 Q106 138 105 149 Q105 163 104 166 Q104 170 106 168 L127 156 Q129 155 127 153 L124 145 L123 115 L148 128 L148 175 Q148 205 147 214 Q147 215 148 215 L170 205 Q173 204 171 202 ZM21 125 Q19 124 18 126 Q17 129 19 129 L46 131 L46 169 L45 202 L70 192 L67 184 L65 132 L74 133 L85 143 L97 132 Q99 130 97 129 L65 127 L63 51 L97 67 Q100 68 99 66 L36 11 Q33 7 29 10 L13 26 Q13 27 12 27 Q11 28 13 29 Q25 33 45 42 L46 126 L21 125 Z" /><glyph glyph-name="" unicode="&#x573a;" d="M175 192 L116 190 Q113 190 113 193 Q113 196 116 195 L176 197 L187 207 L207 194 Q210 193 207 190 L197 183 L149 124 L205 125 L217 138 L239 124 Q241 123 239 121 L231 111 L226 45 L225 19 Q221 -9 184 -25 Q181 -27 180 -24 Q183 -8 173 -3 Q171 0 174 0 Q201 -4 200 21 L208 119 L189 119 L200 114 Q203 113 201 110 Q170 35 79 -31 Q76 -32 76 -29 Q150 35 178 118 L156 118 L167 113 Q170 112 167 109 Q135 59 81 19 Q79 18 78 19 Q77 19 78 21 Q125 67 146 118 L144 118 Q134 110 118 105 Q114 104 113 109 L131 131 L175 192 ZM19 137 Q16 137 16 139 Q16 142 18 143 L54 144 L54 182 L53 215 L81 204 L77 196 L75 144 L85 145 L98 159 L115 144 Q117 141 114 141 L75 140 L73 59 L110 78 Q113 78 112 76 L40 17 Q36 13 32 16 L16 32 Q15 34 16 35 Q35 40 50 48 L53 50 L54 138 L19 137 Z" /><glyph glyph-name="" unicode="&#x586b;" d="M129 176 Q114 176 101 174 L93 181 L146 182 L146 190 L146 215 L172 207 Q174 206 172 205 Q170 204 168 199 L167 182 L208 183 L220 195 L237 181 Q238 179 236 178 L167 177 L165 154 L183 154 L190 164 L211 153 Q213 153 211 151 L206 144 L206 38 L220 38 L232 52 L251 36 Q253 35 250 33 L138 31 L148 14 Q150 12 147 9 Q112 -14 69 -30 Q67 -30 67 -29 Q66 -28 68 -27 Q113 -6 135 31 L114 31 Q99 30 86 28 L79 36 L113 37 L113 134 L112 162 L131 153 L146 153 L146 176 L129 176 ZM175 72 Q179 69 175 67 L131 65 L131 37 L182 38 L183 149 L131 147 L131 125 L174 126 Q177 124 174 122 L131 120 L131 98 L174 99 Q177 97 174 94 L131 92 L131 70 L175 72 ZM23 133 Q20 133 20 135 Q20 137 22 138 L50 139 L50 181 L50 210 L76 199 L71 190 L69 140 L81 141 L92 151 L104 139 Q106 136 103 136 L69 135 L67 59 L102 76 Q105 77 104 74 L38 17 Q35 14 31 17 L15 33 Q13 35 15 36 Q27 39 47 49 L49 50 L50 134 L23 133 ZM168 23 Q198 16 216 3 Q221 -2 211 -18 Q209 -22 206 -22 Q204 -21 202 -17 Q188 10 167 21 Q166 24 168 23 Z" /><glyph glyph-name="" unicode="&#x5927;" d="M62 112 Q44 112 34 110 L26 118 L113 120 Q116 157 114 211 L143 204 Q145 203 145 203 Q145 202 143 201 L137 194 Q137 152 134 120 L200 122 L216 138 L234 119 Q236 116 233 116 L144 114 Q155 28 242 -7 Q244 -8 244 -9 Q243 -11 241 -11 Q222 -12 209 -27 Q144 4 138 114 L134 114 Q136 2 5 -28 Q3 -29 3 -28 Q3 -26 4 -25 Q111 7 113 113 L62 112 Z" /><glyph glyph-name="" unicode="&#x5929;" d="M59 105 Q41 105 32 103 L23 111 L118 113 Q121 140 121 176 L80 175 Q62 175 53 172 L45 180 L183 184 L198 199 L217 182 Q218 180 218 180 Q217 179 216 179 L143 177 Q144 144 141 113 L204 115 L219 131 L238 113 Q239 112 239 111 Q239 110 237 110 L150 108 Q160 35 250 0 Q252 -2 252 -3 Q252 -4 249 -5 Q235 -5 217 -22 Q151 14 146 108 L140 108 Q139 13 7 -30 Q5 -31 4 -29 Q4 -27 6 -26 Q115 15 118 107 L59 105 Z" /><glyph glyph-name="" unicode="&#x597d;" d="M102 164 L124 153 Q126 152 124 150 L119 142 Q111 81 89 46 Q111 37 123 25 Q129 10 118 -3 Q111 -8 108 0 Q100 15 81 33 Q61 4 5 -33 Q3 -34 2 -32 Q2 -30 3 -29 Q51 6 69 43 Q55 54 40 59 L52 144 L50 144 Q37 144 26 142 L17 149 L53 150 L57 177 Q58 186 59 202 Q60 211 60 215 L87 204 Q89 203 87 201 L83 196 L73 151 L94 151 L102 164 ZM150 95 Q133 94 124 91 L115 99 L167 101 Q167 127 165 143 Q165 145 167 144 L178 140 L207 190 L161 188 Q145 187 137 184 L128 191 L207 196 L218 206 L238 189 Q240 188 240 186 Q239 185 237 184 Q227 179 183 138 L189 136 Q192 136 191 134 Q191 124 191 102 L219 103 L231 119 L250 102 Q252 100 250 99 L191 97 Q192 51 190 10 Q187 -11 158 -29 Q155 -29 155 -26 Q155 -11 146 -7 Q144 -6 144 -5 Q145 -3 147 -3 Q169 -6 166 8 Q167 28 167 95 L150 95 ZM53 61 Q62 58 73 53 Q90 89 94 146 L71 145 L53 61 Z" /><glyph glyph-name="" unicode="&#x5982;" d="M205 177 L229 163 Q231 163 229 161 L223 152 L224 39 L225 36 Q226 36 225 35 Q203 35 164 34 L164 14 Q163 -1 149 -14 Q144 -18 143 -13 L144 42 L145 150 Q145 155 144 168 Q144 174 144 176 Q144 177 146 177 L165 163 L196 164 L205 177 ZM110 164 L131 153 Q134 152 132 150 L125 142 Q119 82 97 47 Q121 34 129 26 Q134 11 123 0 Q117 -4 113 1 Q104 19 88 33 Q67 3 7 -32 Q4 -32 5 -29 Q59 7 77 42 Q60 56 43 62 L55 145 L51 145 Q47 145 39 144 Q31 143 26 142 L19 150 L55 150 L59 177 Q62 203 62 212 L88 203 Q90 203 88 200 L84 195 L74 151 L101 152 L110 164 ZM164 159 L164 39 L200 40 L198 159 L164 159 ZM56 64 Q59 63 67 60 Q77 56 82 54 Q98 92 102 146 L73 145 L56 64 Z" /><glyph glyph-name="" unicode="&#x59d3;" d="M86 163 L106 152 Q108 151 106 148 L100 141 Q93 80 77 47 Q95 35 101 29 Q106 17 96 3 Q91 -1 88 6 Q81 22 70 34 Q53 1 7 -34 Q5 -35 4 -33 Q3 -32 5 -31 Q44 4 59 44 Q45 54 30 61 L40 142 L39 142 Q31 142 19 140 Q20 140 17 140 L10 147 L40 148 L44 177 Q44 182 45 190 Q46 201 46 212 L68 203 Q70 202 69 200 L65 194 L56 149 L77 150 L86 163 ZM128 66 Q125 66 125 69 Q124 71 127 71 L162 72 L162 131 L133 130 Q131 87 94 53 Q93 52 91 52 Q90 53 91 54 Q110 76 115 100 Q121 124 118 173 L138 167 Q140 166 140 165 Q141 165 139 163 L135 158 Q135 146 133 136 L162 136 L162 168 L161 212 L187 205 Q190 204 187 201 Q187 201 186 200 Q185 198 183 191 L182 137 L209 137 L222 151 L240 135 Q242 133 239 133 L182 131 L182 73 L201 73 L214 86 L230 71 Q231 70 231 70 Q231 69 229 68 L182 67 L182 -1 L222 -1 L237 11 L253 -3 Q255 -5 253 -5 L120 -9 Q106 -10 93 -12 L86 -4 L162 -2 L162 67 L128 66 ZM40 63 Q44 62 51 59 Q59 56 62 54 Q75 94 78 144 L55 143 L40 63 Z" /><glyph glyph-name="" unicode="&#x5a01;" d="M53 177 Q53 180 55 179 L78 165 L153 167 Q152 190 152 212 L176 200 Q178 200 177 198 Q177 198 176 197 L172 193 Q171 180 172 167 L204 168 L218 184 L236 167 Q238 164 235 164 L172 162 Q174 114 184 78 Q191 94 201 123 Q203 129 204 132 L222 118 Q224 116 224 116 Q224 115 222 113 Q220 111 218 107 Q207 80 193 55 Q204 29 224 13 Q230 8 235 15 L243 23 Q244 24 246 24 Q247 23 246 21 Q238 6 244 -5 Q249 -19 244 -25 Q238 -29 226 -22 Q193 -1 178 34 Q152 0 104 -31 Q101 -31 102 -28 Q147 5 171 51 Q156 95 153 162 L76 159 L76 114 Q75 60 61 37 Q47 9 4 -24 Q2 -25 2 -23 Q1 -22 3 -21 Q35 7 45 38 Q56 64 55 127 L55 146 L53 177 ZM82 125 Q80 125 80 128 Q80 130 82 130 L129 131 L138 142 L152 131 Q153 127 151 127 L106 126 L119 119 Q121 119 120 116 L116 111 L108 94 L129 95 L137 104 L154 95 Q155 94 154 94 Q154 93 154 92 L148 86 Q138 64 121 40 Q123 39 126 38 Q135 33 138 31 Q144 25 137 9 Q132 5 129 9 Q122 21 112 30 Q90 5 44 -23 Q42 -24 41 -22 Q40 -21 42 -20 Q86 10 103 38 Q93 47 82 51 L92 87 Q91 87 88 87 Q85 86 83 86 L76 92 L94 93 L94 94 Q100 114 101 125 L82 125 ZM88 53 Q91 52 97 50 Q104 48 108 46 Q119 65 128 89 L105 88 L88 53 ZM187 201 Q207 197 208 192 Q207 184 201 178 Q197 175 195 180 Q190 192 185 200 Q185 202 187 201 Z" /><glyph glyph-name="" unicode="&#x5b57;" d="M118 110 L134 103 L159 137 L98 135 Q80 134 71 131 L62 140 L162 143 L173 153 L194 134 Q195 133 195 132 Q194 131 192 131 Q179 129 138 102 L145 99 Q147 98 145 96 Q142 93 141 88 L141 72 L200 73 L217 90 L236 71 Q238 68 235 68 L141 65 L141 43 L142 13 Q142 -13 108 -29 Q106 -30 105 -30 Q104 -29 104 -26 Q106 -12 92 -5 Q90 -2 93 -1 Q121 -4 118 6 L117 61 L117 65 L60 63 Q42 62 33 60 L24 69 L117 71 Q116 96 116 109 Q116 111 118 110 ZM31 119 Q21 119 20 137 Q43 152 48 183 Q49 185 50 186 Q51 186 52 184 Q52 182 53 178 Q53 175 53 174 L117 175 L116 211 Q116 214 118 213 L144 205 Q145 205 146 204 Q146 204 145 202 Q142 199 142 190 L142 176 L203 177 L216 188 L240 166 Q242 162 238 161 Q221 158 202 148 Q200 147 199 148 Q198 149 199 150 L206 172 L53 168 Q54 133 31 119 Z" /><glyph glyph-name="" unicode="&#x5b58;" d="M89 110 L88 91 L88 48 L89 5 Q86 -14 75 -27 Q70 -32 68 -26 L69 38 L69 81 Q69 87 69 93 Q38 62 4 37 Q3 36 2 37 Q1 39 2 40 Q32 65 68 112 Q68 115 67 119 Q67 123 67 125 L74 121 Q91 143 103 164 L54 163 Q37 162 27 159 L20 168 L106 170 Q123 196 130 216 L151 202 Q155 199 151 197 L146 192 Q144 189 139 181 Q134 174 131 170 L210 172 L227 188 L245 171 Q246 169 246 169 Q245 168 244 168 L127 165 Q104 131 88 114 Q89 113 89 110 ZM156 103 L171 97 L193 130 L151 127 Q134 125 125 122 L116 130 L196 134 L207 146 L227 127 Q228 126 228 125 Q228 124 226 124 Q211 121 175 95 L182 92 Q184 90 182 89 Q179 86 178 81 L178 70 L217 71 L230 87 L249 71 Q251 68 248 67 L178 65 L178 43 L179 13 Q178 -14 149 -28 Q147 -29 146 -28 Q145 -27 146 -25 Q147 -10 134 -5 Q132 -2 135 -1 Q160 -5 157 5 L156 57 L156 63 L131 63 Q113 62 104 59 L95 67 L156 69 Q155 85 155 101 Q154 104 156 103 Z" /><glyph glyph-name="" unicode="&#x5b9e;" d="M134 158 L164 147 Q167 147 165 143 L159 135 L155 92 Q153 78 150 66 L199 68 L217 86 L237 66 Q239 63 236 63 L148 60 Q132 -2 14 -32 Q12 -32 11 -31 Q11 -29 13 -28 Q106 0 125 59 L54 57 Q40 56 27 54 L19 62 L127 65 Q131 82 132 99 L134 120 Q135 132 134 151 Q134 156 134 158 ZM205 175 L216 184 L242 159 Q245 154 238 154 Q222 153 199 140 Q197 140 197 142 L206 170 L63 166 Q56 135 31 120 Q28 118 26 121 Q21 134 27 138 Q46 156 48 178 Q47 180 48 180 Q50 181 52 179 Q56 178 62 171 L116 173 L117 214 L147 206 Q148 206 149 205 Q149 205 148 203 L145 197 L144 173 L205 175 ZM160 37 Q209 23 222 8 Q226 -1 217 -16 Q210 -25 205 -15 Q186 17 159 35 Q157 37 160 37 ZM54 113 Q90 105 95 94 Q98 87 89 75 Q81 69 78 77 Q67 101 53 110 Q52 111 52 112 Q52 113 54 113 ZM74 152 Q109 144 112 136 Q113 126 104 116 Q96 111 94 119 Q87 141 73 149 Q71 150 72 151 Q72 152 74 152 Z" /><glyph glyph-name="" unicode="&#x5ba3;" d="M87 25 Q85 18 75 11 Q72 9 70 10 Q69 10 69 13 L69 94 Q69 98 68 107 Q68 112 68 114 Q67 117 70 116 L87 108 L158 110 L166 121 L188 110 Q189 109 189 107 L184 99 L185 40 Q184 31 174 15 Q168 9 165 14 Q164 15 163 18 Q158 26 157 28 L87 25 ZM159 105 L88 103 L88 70 L150 73 Q152 73 152 71 Q152 68 150 68 L88 65 L88 30 L159 33 L159 105 ZM202 177 L215 185 L240 159 Q243 153 234 152 Q216 154 199 144 Q196 143 196 146 L204 172 L60 167 Q51 135 27 122 Q24 119 22 123 Q17 136 23 140 Q42 158 44 179 Q44 182 45 182 Q46 182 49 181 Q50 180 52 179 Q56 175 59 172 L114 174 L113 214 Q113 217 115 216 L143 208 Q146 207 144 204 Q141 201 140 193 L139 175 L202 177 ZM55 -10 Q37 -11 27 -13 L20 -5 L209 -2 L223 10 L240 -4 Q241 -5 241 -6 Q241 -7 239 -7 L55 -10 ZM98 135 Q88 134 77 133 Q73 132 71 132 L62 138 L160 143 L172 154 L187 141 Q187 141 187 140 Q189 138 186 138 L98 135 Z" /><glyph glyph-name="" unicode="&#x5bb6;" d="M97 134 Q87 134 72 131 Q71 131 70 131 L63 137 L161 142 L174 155 L191 140 Q193 138 191 137 L123 135 L139 125 Q141 123 139 123 L134 121 Q132 120 128 117 Q122 113 120 112 Q135 98 144 80 Q178 104 195 123 L214 106 Q216 104 214 103 Q214 104 213 103 Q198 98 176 89 Q182 50 248 17 Q250 16 249 14 Q249 13 247 13 Q233 12 217 -3 Q173 36 173 88 Q169 86 159 83 Q150 79 145 77 Q158 49 152 7 Q145 -21 114 -31 Q113 -32 112 -31 Q112 -31 112 -28 Q113 -13 102 -7 Q101 -6 101 -5 Q101 -4 103 -4 Q126 -8 127 5 Q133 29 132 49 Q89 11 11 -20 Q9 -21 8 -20 Q8 -18 9 -17 Q72 14 130 75 Q129 80 127 84 Q84 49 22 24 Q19 24 21 26 Q80 60 119 105 Q119 106 118 107 Q117 109 116 109 Q78 87 29 65 Q27 64 26 66 Q25 67 27 68 Q80 98 115 134 L97 134 ZM37 121 Q33 117 31 120 Q23 132 25 142 Q47 155 49 184 Q52 187 53 184 L59 173 L115 175 L114 210 Q114 213 116 212 L144 204 Q146 202 144 200 Q141 194 141 189 L141 176 L196 177 L208 188 L234 167 Q237 164 233 162 Q218 161 194 149 Q192 148 191 148 Q190 149 191 151 L198 173 L59 167 Q59 140 37 121 Z" /><glyph glyph-name="" unicode="&#x5c0f;" d="M119 210 L148 199 Q150 197 148 196 Q145 193 144 188 L144 66 L145 19 Q144 -7 108 -27 Q106 -28 105 -27 Q104 -26 105 -24 Q106 -6 92 -1 Q91 0 91 0 Q91 1 93 1 Q120 0 118 9 L118 161 Q118 194 117 208 Q117 211 119 210 ZM167 137 Q225 96 240 73 Q242 57 226 43 Q220 38 216 40 Q212 41 211 49 Q198 101 164 134 Q163 138 167 137 ZM67 149 L96 138 Q100 136 97 133 L91 126 Q62 70 12 11 Q10 9 9 10 Q8 11 9 13 Q50 80 67 149 Z" /><glyph glyph-name="" unicode="&#x5c31;" d="M160 210 L186 199 Q190 198 186 194 L183 188 L182 132 L214 133 L226 146 L242 131 Q244 130 242 128 L195 126 L211 118 Q213 117 211 115 L208 109 L197 20 Q195 7 205 6 Q214 3 226 6 Q235 8 240 20 Q241 22 242 22 Q243 22 243 20 Q241 8 249 3 Q259 -9 240 -17 Q222 -22 206 -19 Q182 -14 183 21 L189 111 L189 126 L182 126 L182 122 Q185 22 84 -34 Q82 -34 81 -33 Q81 -31 83 -30 Q131 3 145 33 Q162 66 162 125 Q150 125 143 123 L136 130 L162 131 L162 172 Q162 191 160 210 ZM97 14 Q98 -8 71 -21 Q68 -21 68 -19 Q68 -7 60 -1 Q56 0 60 0 Q78 0 76 6 L76 86 Q67 86 57 86 Q55 78 46 70 Q43 68 42 69 Q41 69 41 71 L42 100 L42 122 Q42 127 41 139 Q41 146 41 148 Q41 150 43 148 L61 140 L109 141 L118 151 L138 138 Q140 138 138 136 L132 129 L132 91 L133 87 Q134 87 133 86 Q121 86 98 86 L97 14 ZM58 135 L58 91 L109 92 L109 136 L58 135 ZM76 212 L100 204 Q102 202 100 200 Q98 197 98 189 L97 174 L119 174 L132 189 L149 173 Q150 172 150 171 Q150 170 148 170 L53 167 Q37 167 25 164 L18 172 L74 173 L73 210 Q74 213 76 212 ZM66 57 Q68 56 66 54 Q40 14 4 -19 Q0 -22 2 -18 Q35 24 46 66 L66 57 ZM105 63 Q132 54 139 40 Q138 31 129 23 Q122 19 120 26 Q119 29 118 33 Q113 55 104 61 Q103 64 105 63 ZM202 189 Q229 180 229 170 Q228 163 219 159 Q212 155 210 162 Q208 179 201 187 Q199 188 202 189 Z" /><glyph glyph-name="" unicode="&#x5df2;" d="M76 188 Q59 188 49 185 L40 193 L170 195 L183 209 L208 194 Q211 193 208 190 L200 181 L200 116 L202 111 Q203 109 201 109 Q176 111 138 111 L74 110 L70 23 Q69 10 84 9 Q148 4 203 16 Q219 19 228 47 Q229 49 230 48 Q231 48 231 46 Q225 21 236 15 Q245 8 243 0 Q241 -7 228 -11 Q170 -24 86 -14 Q51 -8 50 34 L51 131 Q51 142 50 158 Q50 165 50 167 Q50 170 52 169 L78 155 L76 145 L74 116 L171 118 L172 189 L76 188 Z" /><glyph glyph-name="" unicode="&#x5e74;" d="M49 60 Q38 60 23 57 L14 66 L63 66 L64 130 Q64 133 67 132 L84 122 L127 123 L127 131 Q127 153 126 168 L78 167 Q48 131 21 104 Q18 103 19 106 Q54 153 77 216 L100 199 Q102 199 102 198 Q102 198 100 196 L96 192 Q94 190 91 185 Q86 177 82 173 L191 175 L207 189 L224 173 Q225 171 222 170 L138 168 L149 164 Q152 164 151 159 L151 139 L151 123 L183 124 L198 138 L214 122 Q216 120 214 120 L151 118 L151 68 L214 69 L228 85 L247 67 Q248 65 245 65 L151 62 L151 45 L152 4 Q151 -12 133 -28 Q127 -31 126 -25 L127 29 L127 62 L49 60 ZM85 116 L85 67 L127 68 L127 118 L85 116 Z" /><glyph glyph-name="" unicode="&#x5e97;" d="M183 74 L194 87 L217 73 Q219 73 217 71 L212 63 L212 11 L215 5 Q217 1 212 1 Q159 4 113 3 L113 -8 Q105 -26 94 -24 L94 79 Q94 84 97 82 L113 72 L136 72 L136 120 L134 165 L162 157 Q165 156 162 153 Q162 153 161 152 Q160 150 158 143 L158 121 L207 123 L220 136 L237 120 Q238 118 235 118 L158 116 L157 73 L183 74 ZM60 187 Q59 190 61 189 L86 178 L134 179 L136 213 L166 207 Q169 207 167 204 Q162 200 161 179 L203 180 L217 195 L235 179 Q237 176 234 176 L83 172 L83 117 Q89 37 3 -24 Q1 -25 1 -23 Q1 -22 3 -21 Q40 12 50 41 Q62 68 61 129 L61 156 L60 187 ZM113 67 L113 9 L185 10 L184 69 L113 67 Z" /><glyph glyph-name="" unicode="&#x5f0f;" d="M140 210 L165 199 Q167 199 164 196 L160 192 Q158 173 159 156 L207 157 L220 171 L238 155 Q239 153 236 152 L159 150 Q163 50 219 12 Q226 9 229 13 L239 24 Q242 26 243 22 Q235 7 244 -3 Q249 -15 242 -22 Q234 -27 221 -22 Q145 12 138 150 L56 148 Q46 148 31 145 Q30 145 29 145 L21 153 L138 155 Q138 183 140 210 ZM33 100 Q29 102 33 105 L105 107 L117 120 L133 106 Q135 105 135 105 Q135 104 133 103 L93 102 L92 25 L138 41 Q140 42 141 41 Q142 39 141 38 L79 1 Q60 -8 48 -18 Q48 -18 47 -18 Q45 -20 44 -18 L26 2 Q23 5 26 6 Q44 9 67 17 L71 18 L71 101 L33 100 ZM178 193 Q201 187 204 182 Q202 172 195 167 Q190 163 188 169 Q187 171 186 174 Q179 187 176 191 Q176 193 178 193 Z" /><glyph glyph-name="" unicode="&#x60a8;" d="M84 55 L102 46 Q104 45 101 43 L99 39 Q95 26 96 14 Q98 5 110 2 Q134 0 158 3 Q168 5 167 13 L167 33 Q167 35 168 35 Q169 35 170 33 Q177 14 196 8 Q205 5 205 -1 Q204 -7 195 -12 Q156 -28 103 -17 Q84 -10 81 8 Q80 25 81 53 Q81 56 84 55 ZM5 97 Q3 96 2 97 Q2 99 3 100 Q66 150 91 215 L112 202 Q114 201 111 197 Q96 175 80 158 L80 77 Q78 63 67 52 Q64 50 63 50 Q61 51 61 53 L62 113 L63 141 Q45 124 5 97 ZM206 185 L216 195 L241 174 Q242 173 242 171 Q241 170 239 170 Q224 169 200 154 Q197 153 198 156 L206 179 L143 178 Q129 161 95 134 Q94 133 92 134 Q91 135 92 136 Q125 173 140 215 L163 204 Q165 203 162 201 L159 197 Q157 195 154 190 Q150 186 148 183 L206 185 ZM181 94 Q181 70 152 53 Q150 52 150 54 Q150 68 141 72 Q139 72 141 75 Q159 73 157 82 L158 134 L156 162 Q156 165 158 164 L182 155 Q185 155 183 152 L180 145 L180 119 L181 94 ZM126 143 L144 133 Q146 132 146 131 Q147 131 145 129 Q127 102 91 71 Q87 70 89 73 Q115 104 126 143 ZM193 51 Q237 43 240 31 Q240 19 232 10 Q225 5 220 14 Q206 38 192 48 Q190 49 191 50 Q191 51 193 51 ZM191 134 Q229 112 234 102 Q236 93 223 83 Q219 80 217 81 Q214 82 213 88 Q207 112 189 132 Q188 135 191 134 ZM47 50 Q47 52 48 52 Q49 52 50 51 Q64 17 58 2 Q49 -7 38 -7 Q32 -7 31 -4 Q30 -1 34 3 Q47 22 47 50 ZM124 62 Q149 53 150 45 Q151 36 142 29 Q133 26 132 32 Q130 51 122 59 Q121 60 122 61 Q122 62 124 62 Z" /><glyph glyph-name="" unicode="&#x60f3;" d="M222 170 L223 105 Q224 84 211 67 Q205 63 204 67 Q199 77 194 83 L152 82 Q149 73 139 64 Q136 62 135 63 Q134 63 134 66 L134 112 L135 176 L134 196 L152 184 L198 186 L209 198 L231 180 L222 170 ZM55 166 Q49 166 41 165 Q31 164 28 164 L20 171 L70 172 L70 183 L70 211 Q69 213 70 214 Q70 214 72 214 L93 206 Q95 205 94 203 L91 195 L91 172 L105 173 L118 184 L132 171 Q133 170 133 169 Q133 168 131 168 L91 167 L91 114 L91 83 Q90 69 74 56 Q72 54 70 54 Q68 55 68 58 L69 105 L70 129 Q54 110 19 83 Q11 78 8 75 Q5 74 6 77 Q41 112 68 166 L55 166 ZM83 55 L100 47 Q102 46 100 43 L97 40 Q94 25 95 10 Q95 2 107 0 Q134 -4 166 0 Q174 2 174 9 L174 30 Q174 32 175 32 Q177 33 177 31 Q183 7 202 0 Q209 -2 209 -8 Q209 -13 201 -17 Q183 -25 153 -26 Q119 -26 100 -20 Q82 -13 80 6 Q78 26 81 54 Q81 57 83 55 ZM152 179 L152 154 L193 154 Q195 154 195 152 Q195 151 193 150 L152 149 L152 123 L194 124 Q196 124 196 122 Q196 120 194 120 L152 119 L152 87 L199 88 L199 175 Q198 180 194 180 L152 179 ZM196 46 Q239 38 243 25 Q243 14 234 4 Q226 0 222 8 Q210 31 195 44 Q192 46 196 46 ZM45 47 Q46 49 47 48 Q48 48 49 46 Q59 12 50 0 Q41 -9 28 -8 Q22 -7 21 -3 Q21 0 26 3 Q43 19 45 47 ZM127 61 Q155 49 155 40 Q154 28 144 24 Q136 20 134 28 Q134 47 125 58 Q124 60 125 61 Q126 62 127 61 ZM94 147 Q122 137 127 129 Q130 123 121 112 Q118 109 116 109 Q113 110 112 115 Q103 137 93 146 Q92 148 94 147 Z" /><glyph glyph-name="" unicode="&#x610f;" d="M195 60 Q144 62 86 62 Q82 53 73 47 Q69 45 67 48 L67 99 L66 122 Q66 124 68 123 L87 115 L169 116 L179 127 L201 113 Q203 113 201 111 L196 103 L196 70 L198 63 Q199 60 198 60 Q198 59 195 60 ZM77 174 Q62 174 50 171 L41 179 L115 180 L116 211 L146 204 Q149 202 147 199 Q142 196 140 180 L185 181 L197 193 L213 179 Q214 178 214 177 Q214 176 212 176 L162 175 L179 164 Q181 163 179 160 L165 138 L209 139 L224 155 L244 137 Q246 135 244 134 L48 131 Q43 131 35 130 Q25 130 21 129 L14 136 L86 137 Q86 161 84 165 Q84 167 87 167 L104 160 Q107 159 106 157 L105 137 L142 138 Q156 161 157 175 L77 174 ZM81 46 L99 39 Q101 38 99 35 L96 32 Q91 19 92 8 Q93 0 105 0 Q124 -4 154 0 Q163 1 163 7 L163 27 Q163 29 164 29 Q165 29 166 28 Q170 8 191 4 Q199 2 199 -4 Q198 -11 190 -15 Q174 -22 148 -23 Q118 -23 98 -18 Q81 -10 78 6 Q76 23 79 45 Q79 48 81 46 ZM162 93 Q164 93 164 91 Q164 89 162 88 L86 87 L86 67 L169 68 L170 111 L86 110 L86 92 L162 93 ZM187 40 Q225 33 228 23 Q229 13 221 6 Q214 2 210 9 Q199 28 186 38 Q184 40 187 40 ZM49 40 Q49 41 50 42 Q51 41 52 40 Q63 13 58 1 Q53 -7 40 -8 Q35 -8 33 -4 Q31 -1 35 1 Q49 13 49 40 ZM119 51 Q142 43 144 34 Q143 26 134 21 Q126 19 126 25 Q125 39 117 49 Q117 52 119 51 Z" /><glyph glyph-name="" unicode="&#x613f;" d="M124 111 Q119 104 112 99 Q107 96 106 100 L107 129 L107 147 Q107 164 106 168 Q106 171 109 170 L123 162 L139 162 Q143 171 147 184 Q149 189 150 191 L88 190 L88 120 Q87 79 76 55 Q103 72 122 101 Q124 103 125 101 L137 87 Q138 84 135 83 Q114 68 73 50 Q56 15 5 -21 Q3 -22 2 -21 Q2 -20 3 -18 Q41 13 54 45 Q66 74 65 133 L65 175 L63 205 Q63 208 65 207 L90 195 L208 197 L221 212 L241 196 Q242 194 239 193 L155 191 L170 184 Q172 183 170 181 Q167 179 159 173 Q151 168 145 163 L192 164 L200 176 L222 165 Q223 165 223 163 L219 156 L218 120 L220 115 Q221 113 221 113 Q220 112 219 112 Q216 112 208 112 Q194 113 187 113 L175 112 L174 85 Q174 62 146 52 Q143 51 144 54 Q145 66 138 69 Q136 70 138 71 Q153 71 153 75 L153 111 L124 111 ZM113 45 L130 37 Q132 37 130 34 L127 31 Q123 17 124 7 Q124 1 136 0 Q154 -4 178 0 Q187 0 187 7 L187 27 Q187 28 188 29 Q189 28 190 27 Q194 8 214 4 Q222 2 222 -4 Q221 -10 213 -14 Q177 -28 130 -17 Q112 -11 109 6 Q109 25 111 44 Q111 46 113 45 ZM194 159 L124 157 L124 139 L186 141 Q188 141 189 138 Q189 136 186 136 L124 135 L124 116 L194 119 L194 159 ZM183 100 Q237 85 239 74 Q240 65 233 59 Q228 55 225 60 Q208 86 182 98 L183 100 ZM204 42 Q240 34 245 24 Q246 14 238 8 Q232 3 228 10 Q219 28 203 40 Q201 42 204 42 ZM83 40 Q83 43 86 41 Q96 14 91 1 Q86 -7 74 -8 Q68 -8 67 -5 Q66 -2 70 1 Q83 15 83 40 ZM145 49 Q170 38 172 27 Q171 20 162 15 Q155 13 155 19 Q152 35 143 47 Q141 50 145 49 Z" /><glyph glyph-name="" unicode="&#x6211;" d="M139 211 Q139 214 141 213 L166 202 Q169 202 166 200 L162 194 Q162 193 162 190 Q160 160 161 133 L197 134 L212 149 L230 132 Q231 131 231 130 Q231 129 229 129 L162 126 Q164 87 173 60 Q189 84 199 105 Q199 108 201 106 L220 91 Q223 89 219 86 Q197 63 179 45 Q191 17 215 4 Q221 1 225 5 L236 18 Q237 19 239 19 Q240 18 239 16 Q232 3 232 -13 Q234 -22 230 -26 Q225 -29 216 -24 Q179 -2 163 31 Q134 7 113 -4 Q110 -5 111 -2 Q139 18 158 41 Q145 76 142 125 L99 123 L99 84 L121 91 Q125 92 122 89 L98 75 L98 12 Q97 -15 71 -28 Q69 -29 69 -28 Q68 -28 68 -26 Q69 -15 59 -7 Q58 -6 59 -5 Q59 -4 61 -4 Q80 -6 78 5 L79 63 L69 58 Q47 45 36 36 Q35 35 33 36 L22 62 Q23 62 25 63 Q36 65 52 70 L79 78 L79 122 L56 121 Q45 121 31 118 Q29 118 28 118 L20 127 L79 130 Q79 154 79 172 Q78 174 79 175 Q79 175 81 175 L103 165 Q105 165 104 162 L100 155 L99 130 L141 132 Q141 137 141 149 Q140 161 140 168 Q140 175 140 189 Q139 203 139 211 ZM106 212 L122 196 Q123 193 120 192 Q89 185 36 172 Q33 172 35 174 Q78 191 103 212 Q105 214 106 212 ZM182 194 Q212 183 213 172 Q211 161 201 156 Q192 153 191 161 Q191 181 179 192 Q179 195 182 194 Z" /><glyph glyph-name="" unicode="&#x624b;" d="M179 207 L197 185 Q199 182 194 181 Q190 181 170 179 Q146 177 130 175 L140 171 Q142 171 142 168 L141 131 L186 133 L201 148 L219 131 Q221 128 219 128 L141 125 L141 81 L210 82 L226 100 L248 80 Q250 78 247 78 L141 75 L141 55 L141 21 Q143 -10 103 -25 Q101 -26 101 -25 Q100 -24 101 -22 Q101 -5 92 0 Q89 3 93 4 Q119 1 117 14 L116 74 L48 72 Q34 71 21 69 L13 78 L116 80 L116 125 L70 124 Q65 123 57 122 Q47 121 43 120 L35 129 L116 131 L115 173 Q103 171 77 169 Q56 166 45 165 Q42 165 42 166 Q42 167 44 169 Q146 192 179 207 Z" /><glyph glyph-name="" unicode="&#x626b;" d="M65 213 L89 205 Q91 205 91 204 Q91 204 89 202 L86 194 L85 153 L96 154 L108 166 L123 153 Q124 151 122 150 L85 148 L84 100 Q102 108 119 115 Q121 114 120 112 Q116 109 108 104 Q101 99 84 87 L84 54 L85 15 Q86 -11 56 -29 Q53 -30 52 -29 Q51 -29 52 -26 Q52 -10 44 -7 Q42 -6 43 -5 Q43 -4 45 -4 Q66 -5 63 5 L63 72 Q36 53 30 46 Q28 44 28 45 Q28 44 27 46 L19 74 Q18 76 19 76 Q19 76 20 77 Q37 81 63 91 L63 147 L24 145 Q22 145 21 147 Q21 149 23 150 L63 152 L64 162 Q64 175 63 196 Q63 207 63 211 Q63 214 65 213 ZM125 91 Q122 91 122 94 Q122 97 124 97 L203 98 L204 167 L123 165 Q120 166 120 168 Q120 171 122 171 L204 173 L214 188 L236 175 Q239 174 237 172 L229 161 L228 49 L229 8 Q227 -5 212 -21 Q208 -24 206 -21 Q202 -7 196 0 L113 -1 Q110 -1 110 1 Q110 3 113 3 L202 4 L203 92 L125 91 Z" /><glyph glyph-name="" unicode="&#x6295;" d="M117 97 Q112 99 116 103 L180 105 L192 115 L212 100 Q214 97 212 96 L202 88 Q189 66 163 37 Q197 7 243 -4 Q245 -5 245 -6 Q245 -7 243 -8 Q226 -7 207 -28 Q171 -6 149 24 Q114 -5 74 -28 Q72 -29 71 -28 Q70 -27 71 -25 Q111 0 141 37 Q127 64 122 97 L117 97 ZM62 213 L86 204 Q88 204 86 200 L82 193 L82 156 L87 156 L99 168 L114 155 Q116 152 113 152 L81 150 L81 104 Q86 106 94 110 Q103 113 107 115 Q110 115 108 113 Q105 111 99 107 Q93 103 81 94 L80 66 L81 20 Q82 -6 52 -23 Q50 -24 49 -24 Q48 -23 48 -21 Q48 -8 40 -2 Q39 -1 39 0 Q39 0 41 0 Q63 -2 60 10 L60 79 Q49 71 34 58 Q31 56 30 55 Q27 52 26 55 L18 81 Q17 83 19 83 Q21 84 27 86 Q47 92 60 97 L61 148 L52 148 Q35 147 26 144 L18 152 L61 155 L61 162 Q61 175 60 196 Q60 207 60 211 Q60 214 62 213 ZM177 204 L195 195 Q198 194 196 192 L191 186 L182 148 Q179 140 189 140 Q206 140 217 145 Q222 148 223 146 Q229 144 234 137 Q241 131 231 126 Q218 119 186 121 Q167 123 166 140 L170 189 L144 188 Q147 139 110 104 Q107 103 108 106 Q127 135 126 174 L126 185 L126 203 L143 192 L169 193 L177 204 ZM179 99 L124 97 Q132 71 150 50 Q168 74 179 99 Z" /><glyph glyph-name="" unicode="&#x62a5;" d="M150 94 Q157 66 175 45 Q189 76 195 105 L157 102 L141 101 L136 104 L136 61 L136 20 Q136 -1 122 -20 Q117 -22 115 -15 L116 41 L117 165 Q118 192 115 208 L135 199 Q137 199 137 194 L183 197 L191 208 L213 197 Q215 195 213 194 L207 184 L207 169 L207 156 Q206 135 182 121 Q180 121 180 123 Q180 134 171 138 Q168 141 172 142 Q184 141 184 149 L184 191 L137 189 L136 174 L136 107 L195 110 L205 121 L226 108 Q228 107 226 105 L219 98 Q206 60 186 34 Q205 16 246 -1 Q248 -3 246 -4 Q229 -4 217 -20 Q186 3 175 19 Q159 0 123 -32 Q121 -33 120 -32 Q119 -31 120 -29 Q150 -2 167 30 Q155 51 147 94 L150 94 ZM62 211 L86 202 Q88 201 86 199 L82 191 L82 154 L87 155 L99 167 L114 154 Q116 151 113 150 L81 148 L81 100 Q95 106 108 111 Q112 112 109 109 Q100 103 84 92 Q82 90 81 89 L80 64 L81 21 Q81 -6 52 -23 Q48 -25 48 -20 Q48 -7 40 -1 Q38 1 41 0 Q63 -1 60 11 L60 74 Q40 59 31 51 Q28 48 27 51 L19 77 Q19 79 20 79 Q23 80 31 82 Q49 88 60 92 L61 146 L54 146 Q44 145 32 144 Q29 143 27 143 L20 151 L61 153 L61 160 Q61 173 60 194 Q60 205 60 209 Q60 212 62 211 Z" /><glyph glyph-name="" unicode="&#x6309;" d="M213 91 Q215 91 213 89 L210 86 Q198 57 182 36 Q216 20 226 12 Q230 4 224 -13 Q220 -23 212 -15 Q191 8 171 24 Q138 -9 61 -31 Q59 -32 58 -30 Q57 -29 58 -27 Q124 -8 157 33 Q137 46 120 52 Q131 79 138 102 Q119 102 109 99 L102 107 L140 108 Q150 138 154 159 L182 147 Q184 146 183 143 L177 138 L161 109 L211 110 L226 125 L243 109 Q246 106 242 105 L157 103 L131 55 Q151 48 164 43 Q182 71 189 101 L213 91 ZM56 213 L79 204 Q82 204 79 200 L76 193 L76 154 L79 154 L90 167 L106 154 Q107 151 104 151 L76 148 L75 109 Q82 112 96 118 Q102 121 106 123 Q108 123 108 122 Q108 121 106 120 Q99 114 85 104 Q78 98 75 96 L74 66 L76 27 Q76 -2 46 -21 Q44 -22 43 -21 Q41 -20 42 -18 Q43 -3 34 0 Q32 1 33 2 Q34 4 36 4 Q55 2 53 13 L54 80 Q33 65 25 56 Q23 54 22 55 Q22 55 21 57 L12 84 Q12 86 14 86 Q29 90 54 100 L54 147 L47 146 Q30 146 20 143 L13 150 L54 153 L54 162 Q54 191 52 212 Q53 216 56 213 ZM209 179 L220 189 L243 169 Q246 165 240 163 Q226 161 207 148 Q204 147 204 150 L210 174 L137 169 Q132 146 112 132 Q109 130 108 133 Q105 145 109 153 Q125 166 125 181 Q125 183 125 184 Q126 184 128 183 Q132 181 138 175 L162 176 L163 213 L187 206 Q190 206 188 201 L186 195 L184 178 L209 179 Z" /><glyph glyph-name="" unicode="&#x63d0;" d="M127 97 Q106 96 99 94 L92 102 L219 105 L232 119 L249 103 Q251 100 248 100 L173 98 L172 9 Q191 5 248 7 Q250 7 250 6 Q250 5 249 4 Q230 1 223 -20 Q191 -20 165 -15 Q142 -7 123 32 Q110 3 72 -29 Q69 -31 70 -27 Q111 15 119 76 Q119 78 121 77 L136 70 Q139 69 137 66 Q131 50 125 37 L126 37 Q138 17 153 13 L154 98 L127 97 ZM138 127 Q136 120 128 115 Q125 113 124 113 Q122 114 122 116 L123 189 Q123 193 122 200 Q122 205 122 207 Q122 210 124 209 L140 202 L140 199 L183 200 L188 209 L209 199 Q211 199 209 197 L205 189 L205 141 Q205 129 195 118 Q190 114 188 118 Q188 119 187 120 Q184 126 180 129 L138 127 ZM56 212 L78 204 Q80 203 78 201 L74 193 L74 153 L83 154 L93 166 L109 153 Q110 150 107 150 L73 147 L73 102 Q86 108 101 114 Q103 114 103 113 Q103 112 102 111 Q85 101 73 90 L72 68 L72 20 Q73 -6 46 -24 Q43 -25 42 -24 Q41 -24 42 -21 Q43 -6 34 -2 Q33 -1 33 0 Q33 0 35 0 Q57 -2 54 10 L54 77 Q50 74 44 69 Q36 62 28 55 Q25 53 24 56 L16 81 Q16 83 17 83 Q21 84 31 88 Q46 92 54 95 L55 146 L50 146 Q37 145 24 143 L16 150 L55 152 L55 161 Q55 174 54 195 Q54 206 54 210 Q54 213 56 212 ZM183 196 L139 194 L139 167 L177 168 Q179 169 179 167 Q179 164 177 165 L139 163 L139 132 L183 134 L183 196 ZM221 72 L229 56 Q229 54 226 54 L220 54 Q211 53 192 54 Q185 54 182 54 Q179 54 182 56 Q207 63 221 72 Z" /><glyph glyph-name="" unicode="&#x6539;" d="M62 -34 Q60 -35 59 -34 Q59 -33 60 -31 Q120 10 148 50 Q137 77 130 119 Q115 95 101 75 Q100 74 99 74 Q98 74 98 76 Q136 152 146 213 Q146 213 147 214 Q147 215 149 214 L176 199 Q179 197 176 195 Q170 192 165 184 Q152 159 145 145 L209 147 L222 162 L241 146 Q243 145 240 143 L194 141 L210 129 Q213 127 209 120 Q192 81 169 51 Q200 12 248 -6 Q250 -7 250 -8 Q250 -10 248 -10 Q232 -8 208 -25 Q173 2 155 35 Q124 0 62 -34 ZM58 183 Q42 183 33 180 L25 187 L81 189 L89 200 L109 190 Q111 188 109 187 L104 179 L101 115 L102 113 Q103 111 101 111 L81 111 L52 110 L47 27 Q48 27 49 28 Q50 28 50 28 L109 64 Q110 65 111 64 Q113 63 112 62 L45 -4 Q41 -9 37 -5 L18 7 Q17 10 18 10 Q24 13 30 17 L31 94 L31 130 L52 116 L78 116 L81 183 L58 183 ZM141 138 Q140 136 136 131 Q134 127 133 125 Q142 93 159 66 Q180 103 188 141 L141 138 Z" /><glyph glyph-name="" unicode="&#x6570;" d="M115 -26 Q111 -25 114 -22 Q150 6 167 37 Q156 62 151 112 Q149 110 147 105 Q143 99 134 87 Q133 86 132 86 Q131 86 131 88 Q163 154 176 213 Q176 215 178 214 L201 197 Q204 194 201 193 Q195 188 191 182 Q181 161 167 138 L214 141 L228 156 L246 139 Q248 138 245 136 L199 134 L216 123 Q219 121 215 114 Q204 68 187 41 Q210 10 251 -5 Q253 -6 253 -7 Q253 -9 251 -9 Q235 -8 215 -25 Q186 0 174 23 Q156 0 115 -26 ZM79 77 L73 69 L102 69 L112 80 L130 67 Q133 64 131 63 L123 58 Q111 38 98 23 Q116 18 122 14 Q126 8 123 -5 Q122 -10 119 -11 Q116 -12 113 -8 Q100 4 86 11 Q59 -10 9 -28 Q7 -30 6 -29 Q5 -28 6 -25 Q50 -7 73 18 Q55 27 35 31 Q43 48 49 63 Q33 63 22 61 L14 68 L51 68 Q56 83 60 98 L84 85 Q86 84 86 84 Q86 83 84 82 L79 77 ZM119 203 L135 191 Q137 190 134 188 L94 159 L120 160 L132 173 L148 159 Q150 156 147 156 L92 155 L92 139 L92 112 Q88 100 75 92 Q71 91 70 94 L72 135 Q45 112 10 93 Q7 93 8 96 Q38 116 63 154 L52 154 Q41 154 29 152 Q26 151 25 151 L17 158 L72 159 L72 185 L71 211 Q70 216 72 214 L93 207 Q96 206 94 204 L92 196 L92 161 Q105 178 117 200 Q118 202 119 203 ZM164 132 Q163 130 160 126 Q156 120 154 116 Q161 81 176 57 Q188 88 193 134 L164 132 ZM46 34 Q52 33 63 31 Q75 29 80 28 Q88 38 101 64 L69 63 L46 34 ZM98 146 Q124 141 135 133 Q138 128 132 114 Q126 108 122 115 Q112 134 97 144 Q95 146 98 146 ZM33 197 Q32 200 35 199 Q36 199 39 197 Q57 190 61 185 Q63 179 55 170 Q48 166 46 170 Q42 187 33 197 Z" /><glyph glyph-name="" unicode="&#x65b9;" d="M58 158 Q49 158 36 156 Q33 155 31 155 L22 165 L114 167 L115 213 L145 203 Q148 202 145 198 L142 190 L141 167 L207 168 L222 185 L240 166 Q241 165 241 164 Q241 163 239 163 L119 160 L118 119 L178 121 L190 134 L213 118 Q215 117 212 115 L205 105 L203 47 Q203 23 201 16 Q194 -9 163 -23 Q159 -24 159 -21 Q158 -4 151 0 Q149 0 150 2 Q150 3 152 3 Q175 1 174 20 Q178 58 178 115 L118 113 L118 110 Q125 25 9 -32 Q7 -32 6 -31 Q6 -29 8 -28 Q97 19 94 108 L95 159 L58 158 Z" /><glyph glyph-name="" unicode="&#x65c5;" d="M53 158 Q50 158 44 157 Q30 157 26 155 L19 161 L70 163 L72 207 L97 201 Q100 199 97 196 L95 188 L92 164 L112 164 L123 178 L137 164 Q138 162 138 162 Q137 161 136 161 L76 159 L91 153 Q93 151 91 149 L89 143 L86 118 L103 118 L113 128 L130 116 Q132 115 130 114 L124 107 L119 47 Q117 0 84 -14 Q81 -15 82 -12 Q81 1 76 5 Q75 6 75 7 Q75 8 76 8 Q98 4 99 36 L104 112 L85 112 L85 108 Q74 24 3 -32 Q0 -31 1 -29 Q55 19 66 109 L68 134 Q70 150 68 158 L53 158 ZM210 147 L225 132 Q226 130 223 129 Q201 124 162 119 L159 14 L181 28 Q184 29 183 26 L139 -23 Q138 -25 136 -24 L121 -12 Q120 -10 121 -10 L143 3 L143 136 L162 123 Q192 134 210 147 ZM183 106 Q185 36 251 -4 Q253 -7 250 -7 Q235 -7 221 -22 Q182 14 180 105 L183 106 ZM154 214 L177 205 Q179 204 177 202 L174 197 Q168 185 158 170 L210 172 L223 185 L238 171 Q240 169 238 169 L155 165 Q149 154 128 126 Q130 128 125 122 Q122 122 123 125 Q146 163 154 214 ZM227 101 L242 84 Q244 83 241 81 L235 80 Q221 73 194 64 L193 65 Q215 84 227 101 Z" /><glyph glyph-name="" unicode="&#x65e5;" d="M187 198 L210 186 Q212 185 212 184 Q213 184 211 182 L204 173 L207 28 Q207 8 185 -15 Q181 -18 179 -16 Q177 -15 176 -10 Q174 0 169 14 Q167 17 167 18 L77 16 L77 10 Q75 -4 60 -18 Q57 -21 56 -21 Q54 -20 53 -17 L54 48 L55 153 Q55 162 54 180 Q54 193 54 198 Q54 200 55 200 L79 186 L79 182 L176 183 L187 198 ZM77 176 L77 110 L164 111 Q167 110 168 108 Q168 106 165 105 L77 103 L77 23 L174 25 Q177 26 177 32 L177 177 L77 176 Z" /><glyph glyph-name="" unicode="&#x65f6;" d="M114 177 Q116 176 114 174 L108 166 L108 74 L109 30 Q106 10 93 -2 Q89 -6 87 -5 Q84 -4 84 0 Q82 16 78 25 L50 25 L50 21 Q50 5 36 -10 Q34 -12 32 -12 Q30 -11 30 -8 L31 40 L32 148 Q32 157 31 175 Q31 185 31 188 Q31 189 32 190 Q32 190 34 189 L52 176 L84 177 L93 189 L114 177 ZM148 138 Q134 138 121 136 L111 143 L180 145 L181 161 Q181 174 180 195 Q180 206 180 210 Q180 212 180 212 Q181 213 183 212 L208 202 Q210 202 208 199 L205 191 L205 146 L216 146 L229 161 L246 146 Q248 143 245 142 L205 141 L204 62 L205 19 Q207 -10 170 -27 Q166 -28 166 -25 Q167 -10 157 -5 Q155 -1 159 -1 Q183 -3 180 5 L180 140 L148 138 ZM50 165 L50 108 L75 109 Q80 107 75 103 L50 103 L50 30 L83 31 L84 172 L52 171 L50 165 ZM126 114 Q160 96 161 86 Q161 75 150 69 Q140 65 140 73 Q135 99 124 112 Q124 112 124 113 Q123 114 126 114 Z" /><glyph glyph-name="" unicode="&#x6708;" d="M186 209 L209 197 Q211 196 209 195 L202 186 L204 28 Q207 -14 168 -27 Q170 -8 159 -3 Q157 -1 160 0 Q183 -2 179 18 L178 190 L108 188 L108 141 L167 143 Q172 141 167 137 L108 136 L108 110 Q108 93 107 86 L169 88 Q171 88 171 85 Q171 83 168 82 L106 80 Q104 17 14 -33 Q12 -33 12 -31 Q11 -30 13 -29 Q57 0 71 28 Q87 57 87 110 L87 179 L86 207 Q86 210 88 209 L108 194 L177 196 L186 209 Z" /><glyph glyph-name="" unicode="&#x6709;" d="M59 161 Q43 161 31 158 L24 167 L113 167 Q123 191 130 216 L156 199 Q160 196 156 194 L147 189 Q142 179 136 168 L215 168 L231 184 L250 167 Q251 165 248 164 L134 162 Q122 141 109 122 L184 124 L193 134 L214 119 Q216 118 213 116 L207 109 L209 16 Q212 -15 184 -30 Q181 -32 180 -29 Q179 -16 172 -13 Q171 -13 171 -12 Q172 -10 173 -10 Q187 -12 185 0 L183 119 L105 116 Q104 115 104 115 L104 80 L170 82 Q173 81 174 80 Q174 78 171 77 L104 74 L103 39 L172 42 Q176 41 176 39 Q176 38 173 37 L103 34 L103 6 Q103 -8 91 -24 Q88 -28 86 -29 Q84 -28 84 -24 L87 93 Q52 52 5 22 Q3 21 3 23 Q2 24 4 25 Q71 73 110 162 L59 161 Z" /><glyph glyph-name="" unicode="&#x672a;" d="M77 162 Q59 161 50 158 L41 167 L113 168 L113 171 L112 215 L141 207 Q144 207 142 204 Q139 201 137 194 L137 168 L176 168 L191 183 L208 166 Q210 163 207 163 L137 162 L137 114 L206 115 L223 132 L242 113 Q243 111 243 111 Q242 110 241 110 L150 108 Q162 56 249 16 Q251 15 251 13 Q251 12 248 12 Q235 13 216 -4 Q152 39 145 108 L137 108 L137 27 L138 -1 Q133 -20 116 -31 Q113 -32 111 -27 L113 22 L113 82 Q67 25 6 -13 Q1 -15 4 -11 Q60 34 99 107 L50 106 Q40 106 26 104 Q24 103 23 103 L14 113 L113 114 L113 162 L77 162 Z" /><glyph glyph-name="" unicode="&#x673a;" d="M210 184 Q212 184 210 182 L203 171 L189 20 Q188 10 196 10 Q205 9 223 13 Q232 14 239 33 Q240 35 241 34 Q242 34 242 32 Q237 10 246 6 Q253 1 252 -5 Q250 -11 240 -13 Q221 -18 198 -15 Q173 -10 173 22 L177 178 L151 177 L151 146 Q153 56 138 30 Q125 0 63 -33 Q61 -34 60 -32 Q60 -30 61 -29 Q108 -2 119 28 Q132 55 131 140 L131 170 L129 196 Q129 198 131 197 L150 182 L176 183 L186 197 L210 184 ZM66 215 L89 204 Q91 203 89 201 L85 194 L85 155 L94 155 L106 167 L120 153 Q121 151 119 151 L85 150 L84 120 Q111 113 114 105 Q115 98 105 89 Q99 86 98 92 Q93 107 84 116 L84 60 L86 17 Q86 3 71 -11 Q65 -15 64 -8 L66 62 L65 98 Q46 68 6 26 Q4 24 4 28 Q40 77 64 150 L58 150 Q48 150 35 148 Q31 147 29 147 L22 155 L65 155 L65 179 Q65 203 65 214 Q65 215 66 215 Z" /><glyph glyph-name="" unicode="&#x675f;" d="M48 165 Q33 164 22 162 L14 170 L115 173 L114 215 L142 207 Q145 207 143 204 Q140 201 138 194 L138 173 L203 175 L219 192 L241 173 Q243 172 240 170 L138 167 L138 139 L179 140 L188 153 L212 140 Q214 140 212 137 L206 129 L206 94 L209 87 Q211 83 206 83 Q192 85 151 85 Q161 43 251 10 Q252 8 250 7 Q232 7 216 -11 Q157 22 148 85 L138 85 L139 27 L139 -1 Q135 -19 119 -31 Q115 -32 114 -27 L115 22 L115 59 Q76 16 6 -23 Q4 -24 4 -23 Q4 -21 5 -20 Q58 16 106 84 Q88 84 74 84 Q64 61 54 69 L54 145 Q54 147 55 147 Q55 148 57 147 L73 137 L115 138 L115 167 L48 165 ZM75 132 L74 90 L115 90 L115 133 L75 132 ZM179 134 L138 133 L138 91 L179 92 L179 134 Z" /><glyph glyph-name="" unicode="&#x6765;" d="M71 164 Q68 164 62 163 Q48 163 44 161 L36 169 L114 170 L114 171 L113 215 L141 207 Q144 207 142 204 Q139 201 137 194 L137 170 L184 171 L200 186 L218 168 Q220 167 217 165 L137 164 L137 104 L151 104 Q166 132 173 157 Q173 160 175 158 L198 149 Q200 148 200 148 Q200 147 198 146 L193 141 Q173 119 157 104 L204 104 L218 119 L237 102 Q238 101 238 100 Q238 99 236 99 L148 98 Q159 54 241 19 Q244 18 241 15 Q230 17 207 -2 Q153 36 146 98 L137 98 L138 34 L138 -1 Q134 -19 117 -32 Q113 -31 113 -27 L115 33 L114 69 Q73 24 9 -13 Q7 -14 6 -13 Q6 -12 7 -10 Q60 30 106 98 L53 97 Q36 97 27 95 L18 103 L114 104 L114 164 L71 164 ZM65 154 Q96 137 94 128 Q92 117 82 112 Q73 111 72 118 Q71 139 63 152 Q61 155 65 154 Z" /><glyph glyph-name="" unicode="&#x6784;" d="M68 214 L92 203 Q94 201 92 201 L87 193 L87 155 L97 155 L110 167 L124 153 Q126 152 123 150 L87 150 L86 120 Q119 108 119 100 Q119 91 110 84 Q102 79 101 88 Q92 108 86 115 L85 40 L86 -3 Q84 -17 70 -29 Q68 -32 66 -32 Q64 -32 64 -29 L66 42 L66 90 Q44 59 7 21 Q6 19 5 20 Q3 21 4 23 Q41 74 66 143 L66 150 L59 150 Q49 150 35 148 Q31 147 29 147 L22 154 L66 155 L67 179 Q67 188 66 202 Q66 210 66 213 Q66 215 68 214 ZM154 212 L174 203 Q176 202 174 200 L170 194 Q161 178 151 161 L207 162 L218 175 L241 160 Q243 159 241 157 L232 147 L230 66 L231 33 Q229 -7 191 -28 Q189 -29 188 -29 Q187 -29 187 -27 Q189 -11 177 -5 Q175 -4 176 -2 Q176 -1 178 -1 Q211 -3 208 33 L210 156 L146 155 Q133 136 114 112 Q112 111 112 113 Q139 159 154 212 ZM170 82 Q170 84 172 84 Q198 59 199 50 Q199 40 187 34 Q181 32 180 39 Q180 43 179 49 Q179 54 179 56 Q136 39 122 29 Q119 28 119 29 L109 48 Q120 48 124 54 Q140 80 154 133 L173 120 Q175 119 175 119 Q175 118 173 117 L169 113 Q153 83 131 51 L178 59 Q175 72 170 82 Z" /><glyph glyph-name="" unicode="&#x679c;" d="M83 114 Q79 105 70 100 Q64 95 63 101 L65 143 L65 189 Q65 193 64 201 Q64 207 64 209 Q64 211 66 210 L84 198 L170 200 L179 212 L201 201 Q202 201 202 199 L196 189 L196 157 L197 130 Q198 118 184 105 Q179 99 176 104 Q173 110 169 115 Q168 116 168 117 L140 116 L140 86 L210 88 L225 105 L244 86 Q245 84 243 83 L147 81 Q175 35 248 19 Q251 18 248 15 Q225 14 210 -5 Q165 17 144 81 L140 81 L139 1 Q139 -20 113 -30 Q111 -31 110 -29 Q110 -15 103 -10 Q101 -10 101 -9 Q101 -7 103 -7 Q119 -9 117 0 L117 55 Q67 11 5 -15 Q3 -15 3 -14 Q3 -13 4 -11 Q58 17 111 80 L57 79 Q38 78 26 76 L19 84 L117 86 L116 115 L83 114 ZM171 196 L120 194 L140 185 L140 161 L163 161 Q165 162 165 159 Q165 156 163 157 L140 156 L140 154 L140 121 L170 122 L171 196 ZM116 149 L116 155 L84 154 L83 120 L116 121 L116 149 ZM84 193 L84 159 L116 160 L115 194 L84 193 Z" /><glyph glyph-name="" unicode="&#x6a2a;" d="M129 131 Q126 131 122 130 Q108 130 103 128 L97 135 L140 136 L139 169 Q121 169 112 166 L106 174 L138 174 L137 203 Q137 206 139 205 L156 198 Q157 197 157 195 L156 175 L177 175 L176 210 Q176 211 178 211 L196 203 Q197 203 197 200 L196 189 L195 176 L210 176 L221 188 L236 175 Q238 174 235 172 L195 171 L193 137 L220 138 L232 151 L249 137 Q251 135 249 134 L165 132 L182 124 L179 114 L179 104 L204 105 L213 114 L231 103 Q233 102 231 100 L226 93 L226 54 Q226 36 212 25 Q206 20 205 26 Q203 36 200 39 L136 38 Q131 26 125 22 Q123 20 121 20 Q120 20 120 22 L119 110 Q119 112 121 111 L136 103 L159 104 L159 132 L129 131 ZM60 215 L83 204 Q85 203 83 201 L79 194 L79 151 L88 151 L99 161 L113 148 Q114 146 112 146 L79 145 L78 116 Q102 108 106 99 Q108 91 99 84 Q92 80 91 87 Q86 104 78 111 L78 48 L79 4 Q78 -10 64 -23 Q59 -27 58 -21 L59 49 L59 89 Q36 53 5 22 Q3 19 3 24 Q38 74 59 144 L59 145 L51 145 Q35 145 23 142 L16 150 L59 150 L59 179 Q59 202 59 214 Q59 215 60 215 ZM198 77 Q201 77 201 75 Q201 72 198 72 L178 71 L178 44 L204 44 L205 100 L179 99 L178 76 L198 77 ZM151 30 L164 15 Q166 13 162 10 Q127 -11 81 -26 Q79 -26 79 -25 Q78 -24 80 -23 Q123 -5 148 30 Q150 32 151 30 ZM181 17 Q220 11 234 2 Q238 -3 235 -16 Q234 -21 231 -21 Q228 -22 223 -17 Q205 5 180 15 Q180 17 181 17 ZM156 170 L155 136 L177 137 L177 170 L156 170 ZM135 70 L136 43 L160 43 L160 71 L135 70 ZM135 98 L135 76 L160 76 L159 99 L135 98 Z" /><glyph glyph-name="" unicode="&#x6b22;" d="M114 53 Q111 42 102 33 Q97 29 94 36 Q86 56 74 74 Q50 33 5 -8 Q3 -9 3 -8 Q2 -7 3 -5 Q44 40 64 91 Q47 117 33 134 Q31 137 35 136 Q51 124 69 107 Q78 132 85 167 L31 164 Q28 164 27 167 Q27 169 30 170 L84 174 L96 188 L119 173 Q121 171 119 169 L110 159 Q100 122 85 93 Q100 78 112 65 Q116 59 114 53 ZM62 -34 Q60 -35 59 -34 Q58 -33 59 -32 Q111 0 128 33 Q145 62 147 133 L176 121 Q178 120 176 118 L173 116 Q175 43 254 -13 Q255 -14 254 -15 Q254 -16 252 -16 Q240 -12 219 -27 Q174 14 171 115 L169 114 Q168 13 62 -34 ZM200 162 L210 173 L236 155 Q238 153 238 151 Q237 150 233 149 Q216 143 196 128 Q193 127 193 130 L200 156 L146 154 Q134 135 107 102 Q104 100 105 103 Q134 148 147 212 Q147 215 148 214 L170 204 Q174 202 171 199 Q162 180 150 159 L200 162 Z" /><glyph glyph-name="" unicode="&#x70b9;" d="M198 48 Q170 51 98 51 Q89 51 85 51 L85 48 Q84 31 70 21 Q64 17 63 23 L63 125 Q63 128 66 127 L84 117 L115 118 L115 174 L113 216 L143 209 Q146 209 144 206 Q141 203 139 196 L139 169 L191 170 L206 185 L222 168 Q224 166 222 166 L139 164 L139 118 L168 118 L180 132 L203 118 Q206 117 204 115 L198 107 L199 59 L201 52 Q202 49 201 49 Q201 48 198 48 ZM85 111 L85 57 L170 58 L170 113 L85 111 ZM182 30 Q212 17 222 6 Q232 -1 223 -13 Q221 -16 217 -21 Q215 -22 215 -22 Q203 -30 199 -17 Q192 17 180 28 Q179 30 182 30 ZM50 22 Q60 6 52 -13 Q45 -30 33 -27 Q25 -19 33 -7 Q47 2 48 21 Q48 23 50 22 ZM137 23 Q137 25 140 24 Q161 8 163 -1 Q163 -11 153 -17 Q144 -21 143 -12 Q141 7 137 23 ZM92 21 Q92 23 93 23 Q94 23 95 22 Q112 3 112 -5 Q109 -14 101 -19 Q96 -21 94 -19 Q91 -18 92 -13 Q94 10 92 21 Z" /><glyph glyph-name="" unicode="&#x7247;" d="M71 205 Q70 208 72 207 L97 196 L93 189 L93 131 L145 131 L145 172 L144 214 L172 205 Q173 205 174 204 Q173 203 172 202 Q169 200 168 194 L167 131 L200 132 L215 147 L234 130 Q235 128 233 127 L93 125 L93 111 Q93 96 92 82 L165 83 L175 98 L200 84 Q202 83 200 80 L194 72 L194 40 L195 0 Q194 -16 177 -30 Q171 -31 169 -27 L169 68 Q169 77 162 78 L91 77 Q83 17 4 -35 Q2 -35 2 -34 Q2 -32 4 -31 Q45 0 59 34 Q73 66 72 125 L72 174 L71 205 Z" /><glyph glyph-name="" unicode="&#x7545;" d="M60 212 L83 204 Q84 204 84 201 L81 195 L80 162 L93 162 L105 173 L126 157 Q128 156 126 154 L120 146 L120 109 L121 83 Q120 68 109 52 Q105 47 102 53 Q98 63 93 69 L78 68 L78 34 L78 -3 Q77 -17 65 -29 Q62 -32 60 -32 Q58 -31 58 -28 L60 42 L60 67 L42 67 Q38 56 30 50 Q24 47 24 52 L25 89 L25 143 L24 169 L44 160 L61 161 L61 177 Q61 205 60 212 ZM185 191 L136 188 Q133 188 134 191 Q134 194 137 193 L184 196 L196 206 L215 193 Q217 190 214 189 L205 182 L163 124 L211 125 L222 136 L241 123 Q243 122 241 120 L235 112 L230 48 L229 17 Q223 -10 193 -23 Q191 -24 190 -24 Q189 -24 189 -22 Q193 -7 183 -1 Q181 0 182 0 Q182 1 184 1 Q208 -1 206 23 L213 119 L195 119 L207 113 Q210 112 207 109 Q179 32 98 -31 Q96 -32 96 -29 Q164 35 187 119 L162 118 L175 112 Q178 111 175 107 Q153 61 106 17 Q104 16 103 17 Q102 17 103 19 Q136 62 154 117 Q145 111 135 109 Q130 108 131 112 L146 133 L185 191 ZM98 73 L98 113 L79 112 L78 73 L98 73 ZM89 157 L80 156 L79 117 L99 118 L99 147 Q99 157 89 157 ZM42 111 L41 71 L60 72 L60 112 L42 111 ZM43 155 L42 116 L60 116 L61 156 L43 155 Z" /><glyph glyph-name="" unicode="&#x7684;" d="M81 213 L98 195 Q98 193 97 193 L89 190 Q67 176 47 166 L49 164 L49 161 L84 162 L94 173 L116 159 Q118 158 118 158 Q118 158 116 156 L109 147 L109 112 Q137 149 154 213 L176 200 Q177 200 178 199 Q177 198 176 197 L172 193 Q165 177 156 165 L201 167 L212 181 L235 166 Q237 165 235 163 L227 152 L225 65 L226 33 Q223 -10 182 -28 Q178 -29 179 -25 Q182 -8 172 -2 Q170 -1 171 0 Q171 0 173 0 Q202 0 200 22 L202 162 L153 159 Q135 132 109 106 L108 64 L110 25 Q108 7 98 -6 Q95 -10 92 -10 Q90 -10 89 -6 Q84 13 81 18 L46 18 L46 4 Q45 -13 32 -26 Q27 -29 27 -25 L29 45 L30 143 L29 173 Q30 176 33 175 L44 168 Q67 191 81 213 ZM48 155 L47 99 L77 100 Q79 101 79 98 Q79 95 77 95 L47 94 L46 24 L84 24 L86 156 L48 155 ZM141 114 Q140 117 142 116 Q182 98 182 89 Q184 77 170 68 Q157 64 156 73 Q155 97 141 114 Z" /><glyph glyph-name="" unicode="&#x771f;" d="M66 178 Q47 178 38 175 L30 184 L114 184 L115 215 L143 208 Q146 207 144 204 L138 198 L137 185 L196 185 L209 198 L227 184 Q230 181 226 180 L137 179 L135 155 L165 156 L173 167 L195 157 Q197 156 195 154 L190 146 L189 36 L218 36 L233 51 L252 34 Q254 31 251 31 L99 29 L100 29 L111 12 Q113 9 109 7 Q65 -19 16 -32 Q14 -33 14 -31 Q13 -30 15 -29 Q66 -9 97 29 L42 29 Q27 28 14 26 L7 34 L70 35 L69 161 Q69 163 71 162 L90 154 L112 155 L113 179 L66 178 ZM157 67 Q159 67 159 64 Q159 62 156 62 L89 60 L90 35 L165 36 L166 151 L89 149 L89 124 L156 126 Q158 126 158 124 Q158 121 156 121 L89 119 L89 96 L156 97 Q158 97 158 95 Q158 93 156 92 L89 90 L89 65 L157 67 ZM137 20 Q187 13 207 3 Q215 -3 208 -21 Q202 -30 196 -22 Q171 4 136 18 Q134 19 137 20 Z" /><glyph glyph-name="" unicode="&#x77e5;" d="M214 184 L233 169 Q235 169 233 167 L228 160 L229 58 L230 56 Q231 54 229 54 Q218 56 174 53 L174 21 Q174 5 160 -7 Q158 -9 156 -9 Q154 -9 154 -6 L155 49 L155 159 Q155 175 155 185 Q155 187 157 185 L174 173 L204 174 L214 184 ZM47 97 Q39 96 26 94 Q21 93 19 93 L12 100 L86 103 L86 139 L86 161 L64 161 Q55 145 31 111 Q29 111 29 113 Q53 159 64 213 L87 204 Q89 202 87 200 L84 196 Q78 184 67 165 L123 167 L133 178 L148 165 Q148 163 147 163 L94 162 L108 156 Q109 155 109 153 L105 149 L104 104 L124 104 L135 116 L149 102 Q151 102 148 100 L104 99 L104 97 Q103 70 97 52 Q135 38 142 28 Q143 18 132 9 Q126 5 123 12 Q114 30 96 48 Q85 5 6 -31 Q3 -32 2 -30 Q2 -28 5 -27 Q85 6 86 98 L47 97 ZM174 169 L174 57 L205 59 L204 170 L174 169 Z" /><glyph glyph-name="" unicode="&#x7801;" d="M185 194 L123 192 Q120 194 123 197 L185 199 L195 211 L215 198 Q217 197 215 195 L208 186 L198 98 L209 98 L219 111 L240 98 Q242 98 240 95 L234 87 Q229 22 217 -2 Q209 -18 185 -28 Q179 -30 180 -25 Q182 -10 171 -4 Q170 -3 170 -2 Q171 0 172 -1 Q192 -6 193 -1 Q206 21 209 93 L141 91 Q138 84 126 76 Q122 74 121 79 L125 109 L127 137 Q130 166 129 173 L152 163 Q154 162 152 160 L150 156 L142 97 L175 98 L185 194 ZM57 181 Q39 181 29 179 L22 185 L91 188 L102 199 L116 185 Q116 183 115 183 L65 182 L80 174 Q83 174 81 170 L78 166 Q77 164 74 159 Q68 149 54 129 L61 125 L80 125 L88 136 L107 126 Q109 125 107 124 L103 117 L103 48 L104 43 Q105 40 102 40 Q100 40 96 40 Q79 42 60 42 L60 29 Q59 12 48 0 Q47 0 46 0 Q44 -1 43 0 L44 40 L45 117 Q27 94 4 70 Q2 68 2 72 Q41 121 57 181 ZM61 120 L60 47 L81 48 L82 121 L61 120 ZM145 42 Q129 42 115 40 L108 47 L170 48 L182 61 L199 46 Q199 44 198 44 L145 42 Z" /><glyph glyph-name="" unicode="&#x79d2;" d="M99 216 L115 199 Q116 198 115 197 Q115 196 113 196 Q93 193 76 190 L89 184 Q91 184 89 182 L86 174 L86 145 L98 145 L109 157 L123 143 Q125 141 123 140 L86 140 L85 119 Q109 109 112 101 Q114 94 104 86 Q98 82 96 89 Q92 102 85 111 L84 53 L85 7 Q83 -6 70 -17 Q64 -22 64 -17 L65 55 L66 91 Q46 64 10 30 Q9 29 7 29 Q6 30 7 32 Q43 79 67 138 L67 139 L58 139 Q44 139 31 137 L24 144 L67 145 L67 158 Q67 181 66 188 Q49 185 31 182 Q29 183 31 185 Q87 205 99 216 ZM207 110 L230 93 Q231 93 232 92 Q231 91 230 90 L225 85 Q201 8 62 -33 Q60 -34 60 -31 Q59 -30 61 -29 Q195 19 207 110 ZM191 201 L188 186 L188 120 L189 83 Q187 66 173 55 Q168 53 168 58 L168 115 L169 175 Q169 181 168 192 Q168 205 167 209 Q166 212 169 211 L191 201 ZM144 167 L161 154 Q161 153 161 153 Q163 150 161 147 Q135 105 103 69 Q100 67 101 71 Q130 109 141 165 Q143 169 144 167 ZM193 164 Q226 151 246 133 Q252 122 241 108 Q233 102 229 110 Q214 143 191 162 Q190 163 193 164 Z" /><glyph glyph-name="" unicode="&#x7a7f;" d="M98 171 L111 153 Q114 151 110 148 Q93 137 69 124 L163 128 L174 140 L192 125 Q194 123 191 123 L159 122 L173 116 Q175 115 174 113 Q174 112 174 112 Q171 110 170 105 L170 74 L201 75 L216 90 L234 74 Q235 71 232 70 L170 68 L170 41 L171 13 Q171 -12 139 -27 Q137 -28 136 -28 Q135 -27 135 -25 Q136 -11 124 -4 Q122 -1 125 0 Q150 -3 147 6 L147 48 Q104 6 16 -32 Q14 -33 13 -32 Q13 -31 14 -29 Q80 5 136 67 L67 65 Q58 56 49 54 Q45 53 43 56 L52 110 Q52 112 54 112 L74 104 Q76 103 74 100 L68 70 L147 73 L148 98 Q148 100 148 106 Q147 115 147 121 L93 119 Q75 119 67 116 L61 120 Q50 115 28 105 Q21 102 18 101 Q16 100 16 102 Q15 103 17 104 Q70 131 95 170 Q97 173 98 171 ZM142 166 Q176 159 199 152 Q198 152 199 154 L205 178 L63 174 Q56 143 33 130 Q29 128 27 131 Q24 147 28 150 Q47 165 48 186 Q48 190 53 187 Q57 186 63 179 L118 180 L118 214 L147 207 Q150 206 148 203 L145 197 L144 181 L204 183 L216 191 L241 166 Q243 164 242 162 Q241 161 238 161 Q217 160 201 152 Q200 152 199 152 Q207 149 212 145 Q219 138 213 123 Q209 116 201 123 Q179 147 142 163 Q141 165 142 166 Z" /><glyph glyph-name="" unicode="&#x7b80;" d="M103 28 Q100 19 92 13 Q88 10 87 15 L87 81 Q87 93 87 101 Q86 104 89 102 L103 93 L149 95 L157 106 L177 95 Q178 95 178 93 L172 84 L173 41 Q172 31 161 17 Q156 13 153 17 Q152 20 149 24 Q147 28 146 30 L103 28 ZM154 122 Q135 122 123 119 L116 126 L194 130 L204 141 L225 128 Q225 127 226 127 Q227 126 225 125 L217 115 L218 58 L219 18 Q221 -10 189 -31 Q187 -32 186 -31 Q185 -30 186 -28 Q185 -14 176 -7 Q175 -6 175 -5 Q175 -4 176 -4 Q197 -5 195 6 L194 124 L154 122 ZM64 99 L62 0 Q61 -14 47 -29 Q43 -32 42 -29 L44 44 L44 84 L43 120 L66 111 Q67 111 68 110 Q68 110 67 108 L64 99 ZM150 90 L102 89 L102 64 L143 66 Q145 66 145 64 Q145 62 142 62 L102 60 L103 32 L150 34 L150 90 ZM61 211 L87 194 Q89 192 86 190 Q81 188 75 182 L71 177 L105 179 L118 193 L136 178 Q137 176 137 176 Q136 175 135 175 L91 173 Q104 165 104 156 Q103 148 95 146 Q87 145 87 150 Q86 167 82 172 L65 171 Q41 149 14 126 Q12 124 12 128 Q46 171 61 211 ZM154 213 L179 198 Q181 197 178 195 Q172 193 168 187 Q167 186 166 184 Q164 181 162 179 L205 181 L218 195 L236 180 Q238 178 236 178 L181 175 Q201 164 201 155 Q199 146 189 141 Q181 140 181 146 Q180 167 174 175 L158 174 Q155 171 149 164 Q137 149 128 140 Q126 139 125 139 Q124 139 125 141 Q145 183 154 213 ZM73 147 Q102 138 102 131 Q100 119 93 115 Q88 112 85 118 Q77 140 71 145 Q70 148 73 147 Z" /><glyph glyph-name="" unicode="&#x7cfb;" d="M182 213 L197 194 Q198 193 198 192 Q198 191 196 191 Q177 188 128 183 L141 175 Q144 173 141 170 L135 168 Q116 156 80 138 L141 140 Q161 156 171 167 L194 148 Q196 147 191 145 L185 142 Q143 118 74 88 L185 92 Q179 106 172 115 Q171 117 171 118 Q172 119 174 118 Q215 92 216 82 Q217 70 201 60 Q194 57 192 64 Q189 78 186 88 Q154 84 130 79 L151 71 Q153 69 151 68 Q148 65 148 60 L148 35 L148 12 Q148 -13 115 -30 Q114 -32 113 -31 Q112 -30 112 -27 Q113 -12 100 -6 Q97 -3 101 -2 Q127 -4 124 4 L123 46 L122 78 Q78 70 59 62 Q57 60 54 63 L44 88 Q59 88 66 92 Q104 111 132 133 Q86 124 71 118 Q71 118 70 118 Q67 116 66 119 L57 138 Q69 139 77 145 Q98 159 114 181 Q94 179 56 176 Q42 175 36 174 Q33 175 36 178 Q121 191 182 213 ZM84 59 L109 46 Q112 44 108 41 L103 38 Q65 2 12 -27 Q10 -28 9 -27 Q8 -26 9 -24 Q57 10 84 59 ZM164 49 Q206 32 219 21 Q224 9 212 -3 Q203 -12 198 -1 Q187 25 162 47 Q160 48 164 49 Z" /><glyph glyph-name="" unicode="&#x7ed3;" d="M189 73 L198 87 L222 74 Q225 74 223 72 L218 62 L218 12 L221 5 Q222 3 221 2 Q220 1 218 2 Q203 3 186 4 Q173 4 135 4 L135 -7 Q130 -19 120 -28 Q116 -29 115 -29 Q113 -28 114 -25 L114 49 L113 80 Q113 83 113 83 Q114 84 115 83 L135 72 L189 73 ZM82 158 L102 140 Q102 139 101 136 Q67 95 37 66 L97 69 Q99 69 97 66 Q38 47 28 40 Q24 37 23 41 L17 64 Q26 63 33 70 Q49 91 66 125 Q43 117 24 108 Q22 107 21 107 Q20 107 20 109 L15 128 Q24 129 30 137 Q47 163 60 210 L81 194 Q81 194 81 193 Q83 191 80 188 Q55 153 34 131 L70 132 Q72 136 75 143 Q80 153 82 158 ZM125 157 Q111 157 98 155 L91 163 L151 164 L151 167 L150 212 L179 205 Q182 203 179 201 Q176 198 174 191 L174 164 L212 165 L226 180 L244 163 Q246 161 243 161 L174 159 L174 110 L197 111 L210 125 L227 109 Q229 106 226 106 L109 103 Q106 103 105 106 Q105 108 108 109 L151 110 L151 158 L125 157 ZM135 66 L134 10 L190 12 L190 67 L135 66 ZM101 33 Q103 34 104 32 Q104 31 102 30 L62 4 Q41 -7 33 -14 Q31 -16 31 -16 Q31 -16 30 -14 L17 9 Q34 11 50 17 L101 33 Z" /><glyph glyph-name="" unicode="&#x7ed9;" d="M190 90 L213 77 Q215 76 213 74 L206 65 L207 14 L208 10 Q208 10 207 9 Q192 10 151 9 Q139 8 132 8 L132 0 Q131 -16 118 -28 Q113 -31 112 -27 L113 17 L113 60 Q113 82 112 86 Q112 88 115 87 L132 77 L180 79 L190 90 ZM86 160 L108 142 Q109 141 106 138 Q74 99 40 68 L96 72 Q98 71 96 69 Q45 52 29 43 Q27 41 26 42 Q25 42 25 44 L18 67 Q28 66 36 74 Q49 88 71 128 Q46 121 26 111 Q22 109 21 112 L16 131 Q28 130 33 139 Q49 161 62 209 L86 193 Q89 192 85 187 Q66 163 38 133 L74 134 Q83 151 86 160 ZM89 93 Q85 93 86 96 Q127 143 146 213 L171 202 Q173 202 172 199 L168 197 Q179 152 254 108 Q255 107 255 106 Q254 104 253 105 Q238 107 223 92 Q178 134 166 195 Q135 136 89 93 ZM180 73 L132 71 L132 13 L181 15 L180 73 ZM100 31 Q103 32 103 31 Q104 30 102 28 L64 4 Q39 -8 31 -15 Q30 -17 28 -15 L18 10 Q32 11 49 17 L100 31 ZM155 118 Q135 116 129 115 L122 122 L169 124 L179 134 L192 122 Q195 120 191 120 L155 118 Z" /><glyph glyph-name="" unicode="&#x7ef4;" d="M83 84 Q81 83 80 84 Q79 85 80 86 Q111 131 136 216 L159 205 Q161 205 161 204 Q161 204 159 202 L156 198 Q147 179 135 159 L211 161 L222 174 L239 159 Q241 157 239 156 L191 155 L191 114 L206 114 L217 126 L232 112 Q233 111 233 111 Q233 110 231 109 L190 108 L190 73 L206 73 L217 85 L232 72 Q233 70 233 70 Q232 69 231 69 L190 68 L189 26 L216 26 L228 39 L244 24 Q245 23 245 23 Q245 22 243 21 L133 18 L133 0 Q131 -14 119 -28 Q113 -32 112 -27 L114 39 L116 129 Q101 105 83 84 ZM87 166 L107 147 Q109 146 106 143 Q69 101 38 72 L97 78 Q99 77 99 76 Q99 76 98 75 Q57 61 30 46 Q28 44 26 45 Q25 45 25 47 L19 71 Q30 68 36 78 Q51 96 71 131 Q43 123 27 115 Q24 113 23 115 Q23 115 23 116 L19 136 Q27 134 33 142 Q49 167 65 215 L88 200 Q90 199 86 195 Q75 177 38 138 L75 140 Q83 152 87 166 ZM134 66 L133 24 L169 25 L169 67 L134 66 ZM135 153 L134 112 L169 113 L169 154 L135 153 ZM101 38 Q104 38 102 35 L62 9 Q45 -1 33 -10 Q32 -12 32 -12 Q31 -12 30 -10 L20 16 Q33 17 51 23 L101 38 ZM134 107 L134 72 L169 72 L169 108 L134 107 ZM171 199 Q195 190 196 180 Q195 173 184 167 Q177 166 176 172 Q175 188 169 198 Q168 200 171 199 Z" /><glyph glyph-name="" unicode="&#x8054;" d="M118 67 L119 63 L102 54 L102 37 Q102 20 103 14 Q103 6 100 0 Q96 -7 88 -16 Q85 -18 84 -18 Q82 -17 82 -15 L82 44 L50 26 Q43 23 33 17 Q30 15 28 14 Q26 11 23 13 L9 29 Q9 30 9 30 Q8 32 10 33 Q22 36 36 40 L39 41 L38 177 Q30 177 18 175 Q19 175 16 175 L8 182 L102 184 L115 197 L131 182 Q133 179 131 179 L94 178 L106 171 Q108 170 106 168 L104 162 L102 62 L118 67 ZM205 215 L227 204 Q229 202 227 200 L222 195 Q216 188 205 176 Q196 166 190 159 L209 160 L220 172 L235 158 Q237 156 234 156 L185 153 L185 123 Q185 108 184 94 L215 95 L229 110 L246 93 Q248 91 244 91 L184 89 Q182 9 80 -33 Q78 -33 78 -31 Q77 -30 79 -29 Q161 9 164 88 L149 88 Q130 87 121 85 L114 92 L164 94 Q165 109 165 129 L165 152 L156 152 Q139 152 129 149 L122 156 L183 159 Q200 188 205 215 ZM189 70 Q197 25 252 -8 Q254 -10 252 -11 Q237 -11 219 -25 Q193 0 188 63 Q187 68 187 70 L189 70 ZM55 91 L54 46 L83 55 L83 92 L55 91 ZM56 178 L55 138 L84 139 L85 178 L56 178 ZM55 132 L55 97 L83 98 L84 133 L55 132 ZM136 207 Q168 191 167 183 Q166 173 156 168 Q149 166 147 172 Q144 197 134 205 Q133 206 136 207 Z" /><glyph glyph-name="" unicode="&#x884c;" d="M145 112 Q128 111 118 109 L109 117 L219 121 L232 135 L249 119 Q251 117 249 116 L187 114 L203 109 Q206 109 204 107 Q201 104 200 98 L200 39 L201 13 Q201 -13 170 -28 Q168 -28 168 -25 Q167 -10 158 -8 Q157 -7 157 -6 Q157 -5 158 -5 Q178 -6 176 4 L176 85 Q177 94 176 106 Q176 111 176 113 L145 112 ZM5 41 Q3 40 3 41 Q2 42 3 44 Q56 86 89 158 L110 142 Q112 141 109 138 L106 135 Q97 123 88 113 L90 0 Q87 -16 76 -30 Q74 -32 72 -32 Q70 -32 70 -29 L71 38 L72 96 Q48 71 5 41 ZM90 212 L106 198 Q108 196 108 195 Q108 193 105 192 Q80 172 28 146 Q25 146 27 148 Q69 176 90 212 ZM164 184 Q150 184 137 182 L128 189 L202 191 L216 205 L232 189 Q234 187 231 187 L164 184 Z" /><glyph glyph-name="" unicode="&#x89e3;" d="M159 119 L175 110 Q177 109 175 108 Q173 105 169 99 Q166 95 164 92 L183 92 L183 99 L182 126 L202 119 Q205 118 203 114 L201 110 L201 93 L216 94 L226 104 L239 92 Q240 89 237 89 L201 88 L201 54 L222 55 L234 67 L249 53 Q251 50 248 50 L201 48 L201 37 L202 3 Q199 -12 188 -24 Q185 -27 183 -27 Q181 -27 181 -24 L182 32 L182 48 L180 48 Q175 48 167 47 Q158 47 153 46 L145 52 L182 53 L183 87 L159 87 Q151 75 142 66 Q142 65 141 65 L141 46 Q143 3 112 -14 Q112 0 106 2 Q105 4 106 5 Q124 3 122 40 L123 145 L96 144 L106 140 Q109 139 107 135 L105 128 L104 110 L116 110 Q119 110 119 108 Q119 105 116 105 L104 105 L103 70 L117 70 Q119 70 119 68 Q119 66 116 65 L103 65 L102 28 Q102 13 91 3 Q89 1 87 1 Q86 2 86 4 L88 65 L70 64 Q64 10 4 -33 Q2 -34 2 -32 Q1 -30 3 -29 Q57 10 56 101 L57 125 Q57 143 56 153 Q44 141 31 131 Q28 129 29 132 Q64 172 79 215 L100 205 Q102 204 99 201 L94 197 Q93 196 91 193 Q90 191 84 184 L105 185 L113 193 L131 181 Q131 180 130 178 L121 172 L96 150 L121 150 L129 161 L149 150 Q151 149 149 147 L143 140 L142 69 Q156 98 159 119 ZM228 156 Q226 137 205 126 Q201 125 201 128 Q202 137 195 140 Q193 143 196 143 Q208 143 208 147 L209 188 L170 188 Q167 188 161 187 Q155 187 153 186 L146 192 L209 193 L217 202 L234 191 Q236 191 234 189 L229 183 L228 167 L228 156 ZM61 158 L78 149 L91 149 L104 180 L80 179 Q77 176 71 169 Q64 162 61 158 ZM191 179 Q193 179 191 177 L188 174 Q177 158 149 130 Q147 130 147 132 Q165 158 174 186 L191 179 ZM73 104 Q73 100 72 93 Q72 77 70 69 L88 70 L89 104 L73 104 ZM74 136 L73 109 L89 110 L90 144 L76 144 L74 136 Z" /><glyph glyph-name="" unicode="&#x8a00;" d="M193 -4 Q163 -2 85 -5 L85 -12 Q84 -22 71 -31 Q66 -34 66 -31 L66 63 Q66 68 70 66 L86 56 L163 57 L176 71 L198 56 Q201 55 199 53 L193 45 L193 1 L195 -1 Q196 -4 193 -4 ZM86 50 L85 0 L164 1 L164 51 L86 50 ZM58 167 Q40 167 29 164 L22 173 L115 174 L116 214 L144 208 Q147 208 145 204 L142 197 L140 174 L209 175 L222 188 L238 172 Q239 171 239 170 Q239 169 237 169 L58 167 ZM84 127 Q72 126 59 124 L53 131 L175 133 L187 146 L203 131 Q205 129 202 129 L84 127 ZM89 90 Q76 89 65 87 L58 94 L173 97 L185 109 L201 94 Q203 92 201 92 L89 90 Z" /><glyph glyph-name="" unicode="&#x8ba1;" d="M184 198 L181 187 L181 126 L213 127 L226 142 L243 126 Q244 124 244 124 Q243 123 242 123 L181 121 L180 44 L182 0 Q179 -18 160 -31 Q157 -32 156 -25 L157 20 L157 120 L136 119 Q119 119 109 116 L100 124 L157 126 L158 166 L156 212 L183 201 Q184 201 184 198 ZM121 59 Q124 60 123 57 L79 2 Q74 -2 66 -13 Q62 -18 60 -20 Q59 -23 57 -22 L38 -4 Q36 -2 38 0 Q44 0 56 8 Q47 1 58 9 L58 129 L41 128 Q28 128 19 125 L10 133 L56 135 L67 148 L87 135 Q89 134 87 133 L81 125 L79 24 L121 59 ZM44 208 Q72 199 79 186 Q83 177 67 163 Q60 160 57 164 Q51 193 41 206 Q41 208 44 208 Z" /><glyph glyph-name="" unicode="&#x8ba9;" d="M172 196 L169 186 L168 119 L204 120 L218 136 L237 118 Q239 117 237 115 L168 113 L166 -6 L217 -5 L231 9 L250 -7 Q251 -8 251 -9 Q251 -10 249 -10 L121 -14 Q104 -14 94 -17 L86 -9 L144 -7 L145 164 L144 210 L170 199 Q172 199 172 196 ZM123 59 Q126 60 124 57 L79 2 Q69 -7 59 -21 Q58 -24 56 -22 L38 -4 Q35 -2 37 0 Q47 2 60 10 L60 129 L42 128 Q28 127 19 124 L10 133 L57 135 L68 148 L90 136 Q92 136 90 134 L83 125 L80 26 L123 59 ZM45 211 Q74 200 80 190 Q82 178 68 167 Q61 163 59 168 Q52 198 43 209 Q42 211 45 211 Z" /><glyph glyph-name="" unicode="&#x8bf4;" d="M195 85 Q197 84 195 82 L191 76 L182 14 Q180 1 191 0 Q205 0 227 1 Q235 3 239 14 Q240 17 242 17 Q244 16 243 13 Q243 4 248 0 Q260 -15 238 -22 Q210 -26 189 -22 Q167 -16 167 15 L171 78 L171 90 Q166 91 157 90 Q151 90 148 90 L163 84 Q165 83 163 80 L160 74 Q144 0 56 -33 Q54 -34 53 -32 Q52 -30 54 -29 Q134 3 142 90 L132 90 Q127 78 119 71 Q117 70 115 70 Q114 71 114 73 L115 107 L115 139 Q115 144 114 156 Q114 162 114 164 Q114 167 116 165 L135 156 L170 157 Q183 193 187 216 L212 207 Q215 206 212 203 Q202 191 176 157 L193 158 L202 168 L222 155 Q224 155 222 153 L217 145 L215 97 L217 92 Q218 90 216 89 Q201 90 183 90 L195 85 ZM111 60 Q114 61 112 58 L76 10 Q73 7 68 0 Q60 -8 58 -12 Q58 -12 57 -13 Q56 -15 54 -13 L37 2 Q34 4 36 5 Q42 8 55 18 Q57 19 58 20 L58 130 L40 129 Q36 129 30 128 Q22 128 19 127 L10 134 L56 136 L66 149 L86 137 Q88 136 86 135 L80 126 L75 32 L111 60 ZM133 151 L133 96 L193 97 L193 153 L133 151 ZM44 209 Q74 199 78 189 Q80 177 67 167 Q60 165 57 170 Q52 197 42 207 Q41 210 44 209 ZM126 205 Q159 191 157 181 Q157 169 147 164 Q137 163 137 168 Q136 192 124 203 Q123 205 126 205 Z" /><glyph glyph-name="" unicode="&#x8bf7;" d="M134 93 L189 95 L198 106 L220 93 Q223 92 221 90 L215 81 L217 15 Q220 -12 190 -31 Q186 -32 186 -29 Q185 -17 179 -14 Q178 -13 178 -12 Q178 -10 179 -11 Q192 -12 191 0 L189 90 L135 88 L135 66 L180 68 Q183 68 183 66 Q183 64 181 63 L135 61 L134 36 L181 38 Q183 38 184 36 Q184 34 182 33 L134 31 L134 4 Q134 -12 121 -27 Q118 -29 117 -29 Q115 -28 114 -25 L115 15 L116 69 L115 103 L134 93 ZM132 170 Q127 170 120 169 Q110 169 106 168 L97 175 L148 176 L147 213 L174 206 Q177 205 175 202 Q172 199 171 192 L171 176 L201 177 L214 189 L228 175 Q230 173 227 173 L171 171 L170 148 L193 149 L205 161 L219 147 Q221 145 218 145 L170 143 L170 118 L218 119 L230 133 L248 118 Q249 116 249 116 Q248 115 247 115 L124 113 Q121 113 116 112 Q104 112 98 110 L90 118 L148 118 L148 143 L143 143 Q138 143 131 142 Q121 142 117 141 L108 147 L148 148 L148 168 L148 170 L132 170 ZM106 56 Q109 57 108 54 L72 5 Q69 2 64 -5 Q56 -14 54 -17 Q53 -19 52 -19 Q52 -19 51 -18 L34 -1 Q32 0 32 0 Q32 0 33 1 Q38 3 49 11 Q54 14 56 16 L55 128 L39 127 Q26 128 19 125 L10 133 L54 134 L63 147 L84 135 Q87 135 84 133 L79 124 L72 29 L106 56 ZM41 208 Q71 195 77 187 Q79 176 65 166 Q59 163 55 169 Q51 195 38 206 Q38 208 41 208 Z" /><glyph glyph-name="" unicode="&#x8c08;" d="M212 89 L229 74 Q231 71 228 70 Q210 63 182 51 Q202 13 251 -5 Q254 -6 250 -9 Q237 -9 219 -27 Q171 3 167 87 L165 59 Q168 1 67 -31 Q65 -32 64 -29 Q64 -27 66 -26 Q149 4 145 63 L146 76 L144 106 L171 98 Q171 98 172 98 Q174 97 172 94 L169 91 Q172 72 179 55 Q199 71 212 89 ZM100 54 Q103 55 102 52 L70 12 Q67 9 62 2 Q55 -6 53 -9 Q52 -12 50 -10 L34 4 Q32 6 34 7 Q42 12 52 19 L52 130 L36 130 Q32 130 26 129 Q19 129 16 128 L7 135 L50 136 L60 149 L80 138 Q82 137 80 135 L74 127 L69 31 L100 54 ZM150 213 L178 205 Q181 204 179 202 L174 196 L172 164 Q175 112 82 83 Q80 82 80 85 Q79 86 81 87 Q157 116 151 168 L151 183 L150 213 ZM178 145 Q221 131 224 120 Q226 108 216 101 Q210 97 207 104 Q196 129 177 143 Q175 145 178 145 ZM118 79 Q118 81 120 81 Q121 81 122 79 Q132 46 125 35 Q119 25 104 25 Q95 29 102 37 Q117 52 118 79 ZM40 208 Q71 197 74 187 Q76 176 63 166 Q56 163 54 169 Q49 195 38 206 Q39 209 40 208 ZM123 187 Q124 191 127 188 Q137 155 130 146 Q123 137 110 138 Q101 140 107 148 Q125 165 123 187 ZM211 196 L228 180 Q229 177 226 177 L219 174 L178 158 Q176 157 177 159 Q204 184 211 196 Z" /><glyph glyph-name="" unicode="&#x8d44;" d="M133 216 L148 203 Q148 202 147 200 Q143 196 138 190 L193 192 L203 201 L224 184 Q225 182 225 180 Q224 179 222 179 Q209 180 192 168 Q189 167 189 170 L194 188 L155 186 L167 182 Q169 182 167 180 L163 176 Q163 175 163 173 Q166 151 246 129 Q247 128 246 127 Q246 126 244 126 Q233 126 218 108 Q172 129 161 168 Q152 129 89 111 Q84 110 87 113 Q144 133 148 186 L133 185 Q113 164 84 145 Q81 144 82 147 Q116 173 131 215 Q131 217 133 216 ZM82 100 L82 36 Q79 22 68 14 Q63 11 62 14 L63 44 L63 88 L62 111 Q62 113 64 112 L82 105 L173 107 L183 118 L203 107 Q205 106 203 104 L197 97 L197 77 L198 52 Q198 33 183 22 Q177 17 175 24 L175 103 L82 100 ZM144 82 Q145 81 144 80 L141 75 Q146 -10 17 -33 Q14 -32 17 -29 Q80 -10 99 11 Q119 31 120 81 L119 94 L144 82 ZM138 22 Q203 11 213 0 Q219 -11 211 -23 Q207 -32 196 -22 Q173 4 137 19 Q135 22 138 22 ZM101 197 L65 142 Q58 129 58 117 Q59 110 52 108 Q45 104 37 107 Q33 110 37 116 Q37 117 38 120 Q40 125 40 129 Q41 136 36 143 Q35 145 37 144 Q47 141 50 145 L99 199 Q102 200 101 197 ZM43 211 Q71 201 72 193 Q72 182 62 176 Q55 174 53 180 Q52 199 42 208 Q41 209 41 210 Q41 211 43 211 Z" /><glyph glyph-name="" unicode="&#x8d70;" d="M141 205 Q144 203 142 201 Q138 197 137 187 L137 170 L176 170 L188 184 L205 169 Q206 167 206 167 Q205 166 204 166 L137 164 L136 117 L207 118 L221 133 L238 116 Q241 114 237 114 L123 112 L142 103 L138 92 L137 10 Q179 8 243 15 Q245 15 246 14 Q246 12 244 11 Q225 6 215 -15 Q182 -16 148 -14 Q118 -13 110 -10 Q86 0 71 33 Q63 4 6 -30 Q5 -31 4 -30 Q3 -28 4 -27 Q40 -4 50 20 Q62 43 62 99 L82 92 Q85 91 83 88 L81 83 Q79 57 73 39 Q87 18 116 13 L115 112 L51 111 Q32 110 23 108 L16 115 L114 117 L114 164 L86 163 Q72 163 59 161 L51 168 L114 169 L114 177 L112 214 L141 205 ZM197 91 L207 73 Q210 70 206 69 Q178 65 150 62 Q148 62 148 63 Q148 64 149 65 Q178 76 197 91 Z" /><glyph glyph-name="" unicode="&#x8d8a;" d="M81 216 L102 205 Q105 204 102 201 Q99 197 99 188 L98 173 L111 174 L121 184 L133 172 Q135 169 132 169 L98 168 L98 133 L114 134 L125 146 L140 132 Q142 129 139 129 L97 127 L96 18 Q126 7 242 16 Q244 16 245 15 Q245 13 243 12 Q225 9 214 -14 Q178 -15 141 -13 Q109 -11 101 -8 Q73 2 59 42 Q54 6 8 -33 Q5 -34 6 -31 Q33 -4 40 21 Q48 44 47 99 L65 92 Q67 92 65 88 L63 83 Q63 65 60 50 Q61 48 63 45 Q69 33 79 27 L78 126 L63 126 Q44 125 37 123 L30 131 L80 133 L79 167 L70 167 Q67 167 62 166 Q49 166 45 164 L37 172 L79 173 L79 214 Q79 216 81 216 ZM179 204 L180 213 L197 203 Q199 202 197 200 L195 196 Q194 179 195 161 L215 162 L224 172 L237 161 Q238 159 238 159 Q237 158 236 158 L195 156 Q196 127 202 101 Q213 124 216 136 L231 127 Q233 126 233 125 Q233 124 231 122 Q222 103 208 83 Q215 68 224 58 Q227 55 230 57 L236 62 Q239 63 238 60 Q234 52 237 42 Q238 33 231 29 Q225 26 218 33 Q204 45 195 67 Q184 52 151 19 Q149 18 148 19 Q148 21 149 22 Q173 49 191 79 Q182 109 180 156 L161 155 L157 70 L179 83 Q181 83 180 81 L147 44 Q144 41 143 44 L133 59 L144 64 L143 144 L142 171 Q142 174 145 173 L162 160 L179 160 Q179 183 179 204 ZM130 108 L137 93 Q139 91 136 90 Q132 90 123 89 Q108 87 100 86 Q99 86 100 88 Q119 97 130 108 ZM209 197 Q225 190 226 185 Q224 178 218 175 Q214 174 213 177 Q211 189 208 196 Q207 197 209 197 Z" /><glyph glyph-name="" unicode="&#x8f93;" d="M66 -31 Q61 -34 59 -30 L60 37 L60 47 L51 42 Q30 29 23 20 Q21 19 20 20 L10 47 L60 62 L60 95 L50 93 Q37 91 28 85 Q24 83 23 86 L17 102 Q16 105 18 105 L29 105 Q37 132 43 158 Q35 158 25 156 Q25 156 23 156 L16 164 L44 164 Q46 173 50 188 Q51 192 51 194 L55 216 L77 204 Q77 204 77 203 Q79 201 77 199 Q74 195 72 189 Q67 180 61 164 L81 165 L92 177 L107 164 Q110 161 106 160 L59 159 Q51 139 37 105 L60 106 L60 110 L60 141 L82 132 Q84 131 84 131 Q84 130 82 129 L80 123 L79 107 L104 108 Q105 108 106 107 Q105 106 104 105 L79 100 L79 68 L105 77 Q107 77 107 76 Q107 75 106 74 L79 59 L79 38 L80 -4 Q78 -18 66 -31 ZM151 120 L168 108 Q170 107 168 105 L164 99 L162 -1 Q162 -17 145 -28 Q143 -29 143 -26 Q143 -15 137 -12 Q135 -10 138 -10 Q147 -9 146 -4 L146 99 Q146 104 142 104 L126 103 L126 72 L139 73 Q141 73 141 71 Q141 69 139 68 L126 67 L125 38 L138 39 Q141 39 142 37 Q142 35 139 35 L125 33 L124 -2 Q124 -15 113 -28 Q110 -30 109 -30 Q108 -30 108 -27 L109 84 Q109 109 108 113 Q108 116 111 115 L128 107 L141 109 L151 120 ZM157 212 L177 198 Q180 197 177 193 Q176 193 176 192 Q196 159 249 134 Q252 132 249 130 Q239 131 224 114 Q192 143 173 189 Q147 155 96 112 Q95 111 94 112 Q93 113 94 115 Q135 155 157 212 ZM199 123 L220 113 Q223 112 221 110 L217 104 L217 9 Q219 -15 193 -30 Q191 -31 191 -30 Q190 -30 190 -28 Q191 -19 184 -13 Q182 -11 184 -10 Q200 -11 198 0 L199 80 Q198 99 198 121 Q197 124 199 123 ZM178 102 L188 96 Q191 94 190 91 L189 82 L188 33 Q188 23 180 13 Q179 11 177 11 Q175 12 175 14 L176 100 Q176 103 178 102 ZM127 129 Q125 129 124 131 Q124 133 126 133 L166 136 L176 147 L188 136 Q189 134 189 134 Q188 133 187 133 L127 129 Z" /><glyph glyph-name="" unicode="&#x8fce;" d="M246 17 Q250 17 247 13 Q230 4 220 -23 Q145 -23 110 -18 Q88 -14 73 12 Q69 20 63 13 Q45 0 33 -20 Q32 -23 29 -21 L18 -2 Q17 -1 18 0 L55 25 L57 112 L17 111 Q14 111 14 113 Q14 116 16 117 L57 118 L66 130 L85 117 Q88 114 84 112 L78 103 L76 31 Q75 14 96 8 Q148 -4 246 17 ZM161 192 L180 180 L207 182 L214 192 L232 183 Q234 183 234 182 Q234 182 232 180 L228 173 L228 117 L229 92 Q228 71 205 58 Q203 72 195 76 Q194 78 196 79 Q207 77 207 84 L207 176 L179 175 L180 45 Q180 24 164 8 Q159 5 158 9 L160 64 L160 161 Q160 168 159 179 Q159 187 159 191 Q159 194 161 192 ZM151 99 L152 97 L104 45 Q103 43 101 45 Q101 44 100 45 L86 59 L101 68 L99 157 L98 190 Q98 192 99 192 Q100 192 101 191 L120 177 L116 78 L151 99 ZM39 202 Q73 188 73 174 Q72 162 59 157 Q51 155 49 163 Q47 187 38 200 Q36 203 39 202 ZM148 214 L164 200 Q165 198 162 197 Q161 196 158 195 Q152 192 123 181 L122 183 Q138 197 148 214 Z" /><glyph glyph-name="" unicode="&#x9001;" d="M243 14 Q247 14 244 10 Q223 2 216 -21 Q152 -24 105 -17 Q84 -13 69 9 Q65 18 58 11 Q45 -5 35 -25 Q34 -28 31 -26 L20 -7 Q19 -5 20 -4 L52 19 L55 111 L19 109 Q16 109 16 112 Q16 115 18 115 L55 118 L62 128 L81 116 Q83 115 83 115 Q83 114 81 112 L75 103 L72 27 Q68 -12 243 14 ZM183 213 L205 202 Q208 200 206 198 L200 193 Q181 172 167 158 L187 159 L199 171 L214 158 Q215 155 212 155 L168 153 L168 126 Q168 114 167 103 L203 104 L218 119 L236 102 Q238 101 234 99 L166 97 Q165 55 89 9 Q87 8 86 10 Q85 11 87 13 Q143 51 145 97 L127 96 Q107 95 98 93 L91 100 L145 102 Q146 114 146 128 L146 152 L132 151 Q115 151 105 148 L97 155 L161 158 Q177 191 183 213 ZM164 72 Q211 57 217 40 Q218 29 206 20 Q199 15 197 23 Q182 55 163 70 L164 72 ZM36 202 Q72 191 74 177 Q74 164 63 157 Q54 154 52 161 Q51 186 35 199 Q34 200 34 201 Q35 202 36 202 ZM112 204 Q146 190 144 180 Q145 171 133 165 Q125 163 124 169 Q122 194 110 202 Q109 205 112 204 Z" /><glyph glyph-name="" unicode="&#x949f;" d="M185 198 L183 187 L182 150 L206 150 L215 163 L238 150 Q240 148 238 147 L233 138 L233 87 L235 83 Q235 80 233 80 Q220 81 182 81 L182 44 L183 0 Q179 -20 165 -30 Q162 -30 161 -26 L162 22 L162 80 Q147 80 138 79 L138 73 Q135 61 124 51 Q120 49 118 52 L120 100 L120 132 L119 159 Q119 161 121 160 L138 148 L162 149 L162 166 L161 212 L184 201 Q185 201 185 198 ZM39 125 Q37 124 37 127 Q36 129 38 130 L87 132 L97 142 L110 130 Q112 128 110 128 L77 126 L76 83 L88 84 L99 95 L114 82 Q114 82 113 80 L76 78 L75 10 L119 28 Q123 29 120 26 L70 -8 Q55 -18 49 -23 Q46 -26 45 -24 L33 -6 Q31 -4 34 -4 Q44 0 56 2 L55 77 L54 77 Q46 76 33 74 Q28 73 26 73 L18 80 L55 82 L55 125 L39 125 ZM47 215 L71 207 Q73 206 73 206 Q73 205 71 204 L69 199 Q63 184 57 171 L88 172 L99 184 L113 170 Q115 170 113 168 L55 167 Q37 128 6 83 Q3 82 4 85 Q35 142 47 215 ZM207 145 L182 144 L182 86 L207 87 L207 145 ZM138 143 L138 85 L162 86 L162 144 L138 143 Z" /><glyph glyph-name="" unicode="&#x957f;" d="M52 104 Q49 104 44 103 Q29 103 25 101 L17 110 L74 110 L73 170 Q73 191 71 208 L102 197 Q104 196 102 193 L96 186 L94 110 L195 112 L214 131 L236 110 Q237 109 235 107 L137 106 Q148 42 238 0 Q240 0 240 -1 Q240 -2 237 -2 Q227 -1 204 -19 Q141 20 132 105 L94 105 L91 16 L138 37 Q141 38 140 35 L94 0 Q76 -13 64 -25 Q62 -28 60 -25 L41 -7 Q40 -6 40 -5 Q40 -4 41 -4 Q42 -4 44 -3 Q61 1 75 8 L74 104 L52 104 ZM174 199 L189 179 Q192 176 188 173 Q163 154 101 115 L100 118 Q147 158 174 199 Z" /><glyph glyph-name="" unicode="&#x95f4;" d="M146 139 L155 150 L176 138 Q178 137 176 134 L170 126 L172 63 Q172 44 153 27 Q148 24 147 29 Q145 42 142 49 L104 48 Q102 36 92 25 Q89 23 88 23 Q86 24 86 26 L86 68 L86 120 L85 148 L103 137 L146 139 ZM148 184 Q132 184 117 182 L109 188 L196 191 L208 202 L227 189 Q227 189 228 189 Q229 188 227 186 L219 176 L220 76 L222 21 Q224 -8 191 -26 Q189 -27 188 -27 Q187 -26 187 -24 Q187 -10 177 -3 Q175 0 178 0 Q199 -1 197 10 L196 185 L148 184 ZM58 159 L56 3 Q56 -10 40 -26 Q36 -28 36 -26 L37 47 L38 151 L37 180 L60 172 Q63 171 61 168 L58 159 ZM104 132 L104 95 L139 97 Q142 97 142 95 Q141 92 139 92 L104 91 L104 53 L145 54 Q147 55 147 58 L147 134 L104 132 ZM63 215 Q65 214 70 212 Q100 201 99 195 Q99 181 88 175 Q81 170 79 178 Q71 201 62 212 Q61 213 61 214 Q61 215 63 215 Z" /></font>
</defs>
</svg>
