<?xml version="1.0" standalone="no"?><!DOCTYPE svg PUBLIC "-//W3C//DTD SVG 1.1//EN" "http://www.w3.org/Graphics/SVG/1.1/DTD/svg11.dtd" ><svg xmlns="http://www.w3.org/2000/svg"><metadata></metadata><defs><font id="Hanyi HYYouRanTiJ Regular v5.00" horiz-adv-x="1000"><font-face font-family="HYYouRanTiJ" font-weight="400" font-stretch="normal" units-per-em="1000" panose-1="0 2 6 0 4 1 1 1 1 1" ascent="856" descent="-266" x-height="1" bbox="2 -96 787 560" underline-thickness="50" underline-position="-266" unicode-range="U+0021-4e07" /><missing-glyph horiz-adv-x="1000"  /><glyph glyph-name="" unicode="!" d="M103 528 L121 514 Q139 394 127 274 Q103 250 79 272 L69 290 Q57 404 75 518 L89 528 L103 528 ZM97 208 Q111 206 127 202 L141 184 Q145 164 135 148 Q113 130 89 136 Q55 158 75 194 L97 208 Z" /><glyph glyph-name="" unicode="&quot;" d="M178 476 Q198 450 194 416 Q192 388 174 372 Q152 366 140 382 Q120 416 128 458 L142 476 L160 482 L178 476 ZM32 466 Q50 468 64 454 Q82 410 54 374 Q38 362 22 370 L8 392 Q2 424 16 454 L32 466 Z" /><glyph glyph-name="" unicode="#" d="M253 486 Q267 452 275 416 Q301 416 329 410 Q347 390 337 366 Q311 348 281 348 L287 300 L349 300 L367 288 L373 268 L365 248 L353 240 Q321 238 295 230 Q299 198 303 168 L291 152 Q271 140 255 152 L245 166 L233 226 L197 226 Q199 186 207 142 L193 120 Q171 110 155 126 L143 140 L125 220 Q89 220 57 228 Q27 250 57 274 L117 282 L113 348 Q79 344 57 368 Q49 382 63 396 L83 406 Q99 402 115 412 L119 464 L127 480 L145 482 Q157 446 171 410 L221 414 L225 474 L237 488 L253 486 ZM177 348 Q171 316 183 288 L223 292 Q225 318 221 348 L177 348 Z" /><glyph glyph-name="" unicode="$" d="M186 514 L198 502 Q200 480 210 460 Q252 458 286 434 Q294 416 278 406 L224 410 L216 406 Q214 376 220 348 L288 342 L320 330 Q358 294 350 244 Q342 216 320 198 Q280 166 230 162 L230 108 L220 92 Q200 82 186 98 L172 120 Q170 142 164 164 Q132 172 106 190 Q74 212 86 246 L110 246 Q134 230 164 230 L166 288 L162 296 Q112 298 72 326 Q42 360 70 402 Q108 442 162 458 L166 498 L176 514 L186 514 ZM164 400 Q132 392 110 370 L110 358 Q134 344 162 348 L164 400 ZM230 296 L222 292 L226 226 Q250 218 276 232 L300 250 L302 276 L286 292 L268 294 L230 296 Z" /><glyph glyph-name="" unicode="%" d="M313 490 Q317 400 249 316 Q195 226 139 144 L115 144 Q83 172 111 212 Q197 348 291 484 L301 492 L313 490 ZM135 490 Q179 492 213 466 Q225 444 223 422 Q215 394 197 376 Q165 352 127 362 L97 376 Q75 396 79 426 Q83 454 107 474 L135 490 ZM155 440 Q143 442 137 430 L137 418 Q149 410 163 418 L169 430 L155 440 ZM261 238 Q285 234 307 218 Q325 202 325 180 Q321 152 303 134 Q261 102 217 126 Q195 142 199 170 Q203 202 231 226 L261 238 ZM255 182 Q247 172 257 168 L269 174 L261 182 L255 182 Z" /><glyph glyph-name="" unicode="&amp;" d="M207 524 Q233 522 259 514 L285 492 Q303 462 299 428 Q265 368 225 318 Q277 274 325 228 L349 190 Q353 168 337 156 L315 156 Q249 218 177 274 Q145 242 125 204 Q119 188 127 174 Q145 154 175 160 Q205 180 243 186 Q255 164 241 140 L217 116 Q143 74 81 132 Q57 166 65 210 Q85 270 133 318 Q85 360 53 414 Q47 440 63 464 Q121 522 207 524 ZM177 462 Q143 454 119 434 L117 426 L179 362 Q211 394 239 434 Q247 450 231 462 L177 462 Z" /><glyph glyph-name="" unicode="(" d="M213 466 L233 452 Q219 404 197 360 Q179 296 215 248 L257 210 Q277 186 263 162 Q249 146 231 148 Q195 162 171 194 Q123 240 125 306 Q123 388 179 452 L199 466 L213 466 Z" /><glyph glyph-name="" unicode=")" d="M176 454 Q240 398 250 314 Q256 238 220 176 Q198 152 172 168 Q156 178 158 198 Q190 262 182 336 Q160 392 144 448 L154 456 L176 454 Z" /><glyph glyph-name="" unicode="*" d="M229 476 Q239 464 245 448 Q243 410 253 378 L303 406 L321 402 L333 390 Q337 370 327 356 L269 320 L267 314 L309 286 L335 260 Q339 234 319 220 L299 220 L257 248 L209 277 L103 228 Q83 222 69 234 Q61 250 73 266 Q113 292 155 318 L119 346 L79 386 Q71 400 83 414 L109 416 Q145 384 187 372 Q187 416 195 462 L211 478 L229 476 Z" /><glyph glyph-name="" unicode="+" d="M210 416 L222 400 Q220 368 234 344 Q270 348 308 348 L322 336 L328 318 L322 300 L306 288 L236 280 Q236 238 240 196 L224 180 Q198 174 182 192 Q166 234 168 280 Q128 290 88 292 L72 304 L72 322 L86 334 Q126 338 168 346 Q168 378 178 410 L192 420 L210 416 Z" /><glyph glyph-name="" unicode="," d="M83 244 Q115 240 139 218 Q163 184 167 146 Q163 114 141 94 Q121 82 101 90 Q89 98 91 112 L103 136 Q79 140 57 148 Q33 160 35 188 Q37 214 59 232 L83 244 Z" /><glyph glyph-name="" unicode="-" d="M290 336 Q312 320 306 294 L290 278 L230 270 Q170 260 116 274 Q88 298 116 324 L128 328 L272 340 L290 336 Z" /><glyph glyph-name="" unicode="." d="M93 219 Q113 219 131 207 Q149 185 143 157 L127 141 Q103 133 83 145 Q51 171 73 205 L93 219 Z" /><glyph glyph-name="" unicode="/" d="M287 470 Q297 468 309 466 Q319 454 319 438 L261 338 Q193 238 127 140 Q111 134 97 142 Q81 152 81 170 Q87 206 111 240 L267 456 L287 470 Z" /><glyph glyph-name="" unicode="0" d="M223 450 Q261 438 293 412 Q327 376 347 332 Q357 260 309 210 Q269 174 219 160 Q131 142 69 198 Q43 230 43 272 Q47 342 93 398 L143 442 L169 452 L223 450 ZM211 390 Q183 392 157 388 Q125 356 109 314 Q91 266 123 230 Q157 210 201 218 Q239 228 271 256 Q293 284 289 320 L267 354 L235 382 L211 390 Z" /><glyph glyph-name="" unicode="1" d="M200 430 Q218 414 224 390 Q228 308 242 230 Q246 202 230 184 Q210 172 192 180 Q160 218 164 274 Q154 350 172 424 L182 432 L200 430 Z" /><glyph glyph-name="" unicode="2" d="M188 462 Q234 460 278 438 Q302 418 312 388 Q310 356 292 332 L166 212 L166 206 Q214 204 266 214 L282 202 L290 186 Q288 164 272 154 Q224 140 178 140 Q140 138 110 158 Q88 174 90 200 Q96 232 122 258 L242 360 L260 384 L254 392 L210 412 Q180 416 156 404 Q126 382 120 350 Q108 336 98 350 Q88 396 124 432 Q152 456 188 462 Z" /><glyph glyph-name="" unicode="3" d="M185 488 Q233 488 277 466 Q291 448 297 426 Q293 394 271 374 L197 312 L197 306 Q239 302 283 298 L315 284 Q335 258 335 226 Q321 188 293 164 Q255 130 209 114 Q167 102 135 128 Q105 158 129 190 Q163 180 199 178 L241 202 L273 234 L267 240 L175 248 L143 260 Q119 280 125 310 Q131 336 155 354 Q201 384 243 422 L235 432 Q193 440 153 428 L121 404 L113 382 Q97 368 81 382 Q65 424 107 452 Q141 478 185 488 Z" /><glyph glyph-name="" unicode="4" d="M240 476 Q256 478 272 466 L274 452 L250 430 Q262 358 274 286 Q306 300 342 302 Q356 282 346 258 Q320 232 284 226 Q272 194 280 152 L264 136 Q244 128 230 140 L218 154 L208 214 L136 220 Q100 224 74 248 Q44 286 68 332 Q98 380 142 418 Q186 454 240 476 ZM212 402 L150 340 Q126 316 124 288 Q164 272 206 282 Q206 340 218 400 L212 402 Z" /><glyph glyph-name="" unicode="5" d="M112 494 Q124 478 126 458 L134 452 Q204 460 276 450 Q290 428 278 408 L262 398 Q194 394 130 400 L134 350 L140 338 Q192 356 252 350 L292 334 Q334 296 328 240 Q316 194 282 164 Q236 128 180 114 Q142 104 110 124 L100 138 Q94 158 108 172 L172 180 Q212 190 244 218 Q270 240 264 274 Q246 290 222 288 Q176 290 142 266 Q124 260 108 268 Q66 306 72 364 Q66 436 100 496 L112 494 Z" /><glyph glyph-name="" unicode="6" d="M243 482 Q263 482 281 472 L289 462 L283 450 Q253 440 229 424 L185 372 L185 362 Q213 356 245 352 Q289 336 321 302 Q343 264 337 220 Q325 180 291 156 Q233 120 167 140 Q125 152 95 186 Q57 246 85 316 Q109 376 155 426 Q191 466 243 482 ZM153 306 Q135 284 137 254 Q137 222 163 208 Q207 184 255 204 Q287 224 275 262 Q249 286 217 296 Q185 296 155 304 L153 306 Z" /><glyph glyph-name="" unicode="7" d="M124 444 Q208 446 286 418 Q320 380 298 330 Q254 242 218 154 Q198 134 176 144 Q158 154 158 176 Q196 272 242 368 Q176 386 108 390 L90 404 Q80 426 102 440 L124 444 Z" /><glyph glyph-name="" unicode="8" d="M245 504 L275 490 Q303 464 317 430 Q325 380 293 344 Q331 300 357 250 Q369 180 313 138 Q265 108 211 98 Q125 80 63 132 Q31 176 51 230 Q67 278 105 314 L79 330 Q55 350 51 384 Q57 434 97 468 Q125 492 163 506 L245 504 ZM195 450 Q171 452 151 440 L115 404 Q101 386 117 374 Q175 362 239 374 L261 392 L263 410 L251 428 Q225 448 195 450 ZM225 310 Q191 310 161 300 Q121 266 103 220 L103 172 Q153 138 219 156 Q255 166 289 188 Q307 208 303 236 L279 274 L251 298 L227 308 L225 310 Z" /><glyph glyph-name="" unicode="9" d="M201 454 Q253 452 301 432 Q327 402 337 366 Q341 328 323 296 Q327 224 327 154 L311 138 Q291 132 275 144 L265 168 L263 252 Q213 234 161 238 Q123 242 97 266 Q59 306 77 360 Q89 396 121 422 Q157 444 201 454 ZM233 396 Q189 394 153 372 Q121 342 137 308 Q165 290 201 296 Q239 302 269 326 L273 364 L269 372 L233 396 Z" /><glyph glyph-name="" unicode=":" d="M92 335 Q108 333 126 327 Q142 303 136 277 Q112 247 82 263 Q52 287 72 323 L92 335 ZM130 207 Q148 185 142 157 L128 143 Q94 127 72 155 L72 187 L86 205 L108 213 L130 207 Z" /><glyph glyph-name="" unicode=";" d="M76 343 Q98 347 120 335 L136 317 Q138 293 132 273 Q106 247 74 263 Q38 289 58 329 L76 343 ZM84 219 Q100 219 118 215 L150 189 Q162 161 162 131 Q154 97 130 75 Q112 59 92 69 Q72 79 76 103 Q86 117 92 135 L68 147 Q42 173 62 207 L84 219 Z" /><glyph glyph-name="" unicode="?" d="M252 512 L290 490 Q344 450 342 386 Q302 326 256 276 Q260 234 234 210 L210 210 Q174 242 198 294 Q228 350 282 392 Q288 408 278 424 Q246 466 196 458 Q156 440 128 412 L108 386 Q102 358 116 338 L110 332 Q88 324 74 344 Q56 366 64 396 Q76 434 106 462 Q148 500 204 514 L252 512 ZM232 160 Q242 158 254 156 Q270 140 272 118 L264 98 L242 82 Q224 78 212 88 Q190 106 198 138 L210 152 L232 160 Z" /><glyph glyph-name="" unicode="@" d="M231 532 Q327 538 401 474 Q429 430 451 384 Q471 340 471 294 Q463 224 411 182 Q327 122 225 136 Q141 144 81 204 Q29 260 37 338 Q53 428 129 486 Q173 520 231 532 ZM271 474 Q237 478 205 468 L161 438 Q117 400 99 350 Q83 278 137 232 Q199 182 281 192 Q341 196 387 238 Q417 268 411 308 Q359 266 297 286 Q271 256 235 250 Q197 250 171 276 Q153 304 161 340 Q177 384 215 414 L251 432 Q285 436 319 422 L335 402 Q337 370 333 342 Q345 334 361 344 L383 362 Q387 390 369 422 L343 448 L299 470 L271 474 ZM277 380 Q251 372 237 354 L219 322 L223 312 L235 312 L261 336 L283 374 L279 378 L277 380 Z" /><glyph glyph-name="" unicode="a" d="M252 512 L262 502 Q298 386 348 276 Q362 260 372 244 Q368 202 384 164 Q382 146 370 138 Q354 130 338 138 L324 152 L302 206 L172 212 L164 208 L148 142 L130 124 L102 124 Q66 158 92 210 Q128 372 220 512 L240 516 L252 512 ZM234 414 L226 404 Q200 336 184 270 L274 268 L282 274 L236 412 L234 414 Z" /><glyph glyph-name="" unicode="b" d="M227 488 Q259 486 289 472 Q313 450 321 420 Q313 382 295 348 Q317 336 337 320 Q373 274 361 218 Q347 176 317 148 Q281 120 239 110 Q177 94 125 128 Q77 202 83 298 Q79 372 95 444 L113 458 Q147 456 183 482 L227 488 ZM235 440 Q183 436 145 404 Q141 372 149 342 Q203 346 243 382 L265 406 Q273 422 257 434 L237 438 L235 440 ZM269 294 Q207 294 151 272 Q163 224 159 180 L167 172 Q237 160 291 210 L305 234 Q311 262 293 284 L269 294 Z" /><glyph glyph-name="" unicode="c" d="M268 480 Q290 478 312.5 471.5 Q335 465 358 454 Q365 446 370 436.5 Q375 427 375 417 Q363 418 353.5 418 Q344 418 332 418 Q311 418 288.5 417.5 Q266 417 244 415 L201 396 Q145 352 145 291 Q145 283 146 275 Q147 267 149 259 Q166 240 186.5 228 Q207 216 232 212 Q240 211 247.5 210.5 Q255 210 263 210 Q287 210 308.5 213.5 Q330 217 353 225 Q360 217 363.5 206 Q367 195 365 181 L365 182 L345 158 Q327 150 307 145 Q287 140 270 140 Q262 140 255.5 140 Q249 140 241 142 Q174 147 122 187 Q86 213 77 259 Q76 265 75.5 273.5 Q75 282 75 288 Q75 355 122 411 L121 411 Q155 447 210 468 L209 468 L268 480 Z" /><glyph glyph-name="" unicode="d" d="M213 473 Q272 468 322 430 L321 430 Q348 403 363.5 371.5 Q379 340 381 303 Q374 248 339 207 L340 208 Q319 188 294.5 174.5 Q270 161 244 154 Q224 149 211 149 Q183 149 155 166 Q144 155 131 150.5 Q118 146 105 148 Q74 173 77 212 Q78 224 78 235.5 Q78 247 78 259 Q78 288 76.5 316 Q75 344 70 373 Q68 390 74.5 405.5 Q81 421 94 435 L158 462 L213 473 ZM218 422 Q179 425 139 413 L128 402 Q131 358 135.5 320 Q140 282 145 247 Q179 224 211 224 Q254 224 291 261 Q315 285 315 325 Q302 364 270 399 Q246 414 219 422 L218 422 Z" /><glyph glyph-name="" unicode="e" d="M313 470 L333 460 Q345 442 335 426 L321 414 L195 412 L177 346 L181 342 L321 352 L343 338 Q349 320 339 306 Q309 284 273 288 L169 286 Q155 260 159 230 L167 218 Q213 196 267 206 Q305 220 345 216 L357 204 Q361 186 351 172 Q277 124 185 142 Q141 146 113 178 Q89 208 95 246 Q109 334 139 420 Q123 422 113 436 L113 456 L127 464 L251 470 L313 470 Z" /><glyph glyph-name="" unicode="f" d="M282 480 Q310 484 336 472 L346 454 L342 434 L324 420 Q252 414 184 412 L188 336 L194 328 Q234 338 278 346 L340 346 Q362 326 352 300 L338 288 Q268 284 202 278 Q194 226 214 168 Q216 140 198 126 L176 126 Q126 182 134 266 Q128 342 136 418 Q110 418 94 436 Q88 452 102 462 L132 472 Q206 472 282 480 Z" /><glyph glyph-name="" unicode="g" d="M295 486 L320 476 Q339 459 349 434 Q347 407 329 392 L318 397 L310 419 L300 432 Q279 440 260 434 Q217 419 186 390 Q140 345 115 289 Q90 237 125 199 Q161 174 208 183 Q258 203 296 241 L296 245 Q258 241 221 249 Q204 264 219 284 Q289 312 372 316 Q416 326 457 311 Q468 291 458 274 L445 262 L393 257 L391 154 Q389 137 376 127 Q358 120 345 131 L333 149 Q331 170 327 191 Q277 143 212 122 Q138 108 82 150 Q36 191 44 253 Q55 334 113 395 L165 444 Q206 473 258 488 L295 486 Z" /><glyph glyph-name="" unicode="h" d="M125 478 L139 464 Q133 416 143 374 Q235 368 329 370 Q327 418 343 464 L359 474 L377 468 L387 450 Q397 316 417 186 L413 170 Q385 138 355 166 L343 202 Q339 252 327 302 Q235 304 145 314 L137 308 L133 148 L127 130 Q101 108 79 132 L65 166 Q69 244 71 324 L45 334 Q33 346 45 360 L75 374 Q75 422 93 466 L109 478 L125 478 Z" /><glyph glyph-name="" unicode="i" d="M123 440 Q183 436 243 432 Q265 416 259 390 L243 374 L201 374 L193 370 Q193 298 201 228 Q219 226 237 218 L247 198 L243 178 L225 164 Q173 156 125 164 Q107 174 111 196 L133 220 Q127 300 131 378 Q107 378 93 396 Q85 416 103 432 L123 440 Z" /><glyph glyph-name="" unicode="j" d="M241 468 L261 454 L267 432 L261 412 L245 400 L199 399 Q205 341 227 284 L227 216 Q217 178 191 155 L161 142 Q123 135 91 150 L69 177 Q61 193 71 210 Q107 208 145 220 Q159 236 157 264 Q145 334 129 400 L67 415 Q39 438 69 460 L111 468 L241 468 Z" /><glyph glyph-name="" unicode="k" d="M158 490 Q168 488 178 482 Q188 442 190 400 L196 388 Q258 416 324 436 L344 428 L354 412 L350 396 Q282 348 204 320 L204 314 Q264 272 334 246 L354 226 Q358 204 346 186 Q322 168 298 182 L202 230 Q202 180 208 134 L194 116 Q172 102 150 116 Q112 190 126 278 L102 308 Q92 328 106 350 L126 364 Q128 422 142 478 L158 490 Z" /><glyph glyph-name="" unicode="l" d="M146 469 L158 445 Q156 341 166 221 L268 237 Q306 245 342 235 Q368 205 340 179 Q272 155 200 149 Q156 137 116 155 Q92 173 90 205 Q82 347 114 463 L130 473 L146 469 Z" /><glyph glyph-name="" unicode="m" d="M100 450 Q142 406 194 372 Q270 386 340 438 Q362 444 386 438 Q406 416 414 386 Q440 286 414 200 Q398 190 382 198 L366 218 Q364 300 356 382 Q300 346 246 312 Q206 300 170 314 Q148 328 128 336 Q130 254 144 174 L136 156 Q116 142 98 154 Q70 176 72 214 Q60 332 76 440 L100 450 Z" /><glyph glyph-name="" unicode="n" d="M114 438 Q138 436 162 424 Q230 362 306 310 Q314 358 320 410 L330 426 L346 434 L364 428 L372 416 Q376 294 368 176 Q344 150 316 170 Q300 188 304 214 L160 350 L154 344 Q148 256 140 170 Q116 144 90 166 Q74 280 110 398 Q94 408 100 428 L114 438 Z" /><glyph glyph-name="" unicode="o" d="M215 466 Q279 448 335 410 Q389 350 379 270 Q365 222 333 188 Q297 154 253 142 Q179 128 119 170 Q61 218 71 294 Q79 380 145 438 Q175 460 215 466 ZM191 398 L181 394 Q153 362 141 322 Q119 262 161 220 Q235 178 295 240 Q321 272 317 318 Q305 350 279 372 Q247 386 213 386 L193 396 L191 398 Z" /><glyph glyph-name="" unicode="p" d="M211 468 Q265 462 313 434 Q341 408 357 372 Q363 330 341 296 Q305 258 259 246 L207 244 Q179 248 161 264 Q161 192 169 124 L157 110 Q129 100 113 122 Q87 218 93 320 Q87 386 119 442 L147 442 Q175 462 211 468 ZM221 420 Q189 422 165 402 L151 374 Q143 336 157 304 Q195 310 237 310 L273 322 L297 346 Q301 374 279 394 L245 416 L221 420 Z" /><glyph glyph-name="" unicode="q" d="M212 502 Q262 504 304 474 Q340 440 364 396 Q384 314 354 238 Q388 202 416 162 Q420 140 408 126 Q388 112 370 124 L318 178 L310 182 Q268 148 220 132 Q142 122 82 166 Q30 212 42 284 Q56 366 114 432 Q154 476 212 502 ZM224 440 L202 430 Q136 372 110 290 Q94 246 126 218 Q196 170 262 224 Q238 262 206 310 L212 324 Q228 334 250 326 Q276 294 306 290 Q314 326 308 366 Q294 400 264 424 L236 438 L224 440 Z" /><glyph glyph-name="" unicode="r" d="M214 482 Q272 482 326 454 Q374 416 374 356 Q362 310 324 282 L274 256 L340 216 L356 200 Q358 182 352 166 Q336 150 318 156 Q242 196 168 234 Q164 192 170 150 L160 134 Q142 118 122 128 Q76 212 96 322 Q94 388 134 442 L174 472 L214 482 ZM222 422 L194 414 Q172 396 166 372 L166 304 Q230 298 286 332 L310 356 Q314 378 300 396 L272 416 L244 420 L222 422 Z" /><glyph glyph-name="" unicode="s" d="M185 464 Q231 462 273 440 Q285 424 289 406 L277 388 L265 386 L255 400 Q223 416 187 412 Q153 404 129 382 L129 374 Q191 340 265 326 L303 304 Q323 280 325 250 Q323 212 301 182 Q271 150 231 138 Q167 124 117 162 Q83 190 105 224 Q149 208 197 202 Q229 200 253 224 Q265 238 267 256 L253 270 L129 310 L97 330 Q75 348 75 378 Q77 410 105 432 Q141 456 185 464 Z" /><glyph glyph-name="" unicode="t" d="M316 430 Q338 432 362 424 Q378 400 366 376 L346 362 L256 354 Q260 266 276 178 L268 162 Q244 136 218 160 L206 184 L190 350 Q138 348 90 358 L78 370 Q72 390 88 402 L120 410 Q218 412 316 430 Z" /><glyph glyph-name="" unicode="u" d="M130 456 Q142 454 152 446 Q144 368 146 292 Q146 264 164 246 L200 228 Q238 218 268 240 Q296 266 302 308 Q296 376 322 434 Q338 440 354 432 Q382 364 360 282 Q348 236 324 200 Q296 172 260 160 Q184 146 124 190 Q92 216 82 256 Q68 356 114 446 L130 456 Z" /><glyph glyph-name="" unicode="v" d="M117 462 L131 444 Q163 328 213 224 L229 248 Q265 344 317 436 Q335 460 367 454 Q387 436 383 410 Q323 298 275 184 L233 124 Q213 108 191 118 Q115 216 95 348 Q63 412 97 464 L117 462 Z" /><glyph glyph-name="" unicode="w" d="M269 456 Q301 396 313 328 Q327 280 361 244 L369 250 Q389 334 397 422 L413 438 L433 440 L447 434 Q475 372 455 294 Q447 236 417 190 L389 170 Q349 164 317 186 L287 220 Q259 268 239 320 Q209 266 193 210 L173 174 Q141 138 103 168 Q69 210 59 266 Q25 356 49 442 L67 444 L79 436 Q103 350 131 264 L137 264 Q175 360 229 450 L247 460 L269 456 Z" /><glyph glyph-name="" unicode="x" d="M148 466 L166 460 L200 426 L234 376 L240 374 L302 444 L324 462 L342 464 Q354 454 356 438 Q324 372 276 320 Q332 248 374 168 Q372 146 354 134 Q334 128 318 140 Q282 192 248 246 L228 268 L220 262 L136 158 Q118 142 100 152 Q76 166 84 194 Q132 262 190 326 Q160 376 128 424 Q118 438 126 456 L142 466 L148 466 Z" /><glyph glyph-name="" unicode="y" d="M111 496 L133 472 Q163 406 207 350 Q269 396 323 452 Q341 468 365 460 Q387 444 381 418 L355 386 L271 314 L243 286 Q257 200 259 116 Q255 92 239 78 Q219 74 205 86 L193 104 L191 266 L173 278 Q113 362 73 458 Q63 480 83 498 L111 496 Z" /><glyph glyph-name="" unicode="z" d="M109 488 Q221 480 337 482 L367 470 Q379 458 381 442 Q375 414 359 394 L221 262 L173 200 L177 196 Q255 208 337 216 L357 208 L369 184 L363 162 Q283 126 193 124 Q133 110 91 146 Q77 170 89 196 Q121 254 167 306 L285 416 Q189 418 95 438 Q69 454 89 480 L109 488 Z" /><glyph glyph-name="" unicode="[" d="M198 486 Q216 484 234 476 Q246 456 236 438 L216 424 Q170 424 128 418 Q116 292 142 172 L212 170 L230 162 Q242 140 234 118 Q180 94 120 106 L96 118 Q64 166 68 228 Q58 326 70 424 Q54 436 58 456 L68 470 L98 480 L198 486 Z" /><glyph glyph-name="" unicode="]" d="M195 476 Q239 396 239 294 Q251 218 227 156 L203 142 Q149 134 99 148 Q83 158 83 176 Q85 194 101 206 L175 206 Q175 314 155 422 Q115 420 79 428 Q49 448 77 472 L109 478 L195 476 Z" /><glyph glyph-name="" unicode="^" d="M127 478 Q181 458 227 420 Q253 394 229 368 Q209 360 193 370 Q165 398 137 418 L101 362 Q83 348 65 358 Q47 370 51 392 Q71 432 103 468 L127 478 Z" /><glyph glyph-name="" unicode="_" d="M252 213 L268 209 L282 195 Q286 173 274 157 L254 147 Q142 137 36 151 Q14 167 26 193 L42 205 L180 213 L252 213 Z" /><glyph glyph-name="" unicode="`" d="M110 478 Q156 472 194 444 L208 422 Q206 400 190 388 L164 388 Q126 414 92 444 L92 464 L110 478 Z" /><glyph glyph-name="" unicode="a" d="M225 354 L257 342 Q269 330 277 314 Q255 264 281 224 L327 204 L337 184 L333 164 Q313 146 289 152 Q249 162 219 190 Q181 152 135 136 Q89 126 51 146 Q13 182 35 234 Q57 280 99 316 Q135 344 183 356 L225 354 ZM223 300 Q175 306 141 274 L105 234 Q87 212 93 194 Q127 190 157 210 L203 252 L223 300 Z" /><glyph glyph-name="" unicode="b" d="M127 440 L137 430 Q133 370 141 316 Q175 324 213 324 Q245 316 271 296 Q287 272 287 244 Q279 212 259 188 Q227 158 189 144 Q157 136 129 150 Q109 132 87 142 Q63 164 71 198 Q77 314 99 428 L115 440 L127 440 ZM215 268 Q177 270 143 256 L135 244 Q125 218 139 202 L165 202 L199 218 L229 248 L229 260 L215 268 Z" /><glyph glyph-name="" unicode="c" d="M223 386 L243 376 Q255 362 257 346 L243 332 Q215 338 189 332 L167 312 Q145 268 151 222 L165 204 Q219 188 277 188 Q279 166 261 152 Q219 130 175 136 Q133 142 107 172 Q71 228 95 296 Q109 342 149 374 L181 388 L223 386 Z" /><glyph glyph-name="" unicode="d" d="M258 458 Q270 460 282 450 Q278 318 288 190 L272 174 Q248 166 232 184 Q204 152 166 136 Q118 124 82 156 Q62 178 66 210 Q74 252 102 288 Q130 316 170 334 L218 336 L234 422 L248 450 L258 458 ZM210 286 Q180 284 158 266 L132 232 Q120 210 128 192 L154 190 L186 214 L214 256 Q218 272 212 284 L210 286 Z" /><glyph glyph-name="" unicode="e" d="M205 372 L231 362 Q255 342 259 312 Q251 276 225 254 Q191 222 147 212 L169 200 Q225 200 283 206 L295 202 Q297 188 289 176 Q257 144 215 136 Q137 122 83 174 Q53 214 69 266 Q81 308 113 340 Q137 366 175 374 L205 372 ZM175 314 L149 292 L133 260 L139 254 L163 266 L199 302 L199 312 L175 314 Z" /><glyph glyph-name="" unicode="f" d="M204 517 Q220 515 238 507 L252 489 L254 471 L246 467 L236 477 Q224 485 216 479 L210 459 L210 365 L274 361 Q298 341 282 315 L268 307 L216 303 Q220 173 222 37 Q214 5 196 -17 Q164 -45 132 -21 Q114 -7 120 17 Q134 19 148 29 Q162 75 156 127 Q146 213 146 303 L76 311 L60 323 Q52 337 62 351 L78 359 Q114 353 148 365 Q150 421 168 477 L184 503 L204 517 Z" /><glyph glyph-name="" unicode="g" d="M193 376 Q215 378 239 368 Q259 350 265 326 Q249 208 249 90 Q245 26 203 -14 Q165 -36 135 -6 L123 18 L129 30 L161 36 Q181 56 185 90 Q195 148 189 200 Q149 176 109 202 Q85 220 89 248 Q97 294 129 334 Q155 364 193 376 ZM207 328 L195 324 Q157 292 149 248 L163 248 L201 290 Q215 308 209 326 L207 328 Z" /><glyph glyph-name="" unicode="h" d="M138 486 Q150 472 150 456 L144 378 Q162 378 182 374 Q202 354 210 326 Q204 268 218 216 L226 214 L276 264 L290 272 Q300 258 300 242 Q292 200 268 168 Q212 120 164 174 L150 206 L146 270 Q122 212 120 150 L106 132 Q90 122 74 130 Q50 148 54 180 Q66 334 110 482 L126 490 L138 486 Z" /><glyph glyph-name="" unicode="i" d="M141 460 L157 450 Q177 422 161 392 Q135 362 101 382 Q83 396 87 420 L99 446 L119 460 L141 460 ZM139 312 Q159 238 151 160 L137 142 Q115 130 97 144 Q79 162 85 192 Q87 252 111 308 L123 316 L139 312 Z" /><glyph glyph-name="" unicode="j" d="M153 462 Q167 462 183 457 Q199 443 202 423 L196 392 Q173 366 147 385 Q107 410 134 450 L153 462 ZM168 313 Q210 250 200 166 Q200 105 177 54 Q157 21 121 16 L96 26 Q65 47 78 86 Q94 84 110 84 L118 91 Q133 125 136 166 Q128 236 144 304 L154 313 L168 313 Z" /><glyph glyph-name="" unicode="k" d="M129 450 Q139 448 149 446 L159 432 L159 330 Q193 340 229 368 Q249 374 269 368 L279 352 L275 336 L195 274 L195 266 L269 226 Q289 208 285 182 Q269 164 247 168 Q193 188 145 218 L137 152 L119 134 Q99 128 83 138 Q61 170 71 212 Q87 324 111 438 L129 450 Z" /><glyph glyph-name="" unicode="l" d="M179 473 Q189 463 191 451 Q175 369 167 287 Q155 239 173 199 Q215 207 255 237 L263 233 L267 207 Q257 171 231 145 Q175 109 121 147 Q83 193 95 255 Q101 365 149 463 L165 475 L179 473 Z" /><glyph glyph-name="" unicode="m" d="M322 351 L350 337 Q392 283 390 215 Q396 171 368 145 L344 145 L326 163 Q336 233 314 295 L294 295 L266 271 L246 241 Q254 181 230 135 Q210 123 192 137 Q170 179 180 231 Q174 259 154 283 L144 285 Q126 219 124 147 L112 119 Q94 105 74 111 Q54 121 56 141 Q58 229 78 315 Q102 327 126 343 Q158 347 188 331 L216 303 Q238 323 264 341 L292 351 L322 351 Z" /><glyph glyph-name="" unicode="n" d="M171 374 Q185 370 201 366 Q223 340 229 308 Q223 242 247 188 Q267 190 285 184 Q289 158 273 142 Q241 120 209 136 Q181 158 175 194 Q175 256 169 316 Q145 284 141 248 Q141 184 119 128 Q101 118 85 126 Q69 138 67 160 Q61 270 103 366 Q117 366 131 356 Q149 366 171 374 Z" /><glyph glyph-name="" unicode="o" d="M163 374 Q203 376 241 356 L275 324 Q303 276 289 222 Q271 182 239 156 Q189 126 135 134 Q103 138 81 160 Q47 208 73 266 Q95 318 135 360 L163 374 ZM165 310 Q139 284 129 248 Q115 220 131 198 Q177 184 213 214 L231 238 Q239 264 225 288 L203 306 L171 308 L165 310 Z" /><glyph glyph-name="" unicode="p" d="M174 365 Q204 362 237 351 L236 351 L272 321 L271 321 Q279 308 282.5 294.5 Q286 281 287 267 Q279 235 258 214 Q225 181 179 192 Q176 142 190 91 L190 92 Q191 84 191.5 75 Q192 66 192 57 Q192 42 190.5 26.5 Q189 11 185 -5 Q171 -19 152 -16 Q131 21 119.5 61.5 Q108 102 108 146 Q108 188 117 233 Q115 240 115 247 Q115 254 115 262 Q115 316 151 358 L174 365 ZM182 323 L170 310 Q168 291 169 273.5 Q170 256 175 238 Q190 243 203.5 252 Q217 261 229 274 Q230 294 214 312 L196 322 L182 323 Z" /><glyph glyph-name="" unicode="q" d="M170 392 Q186 390 202 384 Q224 358 226 324 Q198 272 200 220 L282 236 L306 228 Q302 206 284 194 Q260 182 240 170 Q250 136 246 100 Q234 44 204 0 Q166 -42 124 -12 Q98 28 110 80 Q124 144 132 210 Q100 202 74 216 Q44 240 60 280 Q84 328 124 368 Q142 386 170 392 ZM168 344 L134 310 Q110 284 112 260 Q138 274 162 300 L182 340 L178 344 L168 344 ZM184 160 Q168 106 168 52 Q200 100 190 158 L184 160 Z" /><glyph glyph-name="" unicode="r" d="M122 360 L134 349 Q168 362 205 360 L243 351 L258 336 Q262 313 245 302 Q209 300 175 305 L160 296 Q139 254 136 151 L125 136 Q106 125 91 136 Q74 148 78 167 Q83 296 113 360 L122 360 Z" /><glyph glyph-name="" unicode="s" d="M164 404 Q202 406 234 382 L236 368 L230 356 Q214 350 200 362 L172 356 L148 332 L154 326 L214 312 L246 294 Q268 262 262 226 Q246 182 210 156 L170 136 Q136 128 110 146 Q82 172 102 204 Q140 184 178 210 L202 234 Q208 244 202 256 Q150 262 108 292 Q88 310 94 338 Q102 366 128 386 L164 404 Z" /><glyph glyph-name="" unicode="t" d="M195 428 Q203 427 212 423 L218 411 Q205 384 205 359 Q230 359 255 349 Q264 336 258 324 Q228 303 193 306 Q179 257 184 205 L195 195 L216 198 Q239 216 267 227 Q269 198 256 174 L237 151 Q198 124 157 145 Q131 163 124 193 Q118 227 126 264 Q131 283 134 306 L74 313 L58 324 Q53 335 64 345 L83 354 Q118 352 154 361 L179 416 L195 428 Z" /><glyph glyph-name="" unicode="u" d="M110 368 Q118 365 128 361 L134 342 Q106 269 110 204 L130 220 L162 263 Q168 313 198 353 Q216 361 231 344 Q226 296 235 250 L257 231 Q277 198 251 176 Q233 167 219 176 L187 200 L148 155 Q110 121 68 145 Q29 181 44 234 Q60 298 93 356 L110 368 Z" /><glyph glyph-name="" unicode="v" d="M127 373 L143 358 L151 241 L169 285 Q192 323 225 356 L252 356 Q273 340 267 314 L170 145 Q142 116 111 143 Q90 166 90 198 Q85 300 97 363 L114 375 L127 373 Z" /><glyph glyph-name="" unicode="w" d="M228 363 Q233 363 240.5 362.5 Q248 362 254 360 L268 343 Q270 321 275 297.5 Q280 274 288 252 L299 260 L344 343 L344 341 L361 357 Q366 357 371.5 358 Q377 359 382 359 L396 350 Q407 330 399 311 L400 311 Q383 277 364 243 Q345 209 325 174 Q305 157 287 157 Q276 157 265.5 162.5 Q255 168 246 181 L246 180 L243 186 L244 186 Q239 194 234.5 204 Q230 214 219 232 L180 149 Q162 131 145 131 Q128 131 110 149 L110 147 Q82 203 85 273 Q81 288 81 304 Q81 334 92 359 Q96 359 99 360 Q102 361 106 361 Q108 359 111.5 354 Q115 349 118 347 Q123 316 130.5 284 Q138 252 149 218 Q162 247 178.5 282.5 Q195 318 210 349 L228 363 Z" /><glyph glyph-name="" unicode="x" d="M108 367 Q120 369 132 359 L166 311 Q200 329 238 359 L262 359 Q276 345 272 327 Q234 287 206 245 Q250 199 238 147 Q214 125 192 145 L156 201 Q142 189 128 181 Q106 171 90 183 Q74 233 126 269 Q86 319 108 367 Z" /><glyph glyph-name="" unicode="y" d="M149 369 Q157 367 165 365 Q165 319 151 277 L151 229 L157 229 L195 263 L219 293 Q217 319 235 339 L251 341 Q271 317 271 281 Q277 199 269 121 Q257 67 225 27 Q197 1 161 -1 Q135 -1 119 19 L107 41 Q101 59 113 71 Q147 43 179 73 Q219 133 211 207 L185 181 Q149 147 109 169 Q73 209 91 269 Q99 317 129 359 L149 369 Z" /><glyph glyph-name="" unicode="z" d="M205 363 L235 357 Q265 331 247 299 Q197 253 155 203 Q207 207 263 211 L277 201 L283 183 L275 167 Q239 143 197 137 Q139 127 87 149 Q71 165 71 189 Q79 223 105 249 L159 301 L159 307 Q113 303 75 321 Q67 333 75 349 L89 357 L137 363 L205 363 Z" /><glyph glyph-name="" unicode="{" d="M162 514 Q180 514 196 506 Q212 488 210 468 L202 462 Q188 470 180 464 Q184 342 164 228 Q170 138 186 54 L204 52 L212 46 Q216 22 200 6 Q178 -4 156 4 Q124 24 118 62 Q124 132 118 204 Q98 198 84 212 L84 230 L108 252 Q114 346 120 444 Q124 476 146 504 L162 514 Z" /><glyph glyph-name="" unicode="|" d="M163 482 Q187 432 189 370 Q197 254 179 148 Q165 130 147 140 L129 164 Q103 334 143 484 L163 482 Z" /><glyph glyph-name="" unicode="}" d="M85 560 Q125 556 159 532 Q173 506 173 478 Q151 416 165 358 L173 356 L189 384 Q201 394 221 392 Q233 378 233 358 Q215 322 215 284 Q217 192 207 104 Q199 72 177 52 Q151 38 127 52 Q103 70 97 100 Q93 110 103 118 Q121 102 143 104 L151 128 Q157 214 161 302 L133 314 Q109 328 105 358 Q105 432 123 508 L115 520 L73 546 L67 554 L85 560 Z" /><glyph glyph-name="" unicode="&#x3001;" d="M141 34 Q191 34 225 -4 L247 -40 Q249 -60 243 -74 Q219 -96 197 -74 Q183 -46 163 -22 Q139 -14 121 2 Q115 14 125 26 L141 34 Z" /><glyph glyph-name="" unicode="&#x4e07;" d="M246 558 Q479 549 714 554 L736 547 Q754 529 749 505 L736 488 L719 479 Q545 483 375 479 Q391 417 391 356 L397 347 Q499 364 604 384 Q679 400 743 364 Q787 307 780 232 Q769 182 736 144 Q688 92 620 89 Q578 94 551 127 Q521 166 538 213 Q547 226 562 217 Q591 180 633 171 Q666 180 690 206 Q708 230 712 261 Q716 301 690 325 Q624 327 562 318 Q477 298 393 294 Q380 217 349 147 L305 72 Q279 43 246 61 L230 83 Q226 118 246 144 L252 138 L259 142 Q303 219 323 307 Q331 397 312 488 Q254 490 210 518 Q206 536 221 547 L246 558 Z" /></font>
</defs>
</svg>
